<svg width="6" height="7" viewBox="0 0 6 7" fill="none" xmlns="http://www.w3.org/2000/svg">
<path d="M3.65886 3.44991L5.42636 1.68191C5.47412 1.63579 5.51221 1.58061 5.53841 1.51961C5.56462 1.45861 5.57841 1.393 5.57899 1.32661C5.57957 1.26022 5.56691 1.19438 5.54177 1.13293C5.51663 1.07148 5.47951 1.01566 5.43256 0.968712C5.38561 0.921766 5.32979 0.884639 5.26834 0.859499C5.20689 0.834358 5.14105 0.821708 5.07466 0.822285C5.00827 0.822861 4.94266 0.836655 4.88166 0.862859C4.82066 0.889064 4.76549 0.927155 4.71936 0.97491L2.95136 2.74241L1.18386 0.97491C1.13774 0.927155 1.08257 0.889064 1.02157 0.862859C0.960563 0.836655 0.894953 0.822861 0.828563 0.822285C0.762174 0.821708 0.696334 0.834358 0.634886 0.859499C0.573438 0.884639 0.517612 0.921766 0.470665 0.968712C0.423719 1.01566 0.386592 1.07148 0.361452 1.13293C0.336312 1.19438 0.323661 1.26022 0.324238 1.32661C0.324815 1.393 0.338608 1.45861 0.364812 1.51961C0.391017 1.58061 0.429108 1.63579 0.476863 1.68191L2.24436 3.44941L0.476863 5.21741C0.429108 5.26353 0.391017 5.31871 0.364812 5.37971C0.338608 5.44071 0.324815 5.50632 0.324238 5.57271C0.323661 5.6391 0.336312 5.70494 0.361452 5.76639C0.386592 5.82784 0.423719 5.88366 0.470665 5.93061C0.517612 5.97755 0.573438 6.01468 0.634886 6.03982C0.696334 6.06496 0.762174 6.07761 0.828563 6.07703C0.894953 6.07646 0.960563 6.06266 1.02157 6.03646C1.08257 6.01026 1.13774 5.97217 1.18386 5.92441L2.95136 4.15691L4.71936 5.92441C4.76549 5.97217 4.82066 6.01026 4.88166 6.03646C4.94266 6.06266 5.00827 6.07646 5.07466 6.07703C5.14105 6.07761 5.20689 6.06496 5.26834 6.03982C5.32979 6.01468 5.38561 5.97755 5.43256 5.93061C5.47951 5.88366 5.51663 5.82784 5.54177 5.76639C5.56691 5.70494 5.57957 5.6391 5.57899 5.57271C5.57841 5.50632 5.56462 5.44071 5.53841 5.37971C5.51221 5.31871 5.47412 5.26353 5.42636 5.21741L3.65886 3.44941V3.44991Z" fill="#224660"/>
</svg>
