<svg width="69" height="69" viewBox="0 0 69 69" fill="none" xmlns="http://www.w3.org/2000/svg">
<path d="M51.9648 4.46777L63.9622 16.974V64.5323H19.1445V64.6875H64.1153V17.1314L51.9648 4.46777Z" fill="#909090"/>
<path d="M51.8168 4.3125H18.9922V64.5322H63.9629V16.9762L51.8146 4.3125" fill="#F4F4F4"/>
<path d="M18.6612 7.54688H4.88281V22.2676H48.2234V7.54688H18.6612Z" fill="#7A7B7C"/>
<path d="M48.4551 22.0175H5.16406V7.28601H48.4551V22.0175Z" fill="#A6CCE5"/>
<path d="M19.5174 9.77642H16.6992V20.1264H18.9158V16.6355L19.4053 16.6635C19.8809 16.6553 20.3521 16.5701 20.8004 16.4112C21.1935 16.276 21.5551 16.0626 21.8634 15.7837C22.1772 15.5181 22.4245 15.1829 22.5858 14.8048C22.802 14.1762 22.8793 13.5082 22.8122 12.8469C22.7987 12.3745 22.7159 11.9066 22.5664 11.4583C22.4303 11.1347 22.2283 10.8429 21.9732 10.6016C21.7182 10.3603 21.4157 10.1747 21.085 10.0567C20.7991 9.95323 20.5037 9.87812 20.2031 9.83249C19.9755 9.79736 19.7456 9.77863 19.5153 9.77642H19.5174ZM19.1078 14.7229H18.9158V11.5316H19.332C19.5157 11.5184 19.7 11.5466 19.8713 11.6141C20.0426 11.6817 20.1965 11.7869 20.3217 11.9219C20.5812 12.2691 20.7197 12.6917 20.7163 13.1251C20.7163 13.6555 20.7163 14.1364 20.2376 14.4749C19.8928 14.6646 19.5002 14.75 19.1078 14.7207V14.7229ZM27.0233 9.74839C26.784 9.74839 26.5511 9.76564 26.3872 9.77211L25.8741 9.78505H24.1922V20.135H26.1716C26.9281 20.1558 27.6813 20.0276 28.3883 19.7577C28.9573 19.532 29.4612 19.1681 29.8545 18.699C30.2369 18.2256 30.5114 17.6744 30.6588 17.084C30.8282 16.4152 30.9108 15.7275 30.9046 15.0377C30.9464 14.223 30.8834 13.4062 30.717 12.6076C30.5591 12.0197 30.2635 11.4779 29.8545 11.027C29.5336 10.663 29.1409 10.3693 28.7009 10.1645C28.3231 9.98971 27.9257 9.86085 27.5171 9.78074C27.3547 9.7539 27.1901 9.74163 27.0255 9.74408L27.0233 9.74839ZM26.6331 18.2332H26.4174V11.6265H26.4455C26.89 11.5753 27.3398 11.6555 27.7392 11.8572C28.0317 12.0908 28.2701 12.3851 28.4378 12.7197C28.6189 13.0719 28.7232 13.4584 28.744 13.8539C28.7634 14.3283 28.744 14.7164 28.744 15.0377C28.7528 15.4078 28.729 15.7779 28.6729 16.1438C28.6064 16.5195 28.4836 16.883 28.3085 17.222C28.1103 17.5371 27.8425 17.8026 27.5258 17.9982C27.2597 18.1703 26.9447 18.2505 26.6288 18.2268L26.6331 18.2332ZM37.5825 9.78505H32.3428V20.135H34.5594V16.0295H37.3626V14.1062H34.5594V11.7084H37.5782V9.78505" fill="#464648"/>
<path d="M46.963 43.6749C46.963 43.6749 53.8372 42.4286 53.8372 44.7767C53.8372 47.1249 49.5786 46.1697 46.963 43.6749ZM41.8807 43.8538C40.7886 44.0952 39.7242 44.4485 38.7046 44.9083L39.5671 42.9676C40.4296 41.027 41.3244 38.3813 41.3244 38.3813C42.3536 40.1135 43.5511 41.74 44.8995 43.2372C43.8826 43.3888 42.8749 43.5961 41.8807 43.8582V43.8538ZM39.1596 29.8382C39.1596 27.7919 39.8215 27.2335 40.3369 27.2335C40.8522 27.2335 41.4322 27.4814 41.4517 29.2582C41.2838 31.0448 40.9097 32.8059 40.3369 34.5065C39.5523 33.0787 39.1462 31.4738 39.1574 29.8447L39.1596 29.8382ZM29.1352 52.5134C27.0263 51.2519 33.5576 47.3685 34.7414 47.2435C34.7349 47.2456 31.3432 53.833 29.1352 52.5134ZM55.8446 45.0549C55.8231 44.8393 55.629 42.4523 51.3812 42.5536C49.6106 42.5251 47.8409 42.6499 46.0919 42.9267C44.3977 41.2198 42.9387 39.2945 41.7535 37.2018C42.5002 35.0443 42.952 32.7959 43.0969 30.5174C43.0343 27.9299 42.4155 26.4464 40.4317 26.468C38.448 26.4896 38.1591 28.2254 38.42 30.8085C38.6755 32.5444 39.1576 34.2393 39.8539 35.8498C39.8539 35.8498 38.9375 38.7026 37.7257 41.5402C36.5138 44.3778 35.6858 45.8656 35.6858 45.8656C33.5786 46.5516 31.5949 47.5708 29.8101 48.8844C28.0333 50.5382 27.311 51.8083 28.2468 53.0783C29.0532 54.1737 31.8757 54.4216 34.3986 51.1161C35.739 49.4088 36.9636 47.6137 38.0642 45.7427C38.0642 45.7427 41.9109 44.6883 43.1077 44.3994C44.3044 44.1104 45.7512 43.8819 45.7512 43.8819C45.7512 43.8819 49.2638 47.416 52.6512 47.2909C56.0387 47.1658 55.8748 45.2662 55.8532 45.0592" fill="#A6CCE5"/>
<path d="M51.6484 4.47852V17.1422H63.7946L51.6484 4.47852Z" fill="#909090"/>
<path d="M51.8164 4.3125V16.9762H63.9626L51.8164 4.3125Z" fill="#F4F4F4"/>
<path d="M19.3495 9.61041H16.5312V19.9604H18.7565V16.4716L19.2481 16.4996C19.7237 16.4914 20.1949 16.4062 20.6432 16.2473C21.0363 16.1121 21.3979 15.8986 21.7062 15.6199C22.0176 15.3536 22.2627 15.0184 22.4221 14.6409C22.6384 14.0124 22.7156 13.3444 22.6485 12.6831C22.6351 12.2106 22.5522 11.7428 22.4027 11.2944C22.2666 10.9708 22.0646 10.679 21.8096 10.4377C21.5545 10.1964 21.252 10.0109 20.9214 9.89288C20.6342 9.78837 20.3373 9.71253 20.0352 9.66647C19.8075 9.63135 19.5776 9.61261 19.3473 9.61041H19.3495ZM18.9398 14.5568H18.7479V11.3656H19.1662C19.3499 11.3524 19.5342 11.3805 19.7055 11.4481C19.8768 11.5157 20.0307 11.6208 20.1559 11.7559C20.4153 12.1031 20.5539 12.5257 20.5505 12.9591C20.5505 13.4895 20.5505 13.9703 20.0718 14.3089C19.727 14.4985 19.3344 14.5839 18.9419 14.5547L18.9398 14.5568ZM26.8554 9.58238C26.616 9.58238 26.3832 9.59963 26.2193 9.6061L25.7126 9.61903H24.0307V19.969H26.0101C26.7666 19.9898 27.5198 19.8616 28.2267 19.5917C28.7958 19.366 29.2997 19.0021 29.693 18.533C30.0754 18.0596 30.3499 17.5084 30.4973 16.9179C30.6667 16.2492 30.7493 15.5615 30.7431 14.8717C30.7849 14.0569 30.7219 13.2402 30.5555 12.4416C30.3976 11.8537 30.102 11.3119 29.693 10.861C29.3721 10.497 28.9794 10.2033 28.5394 9.99853C28.1616 9.8237 27.7642 9.69484 27.3556 9.61472C27.1932 9.58788 27.0286 9.57562 26.864 9.57806L26.8554 9.58238ZM26.4716 18.0672H26.2559V11.4605H26.284C26.7285 11.4093 27.1783 11.4895 27.5777 11.6912C27.8702 11.9248 28.1086 12.219 28.2763 12.5537C28.4574 12.9059 28.5617 13.2924 28.5825 13.6879C28.6019 14.1623 28.5825 14.5504 28.5825 14.8717C28.5913 15.2418 28.5675 15.6119 28.5114 15.9778C28.4449 16.3535 28.3221 16.717 28.147 17.0559C27.9488 17.3711 27.681 17.6366 27.3643 17.8322C27.0982 18.0043 26.7832 18.0845 26.4672 18.0608L26.4716 18.0672ZM37.4145 9.61903H32.1748V19.969H34.3915V15.8635H37.1946V13.9402H34.3915V11.5424H37.4102V9.61903" fill="#224660"/>
</svg>
