<svg width="291" height="41" viewBox="0 0 291 41" fill="none" xmlns="http://www.w3.org/2000/svg">
<path d="M14.2808 17.1149C7.19675 15.5779 4.37352 14.7017 4.37352 10.2692C4.37352 5.7485 8.11678 2.28726 14.336 2.28726C18.7445 2.28726 23.3536 5.22851 24.1666 10.5887L25.0494 10.5864L24.8183 2.02956C22.3693 0.668883 17.679 0 15.2583 0C5.98921 0 0 5.29723 0 11.3905C0 18.9005 5.35557 20.811 15.2583 22.9047C19.2327 23.7637 22.5779 24.9445 22.5779 29.8752C22.5779 36.2617 17.2156 38.7116 13.0123 38.7116C6.99606 38.7116 2.85818 34.4772 1.47363 28.5695H0.579529L0.923412 38.1103C4.2822 40.1799 7.82927 41 11.4012 41C22.1123 41 26.9458 35.2171 26.9458 28.3829C26.9447 20.1959 21.4753 18.6589 14.2808 17.1149Z" fill="white"/>
<path d="M136.045 35.0946L125.662 20.8132C131.923 20.5029 136.576 16.2548 136.576 9.97025C136.576 4.85856 132.187 0.615052 123.905 0.615052H109.518L109.516 1.47635H109.518C110.859 1.47635 112.456 1.78102 112.456 4.06255V36.9397C112.456 36.9466 112.456 36.9512 112.456 36.9558C112.444 39.5236 110.399 39.5236 109.516 39.5236V40.3872H121.034V39.5236C120.102 39.5236 118.098 39.5236 118.098 36.9374V2.90346H121.2C128.234 2.90346 131.324 5.7485 131.324 10.9701C131.324 15.6718 129.27 19.7572 119.514 19.7572L133.878 40.3872H141.266L141.271 39.5236C139.621 39.5236 137.769 37.4345 136.045 35.0946Z" fill="white"/>
<path d="M77.8688 1.47635L77.8665 0.615052H67.2659V1.47635C71.1129 1.47635 72.0047 3.01341 70.6281 7.82043C70.0902 9.70453 62.916 34.83 62.916 34.83H62.801C62.801 34.83 55.1578 9.09749 54.5602 7.01754C53.7654 4.25267 52.4304 1.47635 57.1456 1.47635V0.615052H43.6834V1.47635C45.8481 1.47635 47.4199 2.15211 48.1651 4.24809C48.6319 5.5389 51.4856 13.9343 51.4856 15.0487C51.4856 16.1563 47.9667 27.9694 46.1808 34.3066L46.0658 34.3043C46.0658 34.3043 38.3582 9.17423 37.5149 6.40707C37.1011 5.03838 36.7042 4.19426 36.7042 3.28142C36.7042 2.07537 37.5149 1.47635 39.4327 1.47635V0.615052H27.8636V1.47635C30.4692 1.47635 31.1277 3.20125 31.8166 5.41749L42.9415 40.7572H46.7997L52.8341 18.1629H52.9468L59.5133 40.7572H63.561L73.5573 5.72674C74.3082 3.01799 76.0434 1.47635 77.8688 1.47635Z" fill="white"/>
<path d="M102.948 34.5345L90.8135 0.617343L83.8918 0.615052V1.47635C84.7769 1.47635 85.839 1.73864 85.8447 3.27684C85.8447 3.80713 85.6597 4.58368 85.3846 5.41749C85.211 5.95008 75.1358 35.4588 75.1358 35.4588C73.988 38.8479 73.0747 39.5236 70.654 39.5236L70.6495 40.3872H80.9198V39.5236C78.1428 39.5236 77.322 38.439 77.3175 37.5147C77.3175 36.6534 77.6129 35.5241 78.1868 33.8576L81.1069 24.9525H94.2298L96.7272 32.135C97.9381 35.5241 98.3214 36.5686 98.3214 37.6785C98.3214 38.8479 97.7881 39.5236 95.4035 39.5236V40.3872H107.19V39.5236C104.595 39.5236 104.443 38.6623 102.948 34.5345ZM81.8748 22.6916L87.6622 5.74735H87.7772L93.4744 22.6928L81.8748 22.6916Z" fill="white"/>
<path d="M159.713 1.78793e-06C150.792 1.78793e-06 140.828 8.5546 140.828 20.6254C140.828 31.7696 147.276 41 158.852 41C170.25 41 177.561 30.6002 177.561 20.0058C177.561 11.024 172.494 1.78793e-06 159.713 1.78793e-06ZM160.669 37.8995C152.652 37.8995 145.426 27.1379 145.426 18.4401C145.426 6.15395 152.791 3.3845 157.524 3.3845C165.361 3.3845 172.264 11.4489 172.264 22.2243C172.261 32.0182 168.159 37.8995 160.669 37.8995Z" fill="white"/>
<path d="M272.355 37.123L256.288 18.5352C256.288 18.5352 267.501 6.10585 268.73 4.76006C270.452 2.86337 271.905 1.47635 274.291 1.47635V0.615052H263.163V1.47635C267.937 1.47635 266.476 3.83233 265.641 4.76006C264.804 5.68436 251.445 20.5017 251.445 20.5017L268.478 40.3861H276.206V39.5225C274.481 39.5236 273.561 38.5993 272.355 37.123Z" fill="white"/>
<path d="M291 1.47635V0.615052H279.483V1.47635C280.416 1.47635 282.42 1.47635 282.42 4.06255V36.9374C282.42 39.5236 280.368 39.5236 279.483 39.5236V40.3872H291V39.5236C290.069 39.5236 288.066 39.5236 288.066 36.9397V4.06255C288.066 1.47635 290.069 1.47635 291 1.47635Z" fill="white"/>
<path d="M250.765 36.9397V4.06255C250.765 1.47635 252.766 1.47635 253.696 1.47635V0.615052H242.181V1.47635C243.114 1.47635 245.12 1.47635 245.12 4.06255V36.9397C245.12 39.5236 243.068 39.5236 242.181 39.5236V40.3872H253.696V39.5236C252.767 39.5236 250.765 39.5236 250.765 36.9397Z" fill="white"/>
<path d="M225.333 17.1149C218.251 15.5779 215.428 14.7017 215.428 10.2692C215.428 5.7485 219.171 2.28726 225.39 2.28726C229.801 2.28726 234.41 5.22851 235.219 10.5887H236.102L235.875 2.02956C233.42 0.668884 228.73 1.78793e-06 226.315 1.78793e-06C217.041 1.78793e-06 211.057 5.29723 211.057 11.3905C211.057 18.9005 216.41 20.811 226.315 22.9047C230.287 23.7637 233.628 24.9445 233.628 29.8752C233.628 36.2617 228.27 38.7116 224.068 38.7116C218.054 38.7116 213.911 34.4772 212.527 28.5695H211.626L211.978 38.1103C215.338 40.1799 218.886 41 222.453 41C233.164 41 237.998 35.2171 237.998 28.3829C237.999 20.1936 232.531 18.6589 225.333 17.1149Z" fill="white"/>
<path d="M211.508 0.615052H201.235V1.47635C206.21 1.47635 204.899 4.79557 204.278 6.7713C202.906 11.1041 195.221 34.8094 195.221 34.8094H195.104L185.573 5.91C185.34 5.22966 184.937 3.93656 184.937 3.26539C184.937 2.0937 185.67 1.47635 187.877 1.47635V0.615052H176.093V1.47635C178.683 1.47635 178.951 2.89429 179.469 4.2481L192.07 40.7584H195.681C195.681 40.7584 206.39 7.57877 207.289 4.76236C208.134 2.11202 209.423 1.47635 211.508 1.47635V0.615052Z" fill="white"/>
</svg>
