<svg width="190" height="30" viewBox="0 0 190 30" fill="none" xmlns="http://www.w3.org/2000/svg">
<path d="M136.922 14.4404C137.741 14.2393 138.384 13.8408 138.851 13.2444C139.318 12.6486 139.551 11.9337 139.551 11.1004C139.551 9.93688 139.088 9.01754 138.161 8.34237C137.235 7.66719 135.967 7.32933 134.358 7.32933H129.301C128.393 7.32933 127.656 8.06568 127.656 8.974V20.7694C127.656 21.6777 128.393 22.4141 129.301 22.4141H134.552C136.276 22.4141 137.637 22.0443 138.635 21.3046C139.634 20.5649 140.133 19.5481 140.133 18.255C140.133 17.2497 139.849 16.4092 139.282 15.734C138.714 15.0588 137.928 14.6278 136.922 14.441V14.4404ZM130.544 9.82885H134.207C134.954 9.81452 135.54 9.96554 135.963 10.2814C136.387 10.5972 136.599 11.0431 136.599 11.6174C136.599 12.2066 136.387 12.6662 135.963 12.9964C135.54 13.3271 134.954 13.4919 134.207 13.4919H130.544V9.8283V9.82885ZM136.362 19.397C135.845 19.7564 135.126 19.9289 134.207 19.914H130.544V15.9275H134.207C135.126 15.9131 135.844 16.0818 136.362 16.434C136.879 16.7862 137.138 17.2706 137.138 17.8885C137.138 18.535 136.879 19.0377 136.362 19.397Z" fill="#231F20"/>
<path d="M172.597 7.32894H170.162C170.06 7.32894 169.978 7.41106 169.978 7.51192V17.7371L162.746 8.06033C162.402 7.60011 161.861 7.32838 161.285 7.32838C160.278 7.32838 159.462 8.14466 159.462 9.15163V22.2302C159.462 22.3316 159.544 22.4137 159.645 22.4137H162.101C162.202 22.4137 162.285 22.3316 162.285 22.2302V12.0265L169.463 21.6371C169.817 22.1111 170.368 22.4143 170.959 22.4137C171.964 22.412 172.779 21.5969 172.779 20.5905V7.51192C172.779 7.41051 172.697 7.32894 172.596 7.32894H172.597Z" fill="#231F20"/>
<path d="M189.966 22.1248L184.008 13.7075L189.526 7.63532C189.633 7.51737 189.55 7.32887 189.391 7.32887H186.481C186.429 7.32887 186.38 7.35092 186.346 7.3895L179.591 14.85V7.51296C179.591 7.41155 179.509 7.32942 179.408 7.32942H176.886C176.785 7.32942 176.703 7.41155 176.703 7.51296V22.2312C176.703 22.3326 176.785 22.4142 176.886 22.4142H179.408C179.509 22.4142 179.591 22.3321 179.591 22.2312V18.5566L181.961 15.9491L186.647 22.3392C186.682 22.3861 186.736 22.4142 186.795 22.4142H189.817C189.966 22.4142 190.053 22.2466 189.967 22.1248H189.966Z" fill="#231F20"/>
<path d="M68.3562 7.32887C67.567 7.32887 66.8516 7.79295 66.5302 8.51387L62.1027 18.4376L57.6339 8.50781C57.3109 7.7902 56.5972 7.32887 55.8107 7.32887H55.8063C54.7017 7.32887 53.8066 8.22396 53.8066 9.32849V22.2301C53.8066 22.3315 53.8888 22.4136 53.9896 22.4136H56.2521C56.353 22.4136 56.4351 22.3315 56.4351 22.2301V11.5954L60.7717 21.5356C60.9508 21.9463 61.303 22.2665 61.7384 22.3723C62.4285 22.5399 63.1081 22.1821 63.377 21.5626L67.7053 11.5954V22.2301C67.7053 22.3315 67.7874 22.4136 67.8883 22.4136H70.1723C70.2737 22.4136 70.3553 22.3315 70.3553 22.2301V9.32849C70.3553 8.22396 69.4602 7.32887 68.3557 7.32887H68.3562Z" fill="#69BA31"/>
<path d="M85.4065 19.8925H77.1639V16.1H84.3075C84.4089 16.1 84.4905 16.0179 84.4905 15.917V13.7619C84.4905 13.6605 84.4084 13.579 84.3075 13.579H77.1639V9.8509H85.148C85.2495 9.8509 85.331 9.76878 85.331 9.66736V7.51232C85.331 7.4109 85.2489 7.32933 85.148 7.32933H75.921C75.0127 7.32933 74.2764 8.06568 74.2764 8.974V20.7694C74.2764 21.6777 75.0127 22.4141 75.921 22.4141H85.4065C85.508 22.4141 85.5901 22.332 85.5901 22.2306V20.0761C85.5901 19.9747 85.508 19.8925 85.4065 19.8925Z" fill="#69BA31"/>
<path d="M107.237 7.32887H104.715C104.614 7.32887 104.532 7.411 104.532 7.51186V22.2301C104.532 22.3315 104.614 22.4136 104.715 22.4136H107.237C107.338 22.4136 107.42 22.3315 107.42 22.2301V7.51186C107.42 7.41044 107.338 7.32887 107.237 7.32887Z" fill="#69BA31"/>
<path d="M98.2151 17.4091C98.4752 17.3022 98.7249 17.1765 98.9498 17.0282C99.5307 16.6452 100.021 16.1326 100.384 15.5395C100.894 14.7067 101.149 13.7009 101.149 12.5225C101.149 10.8706 100.618 9.59195 99.555 8.68639C98.4912 7.78138 96.9832 7.32887 95.0294 7.32887H90.382C89.4737 7.32887 88.7373 8.06523 88.7373 8.97354V22.2306C88.7373 22.3321 88.8194 22.4136 88.9203 22.4136H91.4419C91.5433 22.4136 91.6254 22.3321 91.6254 22.2306V17.9746H95.0299H95.0338L98.2344 22.3392C98.2691 22.3861 98.3237 22.4142 98.3821 22.4142H101.405C101.553 22.4142 101.64 22.2466 101.554 22.1248L98.2156 17.4091H98.2151ZM97.5289 14.72C96.954 15.194 96.1207 15.4315 95.0288 15.4315H91.6243V9.85044H95.0288C96.1207 9.85044 96.9535 10.0803 97.5289 10.5399C98.1032 11.0002 98.3909 11.6897 98.3909 12.609C98.3909 13.5432 98.1032 14.2471 97.5289 14.7205V14.72Z" fill="#69BA31"/>
<path d="M38.5191 22.3016L43.6896 10.5127L48.8595 22.3016C48.8887 22.3682 48.9548 22.4112 49.027 22.4112H51.4902C51.6219 22.4112 51.7112 22.2757 51.6577 22.1544L45.746 8.67517C44.96 6.88334 42.4181 6.88334 41.6321 8.67517L35.7209 22.1544C35.6674 22.2757 35.7562 22.4112 35.8884 22.4112H38.351C38.4238 22.4112 38.4899 22.3682 38.5191 22.3016Z" fill="#69BA31"/>
<path d="M112.369 22.3016L117.539 10.5127L122.709 22.3016C122.738 22.3682 122.804 22.4112 122.877 22.4112H125.34C125.472 22.4112 125.561 22.2757 125.507 22.1544L119.596 8.67517C118.81 6.88334 116.268 6.88334 115.482 8.67517L109.57 22.1544C109.517 22.2757 109.606 22.4112 109.738 22.4112H112.201C112.273 22.4112 112.339 22.3682 112.369 22.3016Z" fill="#69BA31"/>
<path d="M144.176 22.3016L149.346 10.5127L154.516 22.3016C154.545 22.3682 154.612 22.4112 154.684 22.4112H157.147C157.279 22.4112 157.368 22.2757 157.315 22.1544L151.403 8.67517C150.617 6.88334 148.075 6.88334 147.289 8.67517L141.378 22.1544C141.325 22.2757 141.413 22.4112 141.546 22.4112H144.008C144.081 22.4112 144.147 22.3682 144.176 22.3016Z" fill="#231F20"/>
<path d="M9.70204 22.3016L14.8719 10.5127L20.0418 22.3016C20.0711 22.3682 20.1372 22.4112 20.2099 22.4112H22.6731C22.8048 22.4112 22.8941 22.2757 22.8406 22.1544L16.9289 8.67517C16.1429 6.88334 13.601 6.88334 12.815 8.67517L6.90323 22.1544C6.85032 22.2757 6.93906 22.4112 7.07079 22.4112H9.53338C9.60613 22.4112 9.67227 22.3682 9.70149 22.3016H9.70204Z" fill="#69BA31"/>
<path d="M26.9557 29.7429H2.78613C1.24949 29.7429 0 28.4929 0 26.9562V2.78668C0 1.25004 1.25004 0 2.78613 0H26.9557C28.4923 0 29.7418 1.25004 29.7418 2.78668V26.9562C29.7418 28.4929 28.4918 29.7429 26.9557 29.7429ZM2.78613 0.916032C1.75435 0.916032 0.915481 1.7549 0.915481 2.78668V26.9562C0.915481 27.988 1.75435 28.8269 2.78613 28.8269H26.9557C27.9869 28.8269 28.8269 27.988 28.8269 26.9562V2.78668C28.8269 1.7549 27.9875 0.916032 26.9557 0.916032H2.78613Z" fill="#69BA31"/>
</svg>
