<svg width="28" height="25" viewBox="0 0 28 25" fill="none" xmlns="http://www.w3.org/2000/svg">
<path d="M27.0823 2.95312L20.8609 0.140625H19.5855L14.0017 2.65625L8.41794 0.140625H8.34017L8.15353 0H7.22031L0.998848 2.8125C0.688534 2.93195 0.424462 3.1481 0.245327 3.42928C0.0661919 3.71047 -0.0185871 4.04189 0.0034134 4.375V23.4375C0.00384694 23.6989 0.0695732 23.9561 0.194572 24.1854C0.31957 24.4147 0.499844 24.6088 0.718882 24.75C0.969223 24.9124 1.26075 24.9992 1.55878 25C1.77886 24.999 1.99621 24.951 2.19648 24.8594L7.78024 22.3437L13.364 24.8594H13.4418C13.6171 24.9417 13.8082 24.9844 14.0017 24.9844C14.1952 24.9844 14.3863 24.9417 14.5616 24.8594H14.6394L20.2232 22.3437L25.8069 24.8594C26.0072 24.951 26.2246 24.999 26.4446 25C26.7427 24.9992 27.0342 24.9124 27.2845 24.75C27.5036 24.6088 27.6838 24.4147 27.8088 24.1854C27.9338 23.9561 27.9996 23.6989 28 23.4375V4.375C27.9994 4.07444 27.9125 3.78043 27.7497 3.52824C27.5869 3.27604 27.3552 3.07636 27.0823 2.95312ZM3.11415 5.375L6.22488 3.98438V19.6094L3.11415 21V5.375ZM9.33561 3.98438L12.4463 5.375V21L9.33561 19.6094V3.98438ZM15.5571 5.375L18.6678 3.98438V19.6094L15.5571 21V5.375ZM24.8893 21L21.7785 19.6094V3.98438L24.8893 5.375V21Z" fill="#A6CCE5"/>
</svg>
