<svg width="172" height="172" viewBox="0 0 172 172" fill="none" xmlns="http://www.w3.org/2000/svg">
<path d="M114.685 137.05C113.152 135.578 110.316 135.578 109.391 137.535C109.33 137.596 109.33 137.717 109.269 137.778C105.826 150.387 97.0885 152.283 85.287 152.162C74.4715 152.162 67.0842 150.068 63.8987 139.128C62.67 134.759 59.9093 134.759 56.8907 137.657C51.7939 142.755 46.6819 147.747 41.2059 153.148C40.6599 153.71 39.2339 155.242 37.9446 156.957C51.6573 166.243 68.1916 171.659 85.9544 171.659C103.899 171.659 120.509 166.121 134.283 156.714C133.115 155.181 131.765 153.695 131.204 153.148C125.682 147.747 120.267 142.451 114.685 137.05Z" fill="#254A65"/>
<path d="M41.2666 56.0561C51.2326 61.7764 60.5768 67.1324 69.7388 72.8375C71.8321 74.0665 73.6676 77.2073 73.8648 79.6653C74.2895 84.6421 74.1682 89.634 74.1075 94.6108C74.0468 97.1295 76.1401 99.1627 78.5975 99.1627C83.8915 99.1627 88.9883 99.1627 94.1457 99.1627C96.6638 99.1627 98.6964 97.1295 98.7571 94.6108C98.8178 89.9982 98.9391 85.5676 98.575 81.0764C98.2717 76.5852 99.9251 74.0665 103.808 71.9119C112.91 66.8745 121.89 61.5791 131.901 55.7982C134.541 54.2657 134.981 50.5635 132.766 48.5455C127.669 43.8115 122.997 39.4417 118.446 34.7684C116.232 32.5531 114.457 32.3104 111.742 33.9642C104.734 38.3341 97.3615 42.3246 90.2169 46.6944C87.4562 48.4848 84.9836 48.6062 82.1015 46.6944C76.3222 43.0073 70.3607 39.6845 64.3387 36.3009C55.4193 31.3848 58.4379 30.5806 50.8079 38.2127C47.3039 41.7176 43.9212 45.1619 40.2958 48.849C38.2632 51.0187 38.6879 54.5844 41.2666 56.0561Z" fill="#254A65"/>
<path d="M58.984 23.6466C60.2734 25.6798 61.7447 27.455 63.474 29.124C65.9314 31.5214 68.8893 33.5546 72.1355 35.2691C75.8822 37.2416 79.3862 39.821 83.2695 41.5356C85.1808 42.3397 87.9416 42.3397 89.7315 41.4142C96.9823 37.6057 103.99 33.4787 110.938 29.1089C112.849 27.8798 114.502 25.4218 115.185 23.2066C116.717 17.8505 118.143 12.5096 119.614 7.15351C109.269 2.79885 97.9531 0.34082 86.0303 0.34082C74.4715 0.34082 63.3982 2.61677 53.3866 6.80452L58.5441 22.7362C58.6048 23.0396 58.7868 23.3431 58.984 23.6466Z" fill="#254A65"/>
<path d="M137.984 86.4932C134.662 89.5126 131.522 92.4562 128.337 95.3542C121.45 101.818 121.207 101.939 127.351 109.435C130.369 113.122 130.491 116.02 127.654 119.707C124.954 123.273 122.739 127.202 120.646 131.087C120.1 132.194 119.842 134.531 120.646 135.335C126.486 141.48 132.447 147.504 138.53 153.725C153.168 142.345 164.044 126.353 168.898 107.918C160.783 100.786 152.425 93.7156 143.93 86.4477C142.156 85.0214 139.637 85.0214 137.984 86.4932Z" fill="#254A65"/>
<path d="M51.536 131.208C49.4427 127.278 47.1674 123.333 44.528 119.768C41.7672 116.081 41.8278 113.122 44.8313 109.435C50.9747 101.939 50.732 101.803 43.8453 95.2936C40.6447 92.3348 37.5198 89.3912 34.1978 86.3718C32.5444 84.8393 29.9505 84.8393 28.2364 86.3111C19.6963 93.6245 11.323 100.756 3.14692 107.963C8.06167 126.474 18.953 142.527 33.6973 153.846C39.78 147.64 45.6808 141.602 51.5208 135.396C52.34 134.713 52.0973 132.316 51.536 131.208Z" fill="#254A65"/>
<path d="M143.02 66.2676C142.717 75.9783 145.599 82.442 153.411 88.1622C159.19 92.35 164.606 97.0233 170.188 101.879C171.174 96.7198 171.659 91.4244 171.659 86.0077C171.659 71.2443 167.912 57.3458 161.329 45.1771C158.508 46.7096 155.732 48.1965 152.85 49.5469C145.053 53.1126 143.263 58.0286 143.02 66.2676Z" fill="#254A65"/>
<path d="M28.9191 66.571C28.6763 58.2714 26.8864 53.416 19.0895 49.7897C16.2074 48.4393 13.3708 46.9675 10.5494 45.4198C4.02672 57.4672 0.340691 71.305 0.340691 86.0077C0.340691 91.5458 0.886743 96.8867 1.87273 102.121C7.40941 97.266 12.8096 92.5928 18.5283 88.4657C26.3251 82.8062 29.2224 76.2969 28.9191 66.571Z" fill="#254A65"/>
<path d="M121.253 30.5958C127.032 36.7409 132.993 42.5218 139.016 48.3634C140.002 49.289 142.277 50.0173 143.142 49.471C148.299 46.5882 153.472 43.6294 158.629 40.61C150.21 27.1971 138.212 16.318 124.013 9.24738C122.542 14.6641 121.131 20.0051 119.705 25.3611C119.417 26.9088 120.145 29.3668 121.253 30.5958Z" fill="#254A65"/>
<path d="M33.9552 48.1813C39.9773 42.3397 45.878 36.5588 51.6573 30.4137C52.7647 29.1847 53.5687 26.7267 53.1894 25.179C51.7787 19.7016 50.3073 14.3 48.8208 8.76184C34.4406 15.7111 22.1992 26.5901 13.6591 40.0638C19.0744 43.2046 24.4139 46.2695 29.8292 49.289C30.6938 49.8504 32.9692 49.1069 33.9552 48.1813Z" fill="#254A65"/>
<path d="M121.071 71.7299C118.735 79.6654 114.745 85.2642 105.204 83.5345C104.961 83.4131 104.901 83.6558 104.097 83.9593C104.097 87.1001 103.854 90.5444 104.339 94.2314C104.885 100.012 103.778 105.05 98.8632 109.055C95.8446 111.514 93.2659 114.533 90.7478 117.416C87.4258 121.285 88.2905 124.122 93.0839 125.473C97.9986 126.823 103.232 127.809 108.025 129.6C112.819 131.39 115.519 130.586 118.173 125.791C124.317 114.973 124.757 115.094 117.491 105.247C115.276 102.106 115.458 100.21 118.295 97.7516C124.074 92.6534 129.793 87.2367 135.451 81.8806C136.437 80.8944 137.908 79.6654 137.908 78.4363C138.151 72.1092 138.03 65.7062 138.03 57.8921C131.643 63.3695 123.407 63.6882 121.071 71.7299Z" fill="#254A65"/>
<path d="M81.1155 117.552C78.5368 114.669 76.0187 111.65 73.0001 109.192C68.0854 105.202 66.978 100.149 67.5241 94.3073C67.9488 90.6203 67.7668 87.176 67.7668 84.0352C66.9628 83.7317 66.8415 83.4889 66.6595 83.6103C57.194 85.2642 53.1287 79.6805 50.7927 71.745C48.4567 63.6882 40.2199 63.3847 33.8186 57.9679C33.8186 65.782 33.6973 72.1699 33.94 78.5729C33.94 79.8019 35.4114 81.0309 36.3974 82.0172C42.1161 87.3732 47.7741 92.7748 53.5535 97.8881C56.3142 100.346 56.5721 102.258 54.3574 105.399C47.1067 115.231 47.5314 115.11 53.6749 126.004C56.3749 130.798 59.0295 131.603 63.8229 129.812C68.6163 128.022 73.8496 127.051 78.7643 125.685C83.5729 124.259 84.4224 121.482 81.1155 117.552Z" fill="#254A65"/>
<path d="M67.9488 134.592C71.5135 145.289 72.8636 146.776 79.993 146.518C90.0197 146.214 102.549 150.766 104.643 134.334C92.4771 128.431 80.2509 128.067 67.9488 134.592Z" fill="#254A65"/>
<path d="M78.461 102.85C76.489 102.85 75.4423 105.126 76.7468 106.597C79.3863 109.678 81.783 112.378 84.3768 115.337C85.3022 116.384 86.9556 116.384 87.8809 115.276C90.3989 112.196 92.6743 109.495 95.071 106.537C96.2997 105.065 95.253 102.85 93.281 102.85C88.1843 102.85 83.5729 102.85 78.461 102.85Z" fill="#254A65"/>
</svg>
