<svg width="20" height="20" viewBox="0 0 20 20" fill="none" xmlns="http://www.w3.org/2000/svg">
<path d="M17.4943 11.0248C17.2743 11.0248 17.0443 10.9548 16.8243 10.9048C16.3788 10.8066 15.941 10.6763 15.5143 10.5148C15.0504 10.346 14.5404 10.3548 14.0826 10.5394C13.6248 10.724 13.2514 11.0714 13.0343 11.5148L12.8143 11.9648C11.8403 11.4229 10.9453 10.75 10.1543 9.96477C9.36907 9.17379 8.69612 8.27877 8.1543 7.30477L8.5743 7.02477C9.01767 6.80769 9.36508 6.4343 9.54969 5.97646C9.73431 5.51862 9.74307 5.00868 9.5743 4.54477C9.41552 4.11719 9.28524 3.67957 9.1843 3.23477C9.1343 3.01477 9.0943 2.78477 9.0643 2.55477C8.94287 1.85039 8.57393 1.21251 8.02392 0.75601C7.47392 0.299507 6.779 0.0543793 6.0643 0.0647704H3.0643C2.63333 0.0607239 2.20655 0.149584 1.81301 0.325301C1.41947 0.501018 1.06841 0.759466 0.78373 1.08305C0.499051 1.40664 0.287435 1.78776 0.163288 2.20048C0.0391415 2.6132 0.00537935 3.04783 0.0643 3.47477C0.597038 7.66415 2.51033 11.5566 5.50195 14.5374C8.49358 17.5182 12.393 19.4173 16.5843 19.9348H16.9643C17.7017 19.9359 18.4137 19.6653 18.9643 19.1748C19.2807 18.8918 19.5334 18.5449 19.7058 18.1571C19.8781 17.7692 19.9663 17.3492 19.9643 16.9248V13.9248C19.9521 13.2302 19.6991 12.5613 19.2486 12.0324C18.7982 11.5035 18.1781 11.1474 17.4943 11.0248ZM17.9943 17.0248C17.9941 17.1668 17.9637 17.3071 17.9051 17.4364C17.8465 17.5657 17.761 17.6811 17.6543 17.7748C17.5426 17.8712 17.4119 17.9433 17.2707 17.9864C17.1295 18.0294 16.9809 18.0425 16.8343 18.0248C13.0892 17.5446 9.61054 15.8313 6.94702 13.1551C4.2835 10.4789 2.58671 6.99211 2.1243 3.24477C2.10838 3.09829 2.12233 2.9501 2.1653 2.80916C2.20827 2.66822 2.27937 2.53746 2.3743 2.42477C2.46801 2.3181 2.58336 2.23261 2.71268 2.17399C2.842 2.11536 2.98232 2.08495 3.1243 2.08477H6.1243C6.35685 2.0796 6.58392 2.15565 6.76644 2.29984C6.94896 2.44403 7.07551 2.64734 7.1243 2.87477C7.1643 3.1481 7.2143 3.4181 7.2743 3.68477C7.38982 4.21191 7.54356 4.72995 7.7343 5.23477L6.3343 5.88477C6.2146 5.93969 6.10692 6.01772 6.01746 6.11437C5.92799 6.21102 5.8585 6.32438 5.81297 6.44797C5.76744 6.57155 5.74677 6.7029 5.75215 6.83449C5.75752 6.96608 5.78884 7.09532 5.8443 7.21477C7.2835 10.2975 9.76155 12.7756 12.8443 14.2148C13.0878 14.3148 13.3608 14.3148 13.6043 14.2148C13.729 14.1702 13.8436 14.1012 13.9415 14.012C14.0393 13.9227 14.1185 13.8149 14.1743 13.6948L14.7943 12.2948C15.3113 12.4796 15.8389 12.6333 16.3743 12.7548C16.641 12.8148 16.911 12.8648 17.1843 12.9048C17.4117 12.9536 17.615 13.0801 17.7592 13.2626C17.9034 13.4451 17.9795 13.6722 17.9743 13.9048L17.9943 17.0248Z" fill="#224660"/>
</svg>
