<svg width="345" height="388" viewBox="0 0 345 388" fill="none" xmlns="http://www.w3.org/2000/svg">
<path d="M78.9678 321.783C76.5396 320.622 75.8006 319.672 75.695 317.243C75.3783 310.487 75.4839 303.413 75.4839 287.155C75.4839 270.792 75.3783 263.718 75.695 257.067C75.8006 254.639 76.5396 253.478 78.9678 252.528L78.8622 252C76.434 252.317 73.6892 252.528 71.1554 252.528C69.4663 252.528 64.7156 252.317 63.871 252.317C61.0205 259.073 57.0088 269.63 49.5132 286.839C47.4018 291.801 44.3402 299.507 41.0675 306.686L31.8827 287.155C24.2815 270.581 19.0029 259.179 16.0469 252.317C14.9912 252.317 9.60704 252.528 7.91789 252.528C5.80645 252.528 1.68915 252.317 0.52786 252L0.422288 252.528C2.85044 253.689 3.58944 254.85 3.69502 257.067C4.01173 263.718 3.90616 270.792 3.90616 287.155C3.90616 303.413 3.58944 310.487 3.27273 317.243C3.16716 319.777 2.21701 320.622 0 321.783L0.105572 322.205C1.68915 321.889 4.32845 321.783 5.91202 321.783C7.60117 321.783 10.1349 321.889 11.7185 322.205L11.824 321.783C9.81818 320.833 8.65689 319.777 8.55132 317.243C8.23461 310.487 7.91789 303.413 7.91789 287.155C7.91789 273.326 7.4956 266.041 7.17889 259.812L7.91789 261.079C10.7683 266.991 13.3021 272.692 20.0587 287.155C27.7654 303.625 32.7273 313.971 35.5777 320.727H39.0616C41.912 313.971 45.3959 304.152 52.9971 286.839C58.9091 273.22 61.9707 266.041 65.0323 259.918C65.0323 265.935 64.61 273.114 64.61 287.155C64.61 303.73 64.7156 310.381 64.3988 317.243C64.2933 319.883 63.132 320.833 61.1261 321.783L61.2317 322.205C62.7097 321.889 68.4106 321.783 70.0997 321.783C71.6833 321.783 77.3842 321.889 78.8622 322.205L78.9678 321.783Z" fill="#fff"/>
<path d="M168.51 252C166.926 252.317 164.709 252.528 163.126 252.528C161.437 252.528 159.325 252.317 157.742 252L157.636 252.528C160.064 253.689 160.803 254.85 160.909 257.067C161.226 263.93 161.437 272.27 161.437 294.545C161.437 310.909 154.469 318.194 138.95 318.194C124.909 318.194 117.624 311.015 117.624 295.707C117.624 279.343 117.519 263.824 117.836 257.067C117.941 254.639 118.68 253.478 121.108 252.528L121.003 252C119.63 252.317 113.824 252.528 112.135 252.528C110.34 252.528 104.85 252.317 103.372 252L103.267 252.528C105.484 253.689 106.434 254.639 106.539 257.067C106.856 263.824 106.75 279.343 106.75 295.707C106.75 316.293 121.319 324 137.472 324C154.68 324 164.815 313.126 164.921 294.545C164.921 278.182 165.026 263.718 165.343 257.067C165.448 254.639 166.399 253.478 168.616 252.528L168.51 252Z" fill="#fff"/>
<path d="M244.443 311.543C235.998 317.771 221.745 318.827 207.493 318.51C207.177 311.648 207.282 303.413 207.282 287.155C207.282 270.792 207.177 263.718 207.493 257.067C207.599 254.85 208.338 253.372 210.766 252.422L210.66 252C209.182 252.317 203.482 252.528 201.898 252.528C200.209 252.528 194.613 252.528 193.03 252L192.924 252.422C195.036 253.372 196.091 254.639 196.197 257.067C196.514 263.718 196.408 270.792 196.408 287.155C196.408 303.413 196.514 310.487 196.197 317.243C196.091 319.672 195.352 320.622 192.924 321.783L193.03 322.205C196.725 321.889 201.792 321.783 205.487 321.783H240.537C240.537 320.727 244.443 313.021 244.971 311.965L244.443 311.543Z" fill="#fff"/>
<path d="M307.218 262.663C306.69 261.185 303.945 253.372 303.945 252.528H248.309C248.309 253.372 245.459 261.185 244.931 262.768L245.459 263.296C252.638 257.912 262.245 256.012 270.69 256.012V287.155C270.69 303.73 270.796 310.381 270.479 317.243C270.374 319.672 269.635 320.833 267.207 321.783L267.312 322.205C268.79 321.889 274.491 321.783 276.18 321.783C277.764 321.783 283.465 321.889 284.943 322.205L285.048 321.783C282.831 320.833 281.881 319.672 281.775 317.243C281.459 310.381 281.564 303.73 281.564 287.155V256.012C290.01 256.012 299.512 257.806 306.69 263.191L307.218 262.663Z" fill="#fff"/>
<path d="M344.1 321.783C341.989 320.833 340.933 319.777 340.827 317.243C340.51 310.487 340.616 303.413 340.616 287.155C340.616 270.792 340.51 263.718 340.827 257.067C340.933 254.534 341.989 253.372 344.1 252.422L343.994 252C342.516 252.317 336.815 252.528 335.232 252.528C333.543 252.528 327.947 252.528 326.364 252L326.258 252.422C328.37 253.372 329.425 254.85 329.531 257.067C329.848 263.718 329.742 270.792 329.742 287.155C329.742 303.413 329.848 310.487 329.531 317.243C329.425 319.672 328.475 320.622 326.258 321.783L326.364 322.205C328.053 321.889 333.437 321.783 335.232 321.783C336.815 321.783 342.622 321.889 343.994 322.205L344.1 321.783Z" fill="#fff"/>
<path d="M73.3791 349.932C68.4791 349.981 64.9511 351.941 63.2851 356.449C62.1581 352.333 58.9241 349.932 54.1221 349.932C49.6141 349.981 46.2331 351.696 44.4691 355.518V350.079H39.9121V376H44.4691V363.211C44.4691 358.066 47.4581 354.342 52.4071 354.195C56.6211 354.195 59.1201 356.792 59.1201 361.202V376H63.7261V363.211C63.7261 358.066 66.6661 354.342 71.6151 354.195C75.7801 354.195 78.3281 356.792 78.3281 361.202V376H82.9341V359.977C82.9341 353.754 79.3571 349.932 73.3791 349.932ZM111.4 376L111.351 358.948C111.302 353.313 107.676 349.932 101.159 349.932C96.5044 349.932 93.7604 351.157 90.3304 353.362L92.2414 356.498C94.8874 354.685 97.5334 353.705 100.228 353.705C104.589 353.705 106.843 355.812 106.843 359.438V360.663H98.6114C92.4374 360.712 88.8604 363.652 88.8604 368.258C88.8604 372.766 92.3394 376.196 97.8274 376.196C101.747 376.196 104.932 374.971 106.892 372.374V376H111.4ZM98.7584 372.423C95.3284 372.423 93.1724 370.708 93.1724 368.062C93.1724 365.367 95.1814 364.191 99.2484 364.191H106.843V366.788C106.255 370.169 103.021 372.423 98.7584 372.423ZM137.863 350.079V354.832C136.001 351.696 132.816 349.883 128.602 349.932C121.693 349.981 116.989 355.028 116.989 362.28C116.989 369.679 121.742 374.824 128.749 374.824C132.865 374.824 136.05 373.011 137.863 369.875V373.501C137.863 378.548 134.384 381.782 129.043 381.782C125.711 381.782 123.065 380.704 120.566 378.695L118.557 382.027C121.693 384.33 125.172 385.653 129.239 385.653C137.226 385.653 142.469 380.9 142.469 373.354V350.079H137.863ZM129.631 371.149C124.731 371.149 121.35 367.523 121.301 362.427C121.35 357.331 124.731 353.656 129.631 353.656C134.482 353.656 137.863 357.282 137.863 362.427C137.863 367.523 134.482 371.149 129.631 371.149ZM153.038 339.74C151.421 339.74 150.196 340.965 150.196 342.68C150.196 344.346 151.421 345.62 153.038 345.62C154.655 345.62 155.88 344.346 155.88 342.68C155.88 340.965 154.655 339.74 153.038 339.74ZM150.784 350.079V376H155.341V350.079H150.784ZM182.409 356.988L184.908 353.852C182.556 351.353 179.028 349.932 174.618 349.932C167.023 349.932 161.682 355.322 161.682 363.064C161.682 370.806 167.023 376.147 174.618 376.147C179.273 376.147 182.948 374.481 185.251 371.59L182.654 368.944C180.89 371.051 178.146 372.178 174.814 372.178C169.816 372.178 166.239 368.503 166.239 363.064C166.239 357.674 169.816 353.999 174.814 353.999C177.95 353.95 180.498 355.126 182.409 356.988ZM239.903 349.932C235.003 349.981 231.475 351.941 229.809 356.449C228.682 352.333 225.448 349.932 220.646 349.932C216.138 349.981 212.757 351.696 210.993 355.518V350.079H206.436V376H210.993V363.211C210.993 358.066 213.982 354.342 218.931 354.195C223.145 354.195 225.644 356.792 225.644 361.202V376H230.25V363.211C230.25 358.066 233.19 354.342 238.139 354.195C242.304 354.195 244.852 356.792 244.852 361.202V376H249.458V359.977C249.458 353.754 245.881 349.932 239.903 349.932ZM277.924 376L277.875 358.948C277.826 353.313 274.2 349.932 267.683 349.932C263.028 349.932 260.284 351.157 256.854 353.362L258.765 356.498C261.411 354.685 264.057 353.705 266.752 353.705C271.113 353.705 273.367 355.812 273.367 359.438V360.663H265.135C258.961 360.712 255.384 363.652 255.384 368.258C255.384 372.766 258.863 376.196 264.351 376.196C268.271 376.196 271.456 374.971 273.416 372.374V376H277.924ZM265.282 372.423C261.852 372.423 259.696 370.708 259.696 368.062C259.696 365.367 261.705 364.191 265.772 364.191H273.367V366.788C272.779 370.169 269.545 372.423 265.282 372.423ZM286.306 339.642V376H290.863V339.642H286.306ZM300.278 339.642V376H304.835V339.642H300.278Z" fill="#fff"/>
<path d="M209.155 172.288C207.217 170.428 203.652 170.428 202.49 172.908C202.412 172.986 202.412 173.141 202.335 173.219C197.995 189.107 186.989 191.509 172.109 191.354C158.468 191.354 149.168 188.719 145.138 174.924C143.588 169.421 140.1 169.421 136.302 173.063C129.87 179.496 123.437 185.774 116.539 192.594C115.842 193.292 114.059 195.229 112.432 197.399C129.715 209.102 150.563 215.923 172.961 215.923C195.592 215.923 216.518 208.947 233.878 197.089C232.406 195.152 230.701 193.292 230.003 192.594C223.028 185.774 216.208 179.109 209.155 172.288Z" fill="#fff"/>
<path d="M116.617 70.2163C129.172 77.424 140.953 84.1668 152.5 91.3745C155.136 92.9246 157.461 96.8772 157.693 99.9773C158.236 106.255 158.081 112.533 158.003 118.81C157.926 121.988 160.561 124.546 163.661 124.546C170.326 124.546 176.759 124.546 183.269 124.546C186.447 124.546 189.004 121.988 189.082 118.81C189.159 112.998 189.314 107.418 188.849 101.76C188.462 96.1022 190.554 92.9246 195.437 90.212C206.907 83.8567 218.223 77.1915 230.856 69.9063C234.188 67.9687 234.731 63.3185 231.941 60.7609C225.508 54.7932 219.618 49.2905 213.883 43.4003C211.092 40.6102 208.845 40.3002 205.435 42.3928C196.6 47.8955 187.299 52.9332 178.309 58.4359C174.821 60.6834 171.721 60.8384 168.079 58.4359C160.793 53.7857 153.276 49.6005 145.68 45.3379C134.442 39.1377 138.24 38.1301 128.63 47.7405C124.212 52.1581 119.949 56.4983 115.377 61.1484C112.819 63.861 113.362 68.3562 116.617 70.2163Z" fill="#fff"/>
<path d="M138.938 29.3735C140.565 31.9311 142.425 34.1787 144.595 36.2713C147.695 39.2939 151.415 41.8515 155.523 44.0215C160.251 46.5016 164.668 49.7567 169.551 51.9268C171.954 52.9343 175.441 52.9343 177.689 51.7718C186.834 46.9666 195.669 41.774 204.427 36.2713C206.83 34.7212 208.922 31.6211 209.775 28.831C211.713 22.0883 213.495 15.3455 215.355 8.6028C202.335 3.10011 188.074 0 173.039 0C158.468 0 144.518 2.8676 131.885 8.13778L138.395 28.211C138.473 28.5985 138.705 28.986 138.938 29.3735Z" fill="#fff"/>
<path d="M238.528 108.582C234.343 112.379 230.39 116.099 226.36 119.742C217.68 127.88 217.37 128.035 225.12 137.49C228.918 142.14 229.073 145.783 225.508 150.433C222.098 154.928 219.308 159.888 216.672 164.771C215.975 166.166 215.665 169.111 216.672 170.119C224.035 177.869 231.553 185.464 239.226 193.292C257.671 178.954 271.389 158.803 277.512 135.553C267.282 126.562 256.741 117.649 246.046 108.504C243.798 106.722 240.621 106.722 238.528 108.582Z" fill="#fff"/>
<path d="M129.56 164.926C126.924 159.966 124.057 155.006 120.724 150.511C117.237 145.861 117.314 142.141 121.112 137.49C128.862 128.035 128.552 127.88 119.872 119.665C115.842 115.945 111.889 112.225 107.704 108.427C105.611 106.489 102.356 106.489 100.186 108.349C89.4132 117.572 78.8728 126.563 68.5649 135.63C74.7652 158.959 88.4831 179.187 107.084 193.447C114.757 185.62 122.197 178.024 129.56 170.197C130.567 169.344 130.257 166.321 129.56 164.926Z" fill="#fff"/>
<path d="M244.884 83.0825C244.496 95.3279 248.139 103.466 257.982 110.673C265.267 115.944 272.087 121.834 279.14 127.957C280.38 121.446 281 114.781 281 107.961C281 89.3602 276.272 71.8446 267.979 56.499C264.414 58.4366 260.927 60.2967 257.284 62.0017C247.441 66.4969 245.194 72.6971 244.884 83.0825Z" fill="#fff"/>
<path d="M101.039 83.4705C100.729 73.0076 98.4812 66.8849 88.6383 62.3123C84.9957 60.6072 81.4306 58.7471 77.8654 56.8096C69.6502 72.0001 65 89.4382 65 107.961C65 114.937 65.6975 121.679 66.9376 128.267C73.9128 122.144 80.733 116.254 87.9408 111.061C97.7836 103.931 101.426 95.7159 101.039 83.4705Z" fill="#fff"/>
<path d="M217.448 38.1317C224.733 45.882 232.251 53.1672 239.846 60.53C241.086 61.6925 243.954 62.6226 245.039 61.925C251.549 58.2824 258.059 54.5623 264.569 50.7647C253.952 33.8691 238.839 20.1511 220.935 11.2383C219.075 18.0585 217.293 24.8013 215.51 31.544C215.123 33.4816 216.053 36.5817 217.448 38.1317Z" fill="#fff"/>
<path d="M107.394 60.2964C114.989 52.9337 122.43 45.6484 129.715 37.8981C131.11 36.3481 132.117 33.248 131.652 31.3104C129.87 24.4127 128.01 17.5924 126.15 10.6172C108.014 19.375 92.591 33.093 81.8181 50.0661C88.6383 54.0187 95.3811 57.8938 102.201 61.6915C103.286 62.389 106.154 61.459 107.394 60.2964Z" fill="#fff"/>
<path d="M217.216 89.9801C214.27 99.9779 209.233 107.031 197.22 104.861C196.91 104.706 196.832 105.016 195.825 105.403C195.825 109.356 195.515 113.696 196.135 118.346C196.832 125.631 195.437 131.987 189.237 137.024C185.439 140.124 182.184 143.922 179.007 147.565C174.822 152.447 175.907 156.012 181.952 157.717C188.152 159.423 194.74 160.663 200.785 162.91C206.83 165.158 210.24 164.15 213.573 158.105C221.323 144.465 221.866 144.619 212.72 132.219C209.93 128.266 210.163 125.864 213.728 122.764C221.013 116.331 228.221 109.511 235.351 102.768C236.591 101.528 238.451 99.978 238.451 98.4279C238.761 90.4451 238.606 82.3848 238.606 72.542C230.546 79.4397 220.161 79.8272 217.216 89.9801Z" fill="#fff"/>
<path d="M166.838 147.719C163.583 144.077 160.406 140.279 156.608 137.179C150.408 132.141 149.013 125.786 149.71 118.423C150.253 113.773 150.02 109.433 150.02 105.48C149.013 105.093 148.858 104.783 148.625 104.938C136.69 107.03 131.575 99.9776 128.629 89.9797C125.684 79.8269 115.299 79.4394 107.239 72.6191C107.239 82.462 107.084 90.5223 107.394 98.5825C107.394 100.133 109.254 101.683 110.494 102.923C117.702 109.665 124.832 116.486 132.117 122.918C135.605 126.018 135.915 128.421 133.125 132.374C123.979 144.774 124.522 144.619 132.272 158.337C135.682 164.382 139.015 165.39 145.06 163.142C151.105 160.895 157.693 159.655 163.893 157.95C169.938 156.167 171.023 152.679 166.838 147.719Z" fill="#fff"/>
<path d="M150.253 169.188C154.748 182.674 156.453 184.534 165.444 184.224C178.077 183.836 193.887 189.571 196.522 168.878C181.177 161.438 165.754 160.973 150.253 169.188Z" fill="#fff"/>
<path d="M163.506 129.197C161.026 129.197 159.708 132.065 161.336 133.925C164.668 137.8 167.691 141.21 170.946 144.93C172.109 146.248 174.201 146.248 175.364 144.853C178.541 140.978 181.409 137.568 184.432 133.847C185.982 131.987 184.664 129.197 182.184 129.197C175.751 129.197 169.939 129.197 163.506 129.197Z" fill="#fff"/>
</svg>
