<svg width="16" height="20" viewBox="0 0 16 20" fill="none" xmlns="http://www.w3.org/2000/svg">
<path d="M8 -3.05176e-05C5.87827 -3.05176e-05 3.84344 0.842824 2.34315 2.34312C0.842855 3.84341 0 5.87824 0 7.99997C0 13.4 7.05 19.5 7.35 19.76C7.53113 19.9149 7.76165 20 8 20C8.23835 20 8.46887 19.9149 8.65 19.76C9 19.5 16 13.4 16 7.99997C16 5.87824 15.1571 3.84341 13.6569 2.34312C12.1566 0.842824 10.1217 -3.05176e-05 8 -3.05176e-05ZM8 17.65C5.87 15.65 2 11.34 2 7.99997C2 6.40867 2.63214 4.88255 3.75736 3.75733C4.88258 2.63211 6.4087 1.99997 8 1.99997C9.5913 1.99997 11.1174 2.63211 12.2426 3.75733C13.3679 4.88255 14 6.40867 14 7.99997C14 11.34 10.13 15.66 8 17.65ZM8 3.99997C7.20887 3.99997 6.43552 4.23457 5.77772 4.67409C5.11992 5.11362 4.60723 5.73833 4.30448 6.46924C4.00173 7.20014 3.92252 8.00441 4.07686 8.78033C4.2312 9.55625 4.61216 10.269 5.17157 10.8284C5.73098 11.3878 6.44371 11.7688 7.21964 11.9231C7.99556 12.0775 8.79983 11.9982 9.53073 11.6955C10.2616 11.3927 10.8864 10.88 11.3259 10.2222C11.7654 9.56445 12 8.79109 12 7.99997C12 6.9391 11.5786 5.92169 10.8284 5.17154C10.0783 4.4214 9.06087 3.99997 8 3.99997ZM8 9.99997C7.60444 9.99997 7.21776 9.88267 6.88886 9.66291C6.55996 9.44315 6.30362 9.13079 6.15224 8.76534C6.00087 8.39988 5.96126 7.99775 6.03843 7.60979C6.1156 7.22183 6.30608 6.86546 6.58579 6.58576C6.86549 6.30605 7.22186 6.11557 7.60982 6.0384C7.99778 5.96123 8.39991 6.00083 8.76537 6.15221C9.13082 6.30359 9.44318 6.55993 9.66294 6.88883C9.8827 7.21773 10 7.60441 10 7.99997C10 8.5304 9.78929 9.03911 9.41421 9.41418C9.03914 9.78926 8.53043 9.99997 8 9.99997Z" fill="white"/>
</svg>
