<svg width="595" height="216" viewBox="0 0 595 216" fill="none" xmlns="http://www.w3.org/2000/svg">
<path d="M288.379 155.932C283.479 155.981 279.951 157.941 278.285 162.449C277.158 158.333 273.924 155.932 269.122 155.932C264.614 155.981 261.233 157.696 259.469 161.518V156.079H254.912V182H259.469V169.211C259.469 164.066 262.458 160.342 267.407 160.195C271.621 160.195 274.12 162.792 274.12 167.202V182H278.726V169.211C278.726 164.066 281.666 160.342 286.615 160.195C290.78 160.195 293.328 162.792 293.328 167.202V182H297.934V165.977C297.934 159.754 294.357 155.932 288.379 155.932ZM326.4 182L326.351 164.948C326.302 159.313 322.676 155.932 316.159 155.932C311.504 155.932 308.76 157.157 305.33 159.362L307.241 162.498C309.887 160.685 312.533 159.705 315.228 159.705C319.589 159.705 321.843 161.812 321.843 165.438V166.663H313.611C307.437 166.712 303.86 169.652 303.86 174.258C303.86 178.766 307.339 182.196 312.827 182.196C316.747 182.196 319.932 180.971 321.892 178.374V182H326.4ZM313.758 178.423C310.328 178.423 308.172 176.708 308.172 174.062C308.172 171.367 310.181 170.191 314.248 170.191H321.843V172.788C321.255 176.169 318.021 178.423 313.758 178.423ZM352.863 156.079V160.832C351.001 157.696 347.816 155.883 343.602 155.932C336.693 155.981 331.989 161.028 331.989 168.28C331.989 175.679 336.742 180.824 343.749 180.824C347.865 180.824 351.05 179.011 352.863 175.875V179.501C352.863 184.548 349.384 187.782 344.043 187.782C340.711 187.782 338.065 186.704 335.566 184.695L333.557 188.027C336.693 190.33 340.172 191.653 344.239 191.653C352.226 191.653 357.469 186.9 357.469 179.354V156.079H352.863ZM344.631 177.149C339.731 177.149 336.35 173.523 336.301 168.427C336.35 163.331 339.731 159.656 344.631 159.656C349.482 159.656 352.863 163.282 352.863 168.427C352.863 173.523 349.482 177.149 344.631 177.149ZM368.038 145.74C366.421 145.74 365.196 146.965 365.196 148.68C365.196 150.346 366.421 151.62 368.038 151.62C369.655 151.62 370.88 150.346 370.88 148.68C370.88 146.965 369.655 145.74 368.038 145.74ZM365.784 156.079V182H370.341V156.079H365.784ZM397.409 162.988L399.908 159.852C397.556 157.353 394.028 155.932 389.618 155.932C382.023 155.932 376.682 161.322 376.682 169.064C376.682 176.806 382.023 182.147 389.618 182.147C394.273 182.147 397.948 180.481 400.251 177.59L397.654 174.944C395.89 177.051 393.146 178.178 389.814 178.178C384.816 178.178 381.239 174.503 381.239 169.064C381.239 163.674 384.816 159.999 389.814 159.999C392.95 159.95 395.498 161.126 397.409 162.988ZM454.903 155.932C450.003 155.981 446.475 157.941 444.809 162.449C443.682 158.333 440.448 155.932 435.646 155.932C431.138 155.981 427.757 157.696 425.993 161.518V156.079H421.436V182H425.993V169.211C425.993 164.066 428.982 160.342 433.931 160.195C438.145 160.195 440.644 162.792 440.644 167.202V182H445.25V169.211C445.25 164.066 448.19 160.342 453.139 160.195C457.304 160.195 459.852 162.792 459.852 167.202V182H464.458V165.977C464.458 159.754 460.881 155.932 454.903 155.932ZM492.924 182L492.875 164.948C492.826 159.313 489.2 155.932 482.683 155.932C478.028 155.932 475.284 157.157 471.854 159.362L473.765 162.498C476.411 160.685 479.057 159.705 481.752 159.705C486.113 159.705 488.367 161.812 488.367 165.438V166.663H480.135C473.961 166.712 470.384 169.652 470.384 174.258C470.384 178.766 473.863 182.196 479.351 182.196C483.271 182.196 486.456 180.971 488.416 178.374V182H492.924ZM480.282 178.423C476.852 178.423 474.696 176.708 474.696 174.062C474.696 171.367 476.705 170.191 480.772 170.191H488.367V172.788C487.779 176.169 484.545 178.423 480.282 178.423ZM501.306 145.642V182H505.863V145.642H501.306ZM515.278 145.642V182H519.835V145.642H515.278Z" fill="#C7A28C"/>
<path d="M144.155 172.288C142.217 170.428 138.652 170.428 137.49 172.908C137.412 172.986 137.412 173.141 137.335 173.219C132.995 189.107 121.989 191.509 107.109 191.354C93.4682 191.354 84.1679 188.719 80.1378 174.924C78.5877 169.421 75.1001 169.421 71.3025 173.063C64.8697 179.496 58.437 185.774 51.5393 192.594C50.8418 193.292 49.0592 195.229 47.4316 197.399C64.7147 209.102 85.563 215.923 107.961 215.923C130.592 215.923 151.518 208.947 168.878 197.089C167.406 195.152 165.701 193.292 165.003 192.594C158.028 185.774 151.208 179.109 144.155 172.288Z" fill="#C7A28C"/>
<path d="M51.6167 70.2163C64.1722 77.424 75.9526 84.1668 87.5005 91.3745C90.1356 92.9246 92.4606 96.8772 92.6931 99.9773C93.2357 106.255 93.0807 112.533 93.0032 118.81C92.9257 121.988 95.5608 124.546 98.6609 124.546C105.326 124.546 111.759 124.546 118.269 124.546C121.447 124.546 124.004 121.988 124.082 118.81C124.159 112.998 124.314 107.418 123.849 101.76C123.462 96.1022 125.554 92.9246 130.437 90.212C141.907 83.8567 153.223 77.1915 165.856 69.9063C169.188 67.9687 169.731 63.3185 166.941 60.7609C160.508 54.7932 154.618 49.2905 148.883 43.4003C146.092 40.6102 143.845 40.3002 140.435 42.3928C131.6 47.8955 122.299 52.9332 113.309 58.4359C109.821 60.6834 106.721 60.8384 103.079 58.4359C95.7933 53.7857 88.2755 49.6005 80.6802 45.3379C69.4423 39.1377 73.24 38.1301 63.6296 47.7405C59.212 52.1581 54.9493 56.4983 50.3767 61.1484C47.8191 63.861 48.3616 68.3562 51.6167 70.2163Z" fill="#C7A28C"/>
<path d="M73.9375 29.3735C75.5651 31.9311 77.4251 34.1787 79.5952 36.2713C82.6953 39.2939 86.4155 41.8515 90.5231 44.0215C95.2508 46.5016 99.6684 49.7567 104.551 51.9268C106.954 52.9343 110.441 52.9343 112.689 51.7718C121.834 46.9666 130.669 41.774 139.427 36.2713C141.83 34.7212 143.922 31.6211 144.775 28.831C146.713 22.0883 148.495 15.3455 150.355 8.6028C137.335 3.10011 123.074 0 108.039 0C93.4682 0 79.5177 2.8676 66.8848 8.13778L73.395 28.211C73.4725 28.5985 73.705 28.986 73.9375 29.3735Z" fill="#C7A28C"/>
<path d="M173.528 108.582C169.343 112.379 165.39 116.099 161.36 119.742C152.68 127.88 152.37 128.035 160.12 137.49C163.918 142.14 164.073 145.783 160.508 150.433C157.098 154.928 154.308 159.888 151.672 164.771C150.975 166.166 150.665 169.111 151.672 170.119C159.035 177.869 166.553 185.464 174.226 193.292C192.671 178.954 206.389 158.803 212.512 135.553C202.282 126.562 191.741 117.649 181.046 108.504C178.798 106.722 175.621 106.722 173.528 108.582Z" fill="#C7A28C"/>
<path d="M64.5596 164.926C61.9245 159.966 59.0569 155.006 55.7243 150.511C52.2366 145.861 52.3141 142.141 56.1118 137.49C63.862 128.035 63.552 127.88 54.8717 119.665C50.8416 115.945 46.889 112.225 42.7038 108.427C40.6112 106.489 37.3561 106.489 35.186 108.349C24.4132 117.572 13.8728 126.563 3.56494 135.63C9.76516 158.959 23.4831 179.187 42.0838 193.447C49.7565 185.62 57.1968 178.024 64.5596 170.197C65.5671 169.344 65.2571 166.321 64.5596 164.926Z" fill="#C7A28C"/>
<path d="M179.884 83.0825C179.496 95.3279 183.139 103.466 192.982 110.673C200.267 115.944 207.087 121.834 214.14 127.957C215.38 121.446 216 114.781 216 107.961C216 89.3602 211.272 71.8446 202.979 56.499C199.414 58.4366 195.927 60.2967 192.284 62.0017C182.441 66.4969 180.194 72.6971 179.884 83.0825Z" fill="#C7A28C"/>
<path d="M36.0388 83.4705C35.7287 73.0076 33.4812 66.8849 23.6383 62.3123C19.9957 60.6072 16.4306 58.7471 12.8654 56.8096C4.65016 72.0001 0 89.4382 0 107.961C0 114.937 0.697524 121.679 1.93757 128.267C8.91281 122.144 15.733 116.254 22.9408 111.061C32.7836 103.931 36.4263 95.7159 36.0388 83.4705Z" fill="#C7A28C"/>
<path d="M152.448 38.1317C159.733 45.882 167.251 53.1672 174.846 60.53C176.086 61.6925 178.954 62.6226 180.039 61.925C186.549 58.2824 193.059 54.5623 199.569 50.7647C188.952 33.8691 173.839 20.1511 155.935 11.2383C154.075 18.0585 152.293 24.8013 150.51 31.544C150.123 33.4816 151.053 36.5817 152.448 38.1317Z" fill="#C7A28C"/>
<path d="M42.394 60.2964C49.9892 52.9337 57.4295 45.6484 64.7148 37.8981C66.1098 36.3481 67.1173 33.248 66.6523 31.3104C64.8698 24.4127 63.0097 17.5924 61.1496 10.6172C43.014 19.375 27.591 33.093 16.8181 50.0661C23.6383 54.0187 30.3811 57.8938 37.2013 61.6915C38.2863 62.389 41.1539 61.459 42.394 60.2964Z" fill="#C7A28C"/>
<path d="M152.216 89.9801C149.27 99.9779 144.233 107.031 132.22 104.861C131.91 104.706 131.832 105.016 130.825 105.403C130.825 109.356 130.515 113.696 131.135 118.346C131.832 125.631 130.437 131.987 124.237 137.024C120.439 140.124 117.184 143.922 114.007 147.565C109.822 152.447 110.907 156.012 116.952 157.717C123.152 159.423 129.74 160.663 135.785 162.91C141.83 165.158 145.24 164.15 148.573 158.105C156.323 144.465 156.866 144.619 147.72 132.219C144.93 128.266 145.163 125.864 148.728 122.764C156.013 116.331 163.221 109.511 170.351 102.768C171.591 101.528 173.451 99.978 173.451 98.4279C173.761 90.4451 173.606 82.3848 173.606 72.542C165.546 79.4397 155.161 79.8272 152.216 89.9801Z" fill="#C7A28C"/>
<path d="M101.838 147.719C98.5832 144.077 95.4056 140.279 91.6079 137.179C85.4077 132.141 84.0127 125.786 84.7102 118.423C85.2527 113.773 85.0202 109.433 85.0202 105.48C84.0127 105.093 83.8576 104.783 83.6251 104.938C71.6897 107.03 66.5745 99.9776 63.6294 89.9797C60.6843 79.8269 50.299 79.4394 42.2387 72.6191C42.2387 82.462 42.0837 90.5223 42.3937 98.5825C42.3937 100.133 44.2538 101.683 45.4938 102.923C52.7016 109.665 59.8318 116.486 67.1171 122.918C70.6047 126.018 70.9147 128.421 68.1246 132.374C58.9793 144.774 59.5218 144.619 67.2721 158.337C70.6822 164.382 74.0148 165.39 80.06 163.142C86.1052 160.895 92.693 159.655 98.8932 157.95C104.938 156.167 106.023 152.679 101.838 147.719Z" fill="#C7A28C"/>
<path d="M85.2532 169.188C89.7483 182.674 91.4534 184.534 100.444 184.224C113.077 183.836 128.887 189.571 131.522 168.878C116.177 161.438 100.754 160.973 85.2532 169.188Z" fill="#C7A28C"/>
<path d="M98.5059 129.197C96.0258 129.197 94.7083 132.065 96.3358 133.925C99.6684 137.8 102.691 141.21 105.946 144.93C107.109 146.248 109.201 146.248 110.364 144.853C113.541 140.978 116.409 137.568 119.432 133.847C120.982 131.987 119.664 129.197 117.184 129.197C110.751 129.197 104.939 129.197 98.5059 129.197Z" fill="#C7A28C"/>
<path d="M328.968 116.783C326.54 115.622 325.801 114.672 325.695 112.243C325.378 105.487 325.484 98.4135 325.484 82.1554C325.484 65.7918 325.378 58.7185 325.695 52.0674C325.801 49.6393 326.54 48.478 328.968 47.5279L328.862 47C326.434 47.3167 323.689 47.5279 321.155 47.5279C319.466 47.5279 314.716 47.3167 313.871 47.3167C311.021 54.0733 307.009 64.6305 299.513 81.8387C297.402 86.8006 294.34 94.5073 291.067 101.686L281.883 82.1554C274.282 65.5806 269.003 54.1789 266.047 47.3167C264.991 47.3167 259.607 47.5279 257.918 47.5279C255.806 47.5279 251.689 47.3167 250.528 47L250.422 47.5279C252.85 48.6891 253.589 49.8504 253.695 52.0674C254.012 58.7185 253.906 65.7918 253.906 82.1554C253.906 98.4135 253.589 105.487 253.273 112.243C253.167 114.777 252.217 115.622 250 116.783L250.106 117.205C251.689 116.889 254.328 116.783 255.912 116.783C257.601 116.783 260.135 116.889 261.718 117.205L261.824 116.783C259.818 115.833 258.657 114.777 258.551 112.243C258.235 105.487 257.918 98.4135 257.918 82.1554C257.918 68.3255 257.496 61.0411 257.179 54.8123L257.918 56.0792C260.768 61.9912 263.302 67.6921 270.059 82.1554C277.765 98.6246 282.727 108.971 285.578 115.727H289.062C291.912 108.971 295.396 99.1525 302.997 81.8387C308.909 68.2199 311.971 61.0411 315.032 54.9179C315.032 60.9355 314.61 68.1144 314.61 82.1554C314.61 98.7302 314.716 105.381 314.399 112.243C314.293 114.883 313.132 115.833 311.126 116.783L311.232 117.205C312.71 116.889 318.411 116.783 320.1 116.783C321.683 116.783 327.384 116.889 328.862 117.205L328.968 116.783Z" fill="#C7A28C"/>
<path d="M418.51 47C416.926 47.3167 414.709 47.5279 413.126 47.5279C411.437 47.5279 409.325 47.3167 407.742 47L407.636 47.5279C410.064 48.6891 410.803 49.8504 410.909 52.0674C411.226 58.9296 411.437 67.2698 411.437 89.5455C411.437 105.909 404.469 113.194 388.95 113.194C374.909 113.194 367.624 106.015 367.624 90.7067C367.624 74.3431 367.519 58.824 367.836 52.0674C367.941 49.6393 368.68 48.478 371.108 47.5279L371.003 47C369.63 47.3167 363.824 47.5279 362.135 47.5279C360.34 47.5279 354.85 47.3167 353.372 47L353.267 47.5279C355.484 48.6891 356.434 49.6393 356.539 52.0674C356.856 58.824 356.75 74.3431 356.75 90.7067C356.75 111.293 371.319 119 387.472 119C404.68 119 414.815 108.126 414.921 89.5455C414.921 73.1818 415.026 58.7185 415.343 52.0674C415.448 49.6393 416.399 48.478 418.616 47.5279L418.51 47Z" fill="#C7A28C"/>
<path d="M494.443 106.543C485.998 112.771 471.745 113.827 457.493 113.51C457.177 106.648 457.282 98.4135 457.282 82.1554C457.282 65.7918 457.177 58.7185 457.493 52.0674C457.599 49.8504 458.338 48.3724 460.766 47.4223L460.66 47C459.182 47.3167 453.482 47.5279 451.898 47.5279C450.209 47.5279 444.613 47.5279 443.03 47L442.924 47.4223C445.036 48.3724 446.091 49.6393 446.197 52.0674C446.514 58.7185 446.408 65.7918 446.408 82.1554C446.408 98.4135 446.514 105.487 446.197 112.243C446.091 114.672 445.352 115.622 442.924 116.783L443.03 117.205C446.725 116.889 451.792 116.783 455.487 116.783H490.537C490.537 115.727 494.443 108.021 494.971 106.965L494.443 106.543Z" fill="#C7A28C"/>
<path d="M557.218 57.6628C556.69 56.1848 553.945 48.3724 553.945 47.5279H498.309C498.309 48.3724 495.459 56.1848 494.931 57.7683L495.459 58.2962C502.638 52.912 512.245 51.0117 520.69 51.0117V82.1554C520.69 98.7302 520.796 105.381 520.479 112.243C520.374 114.672 519.635 115.833 517.207 116.783L517.312 117.205C518.79 116.889 524.491 116.783 526.18 116.783C527.764 116.783 533.465 116.889 534.943 117.205L535.048 116.783C532.831 115.833 531.881 114.672 531.775 112.243C531.459 105.381 531.564 98.7302 531.564 82.1554V51.0117C540.01 51.0117 549.512 52.8065 556.69 58.1906L557.218 57.6628Z" fill="#C7A28C"/>
<path d="M594.1 116.783C591.989 115.833 590.933 114.777 590.827 112.243C590.51 105.487 590.616 98.4135 590.616 82.1554C590.616 65.7918 590.51 58.7185 590.827 52.0674C590.933 49.5337 591.989 48.3724 594.1 47.4223L593.994 47C592.516 47.3167 586.815 47.5279 585.232 47.5279C583.543 47.5279 577.947 47.5279 576.364 47L576.258 47.4223C578.37 48.3724 579.425 49.8504 579.531 52.0674C579.848 58.7185 579.742 65.7918 579.742 82.1554C579.742 98.4135 579.848 105.487 579.531 112.243C579.425 114.672 578.475 115.622 576.258 116.783L576.364 117.205C578.053 116.889 583.437 116.783 585.232 116.783C586.815 116.783 592.622 116.889 593.994 117.205L594.1 116.783Z" fill="#C7A28C"/>
</svg>
