<svg width="20" height="20" viewBox="0 0 20 20" fill="none" xmlns="http://www.w3.org/2000/svg">
<path d="M17.4941 11.0252C17.2741 11.0252 17.0441 10.9552 16.8241 10.9052C16.3785 10.807 15.9407 10.6767 15.5141 10.5152C15.0501 10.3464 14.5402 10.3552 14.0824 10.5398C13.6245 10.7244 13.2511 11.0718 13.0341 11.5152L12.8141 11.9652C11.8401 11.4233 10.945 10.7504 10.1541 9.96517C9.36882 9.17418 8.69588 8.27916 8.15406 7.30517L8.57406 7.02517C9.01742 6.80808 9.36484 6.4347 9.54945 5.97686C9.73406 5.51902 9.74283 5.00908 9.57406 4.54517C9.41528 4.11759 9.28499 3.67997 9.18406 3.23517C9.13406 3.01517 9.09406 2.78517 9.06406 2.55517C8.94262 1.85079 8.57368 1.21291 8.02368 0.756406C7.47367 0.299904 6.77875 0.054776 6.06406 0.0651672H3.06406C2.63309 0.0611206 2.20631 0.149981 1.81277 0.325698C1.41923 0.501415 1.06817 0.759863 0.783486 1.08345C0.498807 1.40704 0.28719 1.78816 0.163044 2.20088C0.0388974 2.6136 0.00513521 3.04823 0.0640559 3.47517C0.596794 7.66455 2.51008 11.557 5.50171 14.5378C8.49333 17.5186 12.3928 19.4177 16.5841 19.9352H16.9641C17.7015 19.9362 18.4135 19.6657 18.9641 19.1752C19.2804 18.8922 19.5331 18.5453 19.7055 18.1575C19.8779 17.7696 19.966 17.3496 19.9641 16.9252V13.9252C19.9518 13.2306 19.6989 12.5617 19.2484 12.0328C18.7979 11.5039 18.1779 11.1478 17.4941 11.0252ZM17.9941 17.0252C17.9939 17.1672 17.9635 17.3075 17.9048 17.4368C17.8462 17.5661 17.7607 17.6815 17.6541 17.7752C17.5423 17.8716 17.4117 17.9437 17.2705 17.9868C17.1293 18.0298 16.9806 18.0429 16.8341 18.0252C13.089 17.545 9.61029 15.8317 6.94677 13.1555C4.28325 10.4793 2.58647 6.9925 2.12406 3.24517C2.10814 3.09869 2.12209 2.9505 2.16506 2.80956C2.20803 2.66862 2.27913 2.53785 2.37406 2.42517C2.46777 2.3185 2.58312 2.23301 2.71243 2.17438C2.84175 2.11576 2.98207 2.08535 3.12406 2.08517H6.12406C6.3566 2.07999 6.58368 2.15605 6.7662 2.30024C6.94872 2.44443 7.07527 2.64774 7.12406 2.87517C7.16406 3.1485 7.21406 3.4185 7.27406 3.68517C7.38958 4.21231 7.54331 4.73035 7.73406 5.23517L6.33406 5.88517C6.21435 5.94009 6.10668 6.01811 6.01721 6.11476C5.92775 6.21141 5.85826 6.32478 5.81273 6.44836C5.7672 6.57194 5.74653 6.7033 5.7519 6.83489C5.75728 6.96648 5.7886 7.09571 5.84406 7.21517C7.28326 10.2979 9.7613 12.776 12.8441 14.2152C13.0875 14.3152 13.3606 14.3152 13.6041 14.2152C13.7288 14.1706 13.8434 14.1016 13.9412 14.0124C14.0391 13.9231 14.1182 13.8153 14.1741 13.6952L14.7941 12.2952C15.311 12.48 15.8386 12.6337 16.3741 12.7552C16.6407 12.8152 16.9107 12.8652 17.1841 12.9052C17.4115 12.954 17.6148 13.0805 17.759 13.263C17.9032 13.4455 17.9792 13.6726 17.9741 13.9052L17.9941 17.0252Z" fill="white"/>
</svg>
