<svg width="40" height="40" viewBox="0 0 40 40" fill="none" xmlns="http://www.w3.org/2000/svg">
<path d="M0 20C0 8.95431 8.95431 0 20 0C31.0457 0 40 8.95431 40 20C40 31.0457 31.0457 40 20 40C8.95431 40 0 31.0457 0 20Z" fill="white"/>
<path fill-rule="evenodd" clip-rule="evenodd" d="M23.75 18.25C23.75 21.0114 21.5114 23.25 18.75 23.25C15.9886 23.25 13.75 21.0114 13.75 18.25C13.75 15.4886 15.9886 13.25 18.75 13.25C21.5114 13.25 23.75 15.4886 23.75 18.25ZM22.344 24.2582C21.2934 24.8879 20.064 25.25 18.75 25.25C14.884 25.25 11.75 22.116 11.75 18.25C11.75 14.384 14.884 11.25 18.75 11.25C22.616 11.25 25.75 14.384 25.75 18.25C25.75 20.0776 25.0496 21.7416 23.9026 22.9883L27.9571 27.0429C28.3476 27.4334 28.3476 28.0666 27.9571 28.4571C27.5666 28.8476 26.9334 28.8476 26.5429 28.4571L22.344 24.2582Z" fill="#224660"/>
</svg>
