<svg width="20" height="21" viewBox="0 0 20 21" fill="none" xmlns="http://www.w3.org/2000/svg">
<path d="M17.4943 11.5252C17.2743 11.5252 17.0443 11.4552 16.8243 11.4052C16.3788 11.307 15.941 11.1767 15.5143 11.0152C15.0504 10.8464 14.5404 10.8552 14.0826 11.0398C13.6248 11.2244 13.2514 11.5718 13.0343 12.0152L12.8143 12.4652C11.8403 11.9233 10.9453 11.2504 10.1543 10.4652C9.36907 9.67418 8.69612 8.77916 8.1543 7.80517L8.5743 7.52517C9.01767 7.30808 9.36508 6.9347 9.54969 6.47686C9.73431 6.01902 9.74307 5.50908 9.5743 5.04517C9.41552 4.61759 9.28524 4.17997 9.1843 3.73517C9.1343 3.51517 9.0943 3.28517 9.0643 3.05517C8.94287 2.35079 8.57393 1.71291 8.02392 1.25641C7.47392 0.799904 6.779 0.554776 6.0643 0.565167H3.0643C2.63333 0.561121 2.20655 0.649981 1.81301 0.825698C1.41947 1.00141 1.06841 1.25986 0.78373 1.58345C0.499051 1.90704 0.287435 2.28816 0.163288 2.70088C0.0391415 3.1136 0.00537935 3.54823 0.0643 3.97517C0.597038 8.16455 2.51033 12.057 5.50195 15.0378C8.49358 18.0186 12.393 19.9177 16.5843 20.4352H16.9643C17.7017 20.4362 18.4137 20.1657 18.9643 19.6752C19.2807 19.3922 19.5334 19.0453 19.7058 18.6575C19.8781 18.2696 19.9663 17.8496 19.9643 17.4252V14.4252C19.9521 13.7306 19.6991 13.0617 19.2486 12.5328C18.7982 12.0039 18.1781 11.6478 17.4943 11.5252ZM17.9943 17.5252C17.9941 17.6672 17.9637 17.8075 17.9051 17.9368C17.8465 18.0661 17.761 18.1815 17.6543 18.2752C17.5426 18.3716 17.4119 18.4437 17.2707 18.4868C17.1295 18.5298 16.9809 18.5429 16.8343 18.5252C13.0892 18.045 9.61054 16.3317 6.94702 13.6555C4.2835 10.9793 2.58671 7.4925 2.1243 3.74517C2.10838 3.59869 2.12233 3.4505 2.1653 3.30956C2.20827 3.16862 2.27937 3.03785 2.3743 2.92517C2.46801 2.8185 2.58336 2.73301 2.71268 2.67438C2.842 2.61576 2.98232 2.58535 3.1243 2.58517H6.1243C6.35685 2.57999 6.58392 2.65605 6.76644 2.80024C6.94896 2.94443 7.07551 3.14774 7.1243 3.37517C7.1643 3.6485 7.2143 3.9185 7.2743 4.18517C7.38982 4.71231 7.54356 5.23035 7.7343 5.73517L6.3343 6.38517C6.2146 6.44009 6.10692 6.51811 6.01746 6.61476C5.92799 6.71141 5.8585 6.82478 5.81297 6.94836C5.76744 7.07194 5.74677 7.2033 5.75215 7.33489C5.75752 7.46648 5.78884 7.59571 5.8443 7.71517C7.2835 10.7979 9.76155 13.276 12.8443 14.7152C13.0878 14.8152 13.3608 14.8152 13.6043 14.7152C13.729 14.6706 13.8436 14.6016 13.9415 14.5124C14.0393 14.4231 14.1185 14.3153 14.1743 14.1952L14.7943 12.7952C15.3113 12.98 15.8389 13.1337 16.3743 13.2552C16.641 13.3152 16.911 13.3652 17.1843 13.4052C17.4117 13.454 17.615 13.5805 17.7592 13.763C17.9034 13.9455 17.9795 14.1726 17.9743 14.4052L17.9943 17.5252Z" fill="#224660"/>
</svg>
