<svg width="59" height="58" viewBox="0 0 59 58" fill="none" xmlns="http://www.w3.org/2000/svg">
<g clip-path="url(#clip0_3008_8782)">
<path d="M16.2109 41.0834C17.2179 41.0834 18.0734 40.7305 18.7774 40.0249C19.4831 39.3208 19.8359 38.4653 19.8359 37.4584C19.8359 36.4514 19.4831 35.5959 18.7774 34.8919C18.0734 34.1862 17.2179 33.8334 16.2109 33.8334C15.204 33.8334 14.3485 34.1862 13.6444 34.8919C12.9388 35.5959 12.5859 36.4514 12.5859 37.4584C12.5859 38.4653 12.9388 39.3208 13.6444 40.0249C14.3485 40.7305 15.204 41.0834 16.2109 41.0834ZM33.1276 41.0834C34.1346 41.0834 34.99 40.7305 35.6941 40.0249C36.3998 39.3208 36.7526 38.4653 36.7526 37.4584C36.7526 36.4514 36.3998 35.5959 35.6941 34.8919C34.99 34.1862 34.1346 33.8334 33.1276 33.8334C32.1207 33.8334 31.2652 34.1862 30.5611 34.8919C29.8554 35.5959 29.5026 36.4514 29.5026 37.4584C29.5026 38.4653 29.8554 39.3208 30.5611 40.0249C31.2652 40.7305 32.1207 41.0834 33.1276 41.0834ZM10.1693 53.1667C9.48455 53.1667 8.91099 52.9347 8.4486 52.4707C7.9846 52.0083 7.7526 51.4348 7.7526 50.75V45.7959C7.0276 44.9903 6.44358 44.0937 6.00052 43.1061C5.55747 42.1201 5.33594 41.0431 5.33594 39.875V16.9167C5.33594 15.7084 5.56794 14.4896 6.03194 13.2603C6.49433 12.0326 7.5206 10.9355 9.11077 9.96879C10.7025 9.00212 13.0491 8.26665 16.1505 7.76237C19.2519 7.2597 23.4207 7.1292 28.6568 7.37087C28.3345 8.13615 28.0623 8.91109 27.8399 9.6957C27.6192 10.4819 27.4484 11.2778 27.3276 12.0834C22.8165 11.9625 19.2519 12.1236 16.6339 12.5667C14.0158 13.0098 12.2234 13.6542 11.2568 14.5H27.0859C27.0859 15.3056 27.1464 16.1111 27.2672 16.9167C27.388 17.7223 27.5693 18.5278 27.8109 19.3334H10.1693V26.5834H32.1609C33.6915 28.1139 35.4734 29.3021 37.5066 30.148C39.5414 30.9938 41.7068 31.4167 44.0026 31.4167V39.875C44.0026 41.0431 43.7811 42.1201 43.338 43.1061C42.895 44.0937 42.3109 44.9903 41.5859 45.7959V50.75C41.5859 51.4348 41.3539 52.0083 40.8899 52.4707C40.4276 52.9347 39.854 53.1667 39.1693 53.1667H36.7526C36.0679 53.1667 35.4943 52.9347 35.0319 52.4707C34.5679 52.0083 34.3359 51.4348 34.3359 50.75V48.3334H15.0026V50.75C15.0026 51.4348 14.7714 52.0083 14.309 52.4707C13.845 52.9347 13.2707 53.1667 12.5859 53.1667H10.1693ZM34.3359 31.4167H10.1693H39.1693H34.3359ZM15.0026 43.5H34.3359C35.6651 43.5 36.8034 43.0272 37.7507 42.0815C38.6964 41.1341 39.1693 39.9959 39.1693 38.6667V31.4167H10.1693V38.6667C10.1693 39.9959 10.6429 41.1341 11.5903 42.0815C12.536 43.0272 13.6734 43.5 15.0026 43.5Z" fill="#224660"/>
<circle cx="44.2222" cy="14.2769" r="14.2769" fill="#A6CCE5"/>
<path d="M35.2155 17.089L37.0745 15.217C38.1015 14.19 38.8425 13.163 38.8425 12.175C38.8425 10.745 37.5035 9.783 35.6705 9.783C34.3315 9.783 33.0575 10.303 31.8875 11.148L32.7975 12.903C33.6295 12.188 34.5655 11.746 35.3065 11.746C35.9695 11.746 36.3465 12.032 36.3465 12.526C36.3465 12.916 35.9695 13.501 35.4625 14.021L32.1475 17.427L32.1605 19H39.1025V17.089H35.2155ZM39.7066 9.887V13.085H41.7996L41.8126 11.798H44.3346L41.0196 19H43.5416L46.9736 11.538V9.887H39.7066ZM51.7819 9.809C49.1689 9.809 47.7259 11.46 47.7259 14.437C47.7259 17.427 49.1689 19.078 51.7819 19.078C54.3689 19.078 55.8119 17.427 55.8119 14.437C55.8119 11.46 54.3689 9.809 51.7819 9.809ZM51.7819 11.577C52.8869 11.577 53.3809 12.396 53.3809 14.437C53.3809 16.491 52.8869 17.31 51.7819 17.31C50.6509 17.31 50.1699 16.491 50.1699 14.437C50.1699 12.396 50.6509 11.577 51.7819 11.577Z" fill="#224660"/>
</g>
<defs>
<clipPath id="clip0_3008_8782">
<rect width="58" height="58" fill="white" transform="translate(0.5)"/>
</clipPath>
</defs>
</svg>
