<svg width="59" height="58" viewBox="0 0 59 58" fill="none" xmlns="http://www.w3.org/2000/svg">
<g clip-path="url(#clip0_3008_8852)">
<path d="M16.2109 41.0834C17.2179 41.0834 18.0734 40.7305 18.7774 40.0249C19.4831 39.3208 19.8359 38.4653 19.8359 37.4584C19.8359 36.4514 19.4831 35.5959 18.7774 34.8919C18.0734 34.1862 17.2179 33.8334 16.2109 33.8334C15.204 33.8334 14.3485 34.1862 13.6444 34.8919C12.9388 35.5959 12.5859 36.4514 12.5859 37.4584C12.5859 38.4653 12.9388 39.3208 13.6444 40.0249C14.3485 40.7305 15.204 41.0834 16.2109 41.0834ZM33.1276 41.0834C34.1346 41.0834 34.99 40.7305 35.6941 40.0249C36.3998 39.3208 36.7526 38.4653 36.7526 37.4584C36.7526 36.4514 36.3998 35.5959 35.6941 34.8919C34.99 34.1862 34.1346 33.8334 33.1276 33.8334C32.1207 33.8334 31.2652 34.1862 30.5611 34.8919C29.8554 35.5959 29.5026 36.4514 29.5026 37.4584C29.5026 38.4653 29.8554 39.3208 30.5611 40.0249C31.2652 40.7305 32.1207 41.0834 33.1276 41.0834ZM10.1693 53.1667C9.48455 53.1667 8.91099 52.9347 8.4486 52.4707C7.9846 52.0083 7.7526 51.4348 7.7526 50.75V45.7959C7.0276 44.9903 6.44358 44.0937 6.00052 43.1061C5.55747 42.1201 5.33594 41.0431 5.33594 39.875V16.9167C5.33594 15.7084 5.56794 14.4896 6.03194 13.2603C6.49433 12.0326 7.5206 10.9355 9.11077 9.96879C10.7025 9.00212 13.0491 8.26665 16.1505 7.76237C19.2519 7.2597 23.4207 7.1292 28.6568 7.37087C28.3345 8.13615 28.0623 8.91109 27.8399 9.6957C27.6192 10.4819 27.4484 11.2778 27.3276 12.0834C22.8165 11.9625 19.2519 12.1236 16.6339 12.5667C14.0158 13.0098 12.2234 13.6542 11.2568 14.5H27.0859C27.0859 15.3056 27.1464 16.1111 27.2672 16.9167C27.388 17.7223 27.5693 18.5278 27.8109 19.3334H10.1693V26.5834H32.1609C33.6915 28.1139 35.4734 29.3021 37.5066 30.148C39.5414 30.9938 41.7068 31.4167 44.0026 31.4167V39.875C44.0026 41.0431 43.7811 42.1201 43.338 43.1061C42.895 44.0937 42.3109 44.9903 41.5859 45.7959V50.75C41.5859 51.4348 41.3539 52.0083 40.8899 52.4707C40.4276 52.9347 39.854 53.1667 39.1693 53.1667H36.7526C36.0679 53.1667 35.4943 52.9347 35.0319 52.4707C34.5679 52.0083 34.3359 51.4348 34.3359 50.75V48.3334H15.0026V50.75C15.0026 51.4348 14.7714 52.0083 14.309 52.4707C13.845 52.9347 13.2707 53.1667 12.5859 53.1667H10.1693ZM34.3359 31.4167H10.1693H39.1693H34.3359ZM15.0026 43.5H34.3359C35.6651 43.5 36.8034 43.0272 37.7507 42.0815C38.6964 41.1341 39.1693 39.9959 39.1693 38.6667V31.4167H10.1693V38.6667C10.1693 39.9959 10.6429 41.1341 11.5903 42.0815C12.536 43.0272 13.6734 43.5 15.0026 43.5Z" fill="#224660"/>
<circle cx="44.2222" cy="14.2769" r="14.2769" fill="#A6CCE5"/>
<path d="M35.7233 17.089L37.5823 15.217C38.6093 14.19 39.3503 13.163 39.3503 12.175C39.3503 10.745 38.0113 9.783 36.1783 9.783C34.8393 9.783 33.5653 10.303 32.3953 11.148L33.3053 12.903C34.1373 12.188 35.0733 11.746 35.8143 11.746C36.4773 11.746 36.8543 12.032 36.8543 12.526C36.8543 12.916 36.4773 13.501 35.9703 14.021L32.6553 17.427L32.6683 19H39.6103V17.089H35.7233ZM40.2144 9.887V13.085H42.3074L42.3204 11.798H44.8424L41.5274 19H44.0494L47.4814 11.538V9.887H40.2144ZM51.8607 13.189H51.0417V11.798H54.9807V9.887H48.8577V15.087C49.4297 15.048 50.9377 15.035 51.3537 15.035C52.3547 15.035 52.8357 15.425 52.8357 16.127C52.8357 16.842 52.3157 17.271 51.4057 17.271C50.5477 17.271 49.6897 16.855 48.9487 16.257L48.0647 17.973C49.0527 18.649 50.4437 19.104 51.6657 19.104C53.9277 19.104 55.3837 17.856 55.3837 15.945C55.3837 14.32 54.0057 13.189 51.8607 13.189Z" fill="#224660"/>
</g>
<defs>
<clipPath id="clip0_3008_8852">
<rect width="58" height="58" fill="white" transform="translate(0.5)"/>
</clipPath>
</defs>
</svg>
