<svg width="58" height="58" viewBox="0 0 58 58" fill="none" xmlns="http://www.w3.org/2000/svg">
<path d="M15.7109 41.0834C16.7179 41.0834 17.5734 40.7305 18.2774 40.0249C18.9831 39.3208 19.3359 38.4653 19.3359 37.4584C19.3359 36.4514 18.9831 35.5959 18.2774 34.8919C17.5734 34.1862 16.7179 33.8334 15.7109 33.8334C14.704 33.8334 13.8485 34.1862 13.1444 34.8919C12.4388 35.5959 12.0859 36.4514 12.0859 37.4584C12.0859 38.4653 12.4388 39.3208 13.1444 40.0249C13.8485 40.7305 14.704 41.0834 15.7109 41.0834ZM32.6276 41.0834C33.6346 41.0834 34.49 40.7305 35.1941 40.0249C35.8998 39.3208 36.2526 38.4653 36.2526 37.4584C36.2526 36.4514 35.8998 35.5959 35.1941 34.8919C34.49 34.1862 33.6346 33.8334 32.6276 33.8334C31.6207 33.8334 30.7652 34.1862 30.0611 34.8919C29.3554 35.5959 29.0026 36.4514 29.0026 37.4584C29.0026 38.4653 29.3554 39.3208 30.0611 40.0249C30.7652 40.7305 31.6207 41.0834 32.6276 41.0834ZM9.66927 53.1667C8.98455 53.1667 8.41099 52.9347 7.9486 52.4707C7.4846 52.0083 7.2526 51.4348 7.2526 50.75V45.7959C6.5276 44.9903 5.94358 44.0937 5.50052 43.1061C5.05747 42.1201 4.83594 41.0431 4.83594 39.875V16.9167C4.83594 15.7084 5.06794 14.4896 5.53194 13.2603C5.99433 12.0326 7.0206 10.9355 8.61077 9.96879C10.2025 9.00212 12.5491 8.26665 15.6505 7.76237C18.7519 7.2597 22.9207 7.1292 28.1568 7.37087C27.8345 8.13615 27.5623 8.91109 27.3399 9.6957C27.1192 10.4819 26.9484 11.2778 26.8276 12.0834C22.3165 11.9625 18.7519 12.1236 16.1339 12.5667C13.5158 13.0098 11.7234 13.6542 10.7568 14.5H26.5859C26.5859 15.3056 26.6464 16.1111 26.7672 16.9167C26.888 17.7223 27.0693 18.5278 27.3109 19.3334H9.66927V26.5834H31.6609C33.1915 28.1139 34.9734 29.3021 37.0066 30.148C39.0414 30.9938 41.2068 31.4167 43.5026 31.4167V39.875C43.5026 41.0431 43.2811 42.1201 42.838 43.1061C42.395 44.0937 41.8109 44.9903 41.0859 45.7959V50.75C41.0859 51.4348 40.8539 52.0083 40.3899 52.4707C39.9276 52.9347 39.354 53.1667 38.6693 53.1667H36.2526C35.5679 53.1667 34.9943 52.9347 34.5319 52.4707C34.0679 52.0083 33.8359 51.4348 33.8359 50.75V48.3334H14.5026V50.75C14.5026 51.4348 14.2714 52.0083 13.809 52.4707C13.345 52.9347 12.7707 53.1667 12.0859 53.1667H9.66927ZM33.8359 31.4167H9.66927H38.6693H33.8359ZM14.5026 43.5H33.8359C35.1651 43.5 36.3034 43.0272 37.2507 42.0815C38.1964 41.1341 38.6693 39.9959 38.6693 38.6667V31.4167H9.66927V38.6667C9.66927 39.9959 10.1429 41.1341 11.0903 42.0815C12.036 43.0272 13.1734 43.5 14.5026 43.5Z" fill="#224660"/>
<circle cx="43.7222" cy="14.2769" r="14.2769" fill="#A6CCE5"/>
<path d="M42.462 15.23H41.292V13.293H39.108V15.23H37.405L39.836 9.887H37.574L34.987 15.425V17.037H39.108V19H41.292V17.037H42.462V15.23ZM46.8225 9.783C44.8855 9.783 43.6375 10.719 43.6375 12.188C43.6375 12.955 44.1055 13.696 44.8335 14.125C43.8325 14.554 43.1695 15.451 43.1695 16.478C43.1695 18.077 44.6125 19.104 46.8355 19.104C49.0715 19.104 50.5015 18.064 50.5015 16.439C50.5015 15.425 49.9035 14.554 48.9545 14.125C49.6175 13.735 50.0335 13.02 50.0335 12.253C50.0335 10.745 48.7855 9.783 46.8225 9.783ZM46.8355 11.382C47.6285 11.382 48.0575 11.733 48.0575 12.383C48.0575 13.007 47.6285 13.358 46.8355 13.358C46.0555 13.358 45.6135 13.007 45.6135 12.383C45.6135 11.733 46.0555 11.382 46.8355 11.382ZM46.8355 15.1C47.7585 15.1 48.2785 15.503 48.2785 16.231C48.2785 16.959 47.7585 17.362 46.8355 17.362C45.9125 17.362 45.4055 16.959 45.4055 16.231C45.4055 15.503 45.9125 15.1 46.8355 15.1Z" fill="#224660"/>
</svg>
