<svg width="58" height="58" viewBox="0 0 58 58" fill="none" xmlns="http://www.w3.org/2000/svg">
<path d="M15.7109 41.0834C16.7179 41.0834 17.5734 40.7305 18.2774 40.0249C18.9831 39.3208 19.3359 38.4653 19.3359 37.4584C19.3359 36.4514 18.9831 35.5959 18.2774 34.8919C17.5734 34.1862 16.7179 33.8334 15.7109 33.8334C14.704 33.8334 13.8485 34.1862 13.1444 34.8919C12.4388 35.5959 12.0859 36.4514 12.0859 37.4584C12.0859 38.4653 12.4388 39.3208 13.1444 40.0249C13.8485 40.7305 14.704 41.0834 15.7109 41.0834ZM32.6276 41.0834C33.6346 41.0834 34.49 40.7305 35.1941 40.0249C35.8998 39.3208 36.2526 38.4653 36.2526 37.4584C36.2526 36.4514 35.8998 35.5959 35.1941 34.8919C34.49 34.1862 33.6346 33.8334 32.6276 33.8334C31.6207 33.8334 30.7652 34.1862 30.0611 34.8919C29.3554 35.5959 29.0026 36.4514 29.0026 37.4584C29.0026 38.4653 29.3554 39.3208 30.0611 40.0249C30.7652 40.7305 31.6207 41.0834 32.6276 41.0834ZM9.66927 53.1667C8.98455 53.1667 8.41099 52.9347 7.9486 52.4707C7.4846 52.0083 7.2526 51.4348 7.2526 50.75V45.7959C6.5276 44.9903 5.94358 44.0937 5.50052 43.1061C5.05747 42.1201 4.83594 41.0431 4.83594 39.875V16.9167C4.83594 15.7084 5.06794 14.4896 5.53194 13.2603C5.99433 12.0326 7.0206 10.9355 8.61077 9.96879C10.2025 9.00212 12.5491 8.26665 15.6505 7.76237C18.7519 7.2597 22.9207 7.1292 28.1568 7.37087C27.8345 8.13615 27.5623 8.91109 27.3399 9.6957C27.1192 10.4819 26.9484 11.2778 26.8276 12.0834C22.3165 11.9625 18.7519 12.1236 16.1339 12.5667C13.5158 13.0098 11.7234 13.6542 10.7568 14.5H26.5859C26.5859 15.3056 26.6464 16.1111 26.7672 16.9167C26.888 17.7223 27.0693 18.5278 27.3109 19.3334H9.66927V26.5834H31.6609C33.1915 28.1139 34.9734 29.3021 37.0066 30.148C39.0414 30.9938 41.2068 31.4167 43.5026 31.4167V39.875C43.5026 41.0431 43.2811 42.1201 42.838 43.1061C42.395 44.0937 41.8109 44.9903 41.0859 45.7959V50.75C41.0859 51.4348 40.8539 52.0083 40.3899 52.4707C39.9276 52.9347 39.354 53.1667 38.6693 53.1667H36.2526C35.5679 53.1667 34.9943 52.9347 34.5319 52.4707C34.0679 52.0083 33.8359 51.4348 33.8359 50.75V48.3334H14.5026V50.75C14.5026 51.4348 14.2714 52.0083 13.809 52.4707C13.345 52.9347 12.7707 53.1667 12.0859 53.1667H9.66927ZM33.8359 31.4167H9.66927H38.6693H33.8359ZM14.5026 43.5H33.8359C35.1651 43.5 36.3034 43.0272 37.2507 42.0815C38.1964 41.1341 38.6693 39.9959 38.6693 38.6667V31.4167H9.66927V38.6667C9.66927 39.9959 10.1429 41.1341 11.0903 42.0815C12.036 43.0272 13.1734 43.5 14.5026 43.5Z" fill="#224660"/>
<circle cx="43.7222" cy="14.2769" r="14.2769" fill="#A6CCE5"/>
<path d="M35.549 17.089L37.408 15.217C38.435 14.19 39.176 13.163 39.176 12.175C39.176 10.745 37.837 9.783 36.004 9.783C34.665 9.783 33.391 10.303 32.221 11.148L33.131 12.903C33.963 12.188 34.899 11.746 35.64 11.746C36.303 11.746 36.68 12.032 36.68 12.526C36.68 12.916 36.303 13.501 35.796 14.021L32.481 17.427L32.494 19H39.436V17.089H35.549ZM44.0311 13.189H43.2121V11.798H47.1511V9.887H41.0281V15.087C41.6001 15.048 43.1081 15.035 43.5241 15.035C44.5251 15.035 45.0061 15.425 45.0061 16.127C45.0061 16.842 44.4861 17.271 43.5761 17.271C42.7181 17.271 41.8601 16.855 41.1191 16.257L40.2351 17.973C41.2231 18.649 42.6141 19.104 43.8361 19.104C46.0981 19.104 47.5541 17.856 47.5541 15.945C47.5541 14.32 46.1761 13.189 44.0311 13.189ZM51.9221 9.783C49.9851 9.783 48.7371 10.719 48.7371 12.188C48.7371 12.955 49.2051 13.696 49.9331 14.125C48.9321 14.554 48.2691 15.451 48.2691 16.478C48.2691 18.077 49.7121 19.104 51.9351 19.104C54.1711 19.104 55.6011 18.064 55.6011 16.439C55.6011 15.425 55.0031 14.554 54.0541 14.125C54.7171 13.735 55.1331 13.02 55.1331 12.253C55.1331 10.745 53.8851 9.783 51.9221 9.783ZM51.9351 11.382C52.7281 11.382 53.1571 11.733 53.1571 12.383C53.1571 13.007 52.7281 13.358 51.9351 13.358C51.1551 13.358 50.7131 13.007 50.7131 12.383C50.7131 11.733 51.1551 11.382 51.9351 11.382ZM51.9351 15.1C52.8581 15.1 53.3781 15.503 53.3781 16.231C53.3781 16.959 52.8581 17.362 51.9351 17.362C51.0121 17.362 50.5051 16.959 50.5051 16.231C50.5051 15.503 51.0121 15.1 51.9351 15.1Z" fill="#224660"/>
</svg>
