<svg width="32" height="45" viewBox="0 0 32 45" fill="none" xmlns="http://www.w3.org/2000/svg">
<path d="M15.918 10.3166C17.3861 10.3166 18.7942 10.8961 19.8323 11.9275C20.8705 12.959 21.4537 14.3579 21.4537 15.8166C21.4537 17.2753 20.8705 18.6743 19.8323 19.7057C18.7942 20.7372 17.3861 21.3166 15.918 21.3166C14.4498 21.3166 13.0418 20.7372 12.0036 19.7057C10.9655 18.6743 10.3823 17.2753 10.3823 15.8166C10.3823 14.3579 10.9655 12.959 12.0036 11.9275C13.0418 10.8961 14.4498 10.3166 15.918 10.3166ZM15.918 0.416626C24.4873 0.416626 31.418 7.30263 31.418 15.8166C31.418 27.3666 15.918 44.4166 15.918 44.4166C15.918 44.4166 0.417969 27.3666 0.417969 15.8166C0.417969 7.30263 7.34868 0.416626 15.918 0.416626ZM15.918 4.81663C9.80654 4.81663 4.84654 9.74463 4.84654 15.8166C4.84654 18.0166 4.84654 22.4166 15.918 37.1786C26.9894 22.4166 26.9894 18.0166 26.9894 15.8166C26.9894 9.74463 22.0294 4.81663 15.918 4.81663Z" fill="#224660"/>
</svg>
