<svg width="40" height="53" viewBox="0 0 40 53" fill="none" xmlns="http://www.w3.org/2000/svg">
<mask id="path-1-outside-1_1172_6083" maskUnits="userSpaceOnUse" x="0" y="0" width="40" height="48" fill="black">
<rect fill="white" width="40" height="48"/>
<path fill-rule="evenodd" clip-rule="evenodd" d="M8.6 32.8499C12.1837 35.3529 17.3587 39.334 18.5347 45.8013C18.6574 46.4762 19.265 47 20 47V32.8499H8.6Z"/>
<path fill-rule="evenodd" clip-rule="evenodd" d="M31.4 32.8499C27.8163 35.3529 22.6413 39.334 21.4653 45.8013C21.3426 46.4762 20.735 47 20 47V32.8499H31.4Z"/>
<path d="M1 4.7748C1 2.69004 2.81474 1 5.05333 1H34.9467C37.1853 1 39 2.69004 39 4.7748V32.614C39 34.6987 37.1853 36.3888 34.9467 36.3888H5.05333C2.81474 36.3888 1 34.6987 1 32.614V4.7748Z"/>
</mask>
<path fill-rule="evenodd" clip-rule="evenodd" d="M8.6 32.8499C12.1837 35.3529 17.3587 39.334 18.5347 45.8013C18.6574 46.4762 19.265 47 20 47V32.8499H8.6Z" fill="#224660"/>
<path fill-rule="evenodd" clip-rule="evenodd" d="M31.4 32.8499C27.8163 35.3529 22.6413 39.334 21.4653 45.8013C21.3426 46.4762 20.735 47 20 47V32.8499H31.4Z" fill="#224660"/>
<path d="M1 4.7748C1 2.69004 2.81474 1 5.05333 1H34.9467C37.1853 1 39 2.69004 39 4.7748V32.614C39 34.6987 37.1853 36.3888 34.9467 36.3888H5.05333C2.81474 36.3888 1 34.6987 1 32.614V4.7748Z" fill="#224660"/>
<path d="M20.5 47V32.8499H19.5V47H20.5ZM8.6 32.8499V31.8499H5.42191L8.02738 33.6697L8.6 32.8499ZM18.5347 45.8013L19.5185 45.6224L18.5347 45.8013ZM31.4 32.8499L31.9726 33.6697L34.5781 31.8499H31.4V32.8499ZM21.4653 45.8013L20.4815 45.6224L21.4653 45.8013ZM8.02738 33.6697C11.6167 36.1767 16.4548 39.9528 17.5508 45.9802L19.5185 45.6224C18.2625 38.7153 12.7506 34.5292 9.17262 32.0301L8.02738 33.6697ZM20 31.8499H8.6V33.8499H20V31.8499ZM17.5508 45.9802C17.7606 47.1343 18.7854 48 20 48V46C19.7445 46 19.5541 45.8182 19.5185 45.6224L17.5508 45.9802ZM30.8274 32.0301C27.2494 34.5292 21.7375 38.7153 20.4815 45.6224L22.4492 45.9802C23.5452 39.9528 28.3833 36.1767 31.9726 33.6697L30.8274 32.0301ZM20 33.8499H31.4V31.8499H20V33.8499ZM20.4815 45.6224C20.4459 45.8182 20.2555 46 20 46V48C21.2146 48 22.2393 47.1343 22.4492 45.9802L20.4815 45.6224ZM5.05333 2H34.9467V0H5.05333V2ZM38 4.7748V32.614H40V4.7748H38ZM34.9467 35.3888H5.05333V37.3888H34.9467V35.3888ZM2 32.614V4.7748H0V32.614H2ZM5.05333 35.3888C3.29878 35.3888 2 34.0806 2 32.614H0C0 35.3169 2.3307 37.3888 5.05333 37.3888V35.3888ZM38 32.614C38 34.0806 36.7012 35.3888 34.9467 35.3888V37.3888C37.6693 37.3888 40 35.3169 40 32.614H38ZM34.9467 2C36.7012 2 38 3.30818 38 4.7748H40C40 2.07189 37.6693 0 34.9467 0V2ZM5.05333 0C2.3307 0 0 2.07189 0 4.7748H2C2 3.30818 3.29878 2 5.05333 2V0Z" fill="url(#paint0_linear_1172_6083)" mask="url(#path-1-outside-1_1172_6083)"/>
<path d="M23.9529 25.8721C23.7406 25.6538 23.3491 25.6538 23.2214 25.9449C23.2131 25.9537 23.2131 25.9715 23.2048 25.9821C22.7287 27.8494 21.5194 28.1316 19.8855 28.1121C18.3877 28.1121 17.3675 27.8033 16.9246 26.1827C16.7538 25.5366 16.3722 25.5366 15.9542 25.9644C15.2476 26.7205 14.5409 27.4571 13.7845 28.2594C13.7082 28.3411 13.5125 28.5683 13.3333 28.8239C15.231 30.1995 17.5201 31 19.9784 31C22.4633 31 24.7607 30.18 26.6667 28.7866C26.5058 28.5594 26.3183 28.3411 26.242 28.2577C25.4773 27.4554 24.7275 26.6726 23.9529 25.8721Z" fill="#C7A28C"/>
<path d="M13.6493 14.5807C15.0447 15.3438 16.3544 16.0573 17.6372 16.8203C17.9294 16.9851 18.188 17.4026 18.2148 17.7306C18.2753 18.3961 18.2585 19.06 18.2501 19.7254C18.2417 20.0614 18.5339 20.3333 18.8781 20.3333C19.6186 20.3333 20.3339 20.3333 21.0576 20.3333C21.4102 20.3333 21.6956 20.063 21.704 19.7254C21.7124 19.1095 21.7292 18.5192 21.6788 17.9193C21.6352 17.3211 21.8686 16.9835 22.4109 16.6972C23.6854 16.0237 24.943 15.3182 26.3468 14.5471C26.7179 14.3424 26.7766 13.8497 26.4677 13.5793C25.7524 12.9474 25.0975 12.3651 24.4611 11.7412C24.1505 11.4453 23.902 11.4133 23.5225 11.634C22.5402 12.2163 21.5076 12.7506 20.5085 13.3329C20.1206 13.5713 19.7764 13.5873 19.3717 13.3329C18.5624 12.8402 17.7262 12.3971 16.8816 11.946C15.6324 11.2901 16.0555 11.1829 14.9859 12.2003C14.4956 12.6675 14.0204 13.1282 13.5133 13.6193C13.2279 13.9072 13.2883 14.3824 13.6493 14.5807Z" fill="#C7A28C"/>
<path d="M15.9377 10.4698C16.1289 10.7715 16.3466 11.0374 16.5997 11.2855C16.9626 11.6425 17.398 11.9441 17.8795 12.2012C18.4335 12.4939 18.9504 12.8794 19.5221 13.1346C19.8035 13.2542 20.2124 13.2542 20.4761 13.1168C21.547 12.5492 22.5825 11.9352 23.6091 11.2855C23.8906 11.1017 24.1366 10.7358 24.2357 10.4073C24.4623 9.61129 24.6712 8.81344 24.8889 8.01738C23.3649 7.3659 21.6939 7 19.9327 7C18.2264 7 16.5909 7.33913 15.1111 7.96205L15.874 10.3342C15.8829 10.3788 15.9094 10.4252 15.9377 10.4698Z" fill="#C7A28C"/>
<path d="M27.165 19.5891C26.7415 19.9804 26.3409 20.3656 25.9343 20.7414C25.0551 21.5818 25.0246 21.5974 25.8089 22.5735C26.1926 23.0537 26.2095 23.4295 25.8486 23.9097C25.5031 24.3744 25.2218 24.8858 24.9542 25.3895C24.8839 25.5329 24.8518 25.837 24.9542 25.9414C25.6988 26.7413 26.4602 27.5256 27.2369 28.3333C29.1037 26.8536 30.4919 24.7736 31.1111 22.3739C30.076 21.4461 29.0089 20.5262 27.9264 19.5828C27.6971 19.3973 27.376 19.3973 27.165 19.5891Z" fill="#C7A28C"/>
<path d="M15.0457 25.4018C14.7803 24.8925 14.4906 24.3816 14.1535 23.9204C13.8012 23.4422 13.8088 23.0602 14.1932 22.582C14.9755 21.61 14.9435 21.5944 14.0681 20.7497C13.6609 20.3678 13.2629 19.9858 12.8404 19.5945C12.6284 19.3957 12.3005 19.3957 12.0809 19.5867C10.9935 20.5339 9.929 21.4593 8.88889 22.391C9.51418 24.7884 10.899 26.8675 12.7779 28.3333C13.5526 27.529 14.303 26.748 15.0472 25.9437C15.1479 25.8567 15.1158 25.5462 15.0457 25.4018Z" fill="#C7A28C"/>
<path d="M28.4472 16.199C28.4086 17.5706 28.7668 18.4806 29.736 19.2873C30.4525 19.8776 31.1244 20.5372 31.8172 21.2222C31.9391 20.4933 32 19.7474 32 18.9829C32 16.9009 31.5347 14.9389 30.7186 13.2222C30.3678 13.4387 30.0244 13.6467 29.6662 13.8379C28.6999 14.3419 28.4785 15.037 28.4472 16.199Z" fill="#C7A28C"/>
<path d="M11.5528 16.2064C11.5215 15.034 11.301 14.3489 10.3298 13.838C9.97077 13.6468 9.61922 13.4388 9.26767 13.2222C8.4588 14.9224 8 16.8746 8 18.9486C8 19.7302 8.06852 20.4846 8.19067 21.2222C8.87888 20.5371 9.5507 19.8773 10.2612 19.2954C11.2325 18.4969 11.5915 17.5766 11.5528 16.2064Z" fill="#C7A28C"/>
<path d="M25.1075 11.5937C25.8977 12.4053 26.7141 13.1678 27.5386 13.9398C27.6731 14.0616 27.9845 14.1597 28.1026 14.0853C28.8091 13.7041 29.5157 13.3149 30.2222 12.9162C29.0698 11.1476 27.4304 9.71115 25.4878 8.77778C25.2862 9.49125 25.0928 10.1984 24.8993 10.904C24.8551 11.1065 24.9567 11.4308 25.1075 11.5937Z" fill="#C7A28C"/>
<path d="M12.5092 13.9424C13.3208 13.1777 14.1146 12.4192 14.8922 11.6137C15.0407 11.4519 15.1487 11.13 15.0987 10.929C14.9084 10.2114 14.7099 9.50324 14.5115 8.77778C12.5754 9.68853 10.9281 11.1143 9.77778 12.8777C10.5054 13.2892 11.2266 13.6911 11.9542 14.0853C12.0704 14.1591 12.3769 14.0633 12.5092 13.9424Z" fill="#C7A28C"/>
<path d="M25.1031 16.8622C24.766 17.9315 24.1904 18.6857 22.8146 18.4532C22.7783 18.437 22.7696 18.4693 22.6556 18.5113C22.6556 18.9345 22.6193 19.398 22.6918 19.8955C22.7714 20.674 22.6123 21.3539 21.9019 21.8918C21.4681 22.2229 21.0947 22.6299 20.7318 23.0191C20.253 23.5408 20.3774 23.922 21.0688 24.1045C21.7775 24.287 22.5311 24.4195 23.2242 24.6601C23.9156 24.9008 24.3062 24.7925 24.6865 24.1465C25.5732 22.688 25.6354 22.7042 24.5897 21.3798C24.2699 20.9566 24.2976 20.6998 24.7055 20.3687C25.5386 19.6807 26.3631 18.9522 27.179 18.2303C27.3207 18.0978 27.5333 17.9315 27.5333 17.7667C27.5696 16.9139 27.5506 16.0515 27.5506 15C26.6276 15.7349 25.4401 15.7769 25.1031 16.8622Z" fill="#C7A28C"/>
<path d="M19.2682 23.0169C18.8966 22.6282 18.5318 22.2234 18.0979 21.8912C17.3892 21.3542 17.2284 20.6752 17.3079 19.8898C17.3702 19.3931 17.3442 18.9302 17.3442 18.5077C17.2284 18.4658 17.2111 18.4335 17.1852 18.4496C15.8196 18.6722 15.2336 17.9207 14.8965 16.853C14.5594 15.7693 13.3719 15.7273 12.4488 15C12.4488 16.0499 12.4315 16.9111 12.4661 17.7707C12.4661 17.9368 12.6787 18.1013 12.8204 18.2335C13.645 18.9528 14.4609 19.6818 15.2941 20.3672C15.6934 20.6978 15.728 20.9542 15.4099 21.3768C14.3641 22.7008 14.4263 22.6831 15.3131 24.1474C15.7038 24.7925 16.0841 24.9006 16.7755 24.6603C17.467 24.42 18.2207 24.2877 18.9311 24.1055C19.6226 23.92 19.747 23.5475 19.2682 23.0169Z" fill="#C7A28C"/>
<path d="M17.7778 25.5247C18.2103 27.198 18.3729 27.4284 19.2365 27.3891C20.45 27.3404 21.9697 28.0524 22.2222 25.4854C20.749 24.5635 19.267 24.5073 17.7778 25.5247Z" fill="#C7A28C"/>
<path d="M18.9813 21.2222C18.7113 21.2222 18.568 21.6805 18.7442 21.9771C19.1081 22.5946 19.4375 23.1397 19.7916 23.733C19.9184 23.9428 20.1456 23.9428 20.2724 23.7209C20.6182 23.1035 20.9311 22.5584 21.2605 21.9651C21.4301 21.6684 21.2852 21.2222 21.0151 21.2222C20.3152 21.2222 19.6829 21.2222 18.9813 21.2222Z" fill="#C7A28C"/>
<defs>
<linearGradient id="paint0_linear_1172_6083" x1="19.7695" y1="2.77271" x2="19.7695" y2="46.7727" gradientUnits="userSpaceOnUse">
<stop stop-color="white"/>
<stop offset="1" stop-color="white" stop-opacity="0.35"/>
</linearGradient>
</defs>
</svg>
