<svg width="103" height="103" viewBox="0 0 103 103" fill="none" xmlns="http://www.w3.org/2000/svg">
<path fill-rule="evenodd" clip-rule="evenodd" d="M81.309 28.7544C82.876 29.8894 83.218 32.0685 82.0729 33.6216L49.9479 73.7746C47.9892 76.4312 44.0702 76.6535 41.8184 74.2357L22.182 53.1521C20.8655 51.7386 20.9545 49.535 22.3806 48.2303C23.8068 46.9255 26.0301 47.0136 27.3466 48.4271L45.5338 67.9548L76.3981 29.5115C77.5433 27.9584 79.7419 27.6194 81.309 28.7544Z" fill="#A6CCE5"/>
<path d="M51.503 -2.25101e-06C23.0577 -3.49439e-06 0.00598807 23.0576 0.00598682 51.497L1.20192 51.497C1.20193 23.7154 23.7214 1.19593 51.503 1.19593L51.503 -2.25101e-06ZM103 51.497C103 23.0517 79.9424 -1.00788e-06 51.503 -2.25101e-06L51.503 1.19593C79.2846 1.19594 101.804 23.7154 101.804 51.497L103 51.497ZM51.503 103C79.9483 103 103 79.9424 103 51.503L101.804 51.503C101.804 79.2846 79.2846 101.804 51.503 101.804L51.503 103ZM5.37839e-06 51.497C4.135e-06 79.9423 23.0576 102.994 51.497 102.994L51.497 101.798C23.7154 101.798 1.19593 79.2786 1.19594 51.497L5.37839e-06 51.497Z" fill="#A6CCE5"/>
</svg>
