<svg width="30" height="30" viewBox="0 0 30 30" fill="none" xmlns="http://www.w3.org/2000/svg">
<rect x="0.0229492" width="29.1214" height="29.1214" rx="14.5607" fill="#A6CCE5"/>
<g clip-path="url(#clip0_1721_6728)">
<path d="M13.5649 7.70016L11.989 6.12434C11.6814 5.81663 11.1824 5.81663 10.8748 6.12434L9.2989 7.70016C8.99119 8.0078 8.99119 8.50674 9.2989 8.81442C9.60662 9.12206 10.1055 9.12206 10.4132 8.81442L11.4319 7.7957L12.4506 8.81442C12.6044 8.96826 12.8061 9.04521 13.0077 9.04521C13.2094 9.04521 13.4111 8.96826 13.5648 8.81442C13.8725 8.50677 13.8725 8.00787 13.5649 7.70016Z" fill="#224660"/>
<path d="M19.8678 6.12434C19.5602 5.81663 19.0613 5.81663 18.7535 6.12434L17.7349 7.14306L16.7161 6.12434C16.4085 5.81663 15.9096 5.81663 15.6019 6.12434C15.2942 6.43199 15.2942 6.93092 15.6019 7.2386L17.1777 8.81442C17.3315 8.96826 17.5332 9.04521 17.7349 9.04521C17.9365 9.04521 18.1381 8.96826 18.292 8.81442L19.8678 7.2386C20.1755 6.93095 20.1755 6.43202 19.8678 6.12434Z" fill="#224660"/>
<path d="M19.8684 10.8519C19.7206 10.7041 19.5202 10.6211 19.3112 10.6211L14.5929 10.6216C14.5898 10.6215 14.5868 10.6211 14.5838 10.6211C14.5806 10.6211 14.5777 10.6215 14.5746 10.6216L9.85622 10.622C9.42107 10.622 9.06836 10.9748 9.06836 11.4099V22.4398C9.06836 22.875 9.42114 23.2277 9.85628 23.2277H19.3113C19.7464 23.2277 20.0992 22.875 20.0992 22.4398V11.409C20.0992 11.2 20.0162 10.9996 19.8684 10.8519ZM13.7959 21.6519H10.6442V12.1977L13.7959 12.1974V21.6519ZM18.5234 21.6519H15.3717V12.1972L18.5234 12.1969V21.6519Z" fill="#224660"/>
</g>
<defs>
<clipPath id="clip0_1721_6728">
<rect width="17.3342" height="17.3342" fill="white" transform="translate(5.9165 5.89355)"/>
</clipPath>
</defs>
</svg>
