<svg width="45" height="41" viewBox="0 0 45 41" fill="none" xmlns="http://www.w3.org/2000/svg">
<path d="M29.5683 21.788C29.8865 22.0953 30.3127 22.2654 30.7551 22.2615C31.1974 22.2577 31.6206 22.0802 31.9334 21.7674C32.2463 21.4546 32.4237 21.0314 32.4275 20.589C32.4314 20.1467 32.2613 19.7205 31.954 19.4023L22.9208 10.4028C22.8424 10.3242 22.7493 10.2619 22.6468 10.2194C22.5443 10.1768 22.4345 10.1549 22.3235 10.1549C22.2125 10.1549 22.1027 10.1768 22.0002 10.2194C21.8977 10.2619 21.8046 10.3242 21.7262 10.4028L12.6964 19.4023C12.389 19.7205 12.219 20.1467 12.2228 20.589C12.2267 21.0314 12.4041 21.4546 12.7169 21.7674C13.0297 22.0802 13.4529 22.2577 13.8953 22.2615C14.3377 22.2654 14.7639 22.0953 15.0821 21.788L20.6633 16.2337L20.6633 38.8421C20.6633 39.2896 20.8411 39.7187 21.1575 40.0351C21.4739 40.3515 21.903 40.5293 22.3505 40.5293C22.798 40.5293 23.2271 40.3515 23.5435 40.0351C23.8599 39.7187 24.0377 39.2896 24.0377 38.8421L24.0377 16.2337L29.5683 21.788ZM0.416991 3.41106L0.416992 25.3446C0.416992 25.792 0.594749 26.2212 0.911159 26.5376C1.22757 26.854 1.65671 27.0318 2.10418 27.0318C2.55166 27.0318 2.9808 26.854 3.29721 26.5376C3.61362 26.2212 3.79138 25.792 3.79138 25.3446L3.79138 5.09825C3.79138 4.65078 3.96913 4.22164 4.28554 3.90523C4.60195 3.58882 5.0311 3.41106 5.47857 3.41106L39.2224 3.41106C39.6699 3.41106 40.099 3.58882 40.4154 3.90523C40.7319 4.22164 40.9096 4.65078 40.9096 5.09825L40.9096 26.1882C40.9096 26.6356 41.0874 27.0648 41.4038 27.3812C41.7202 27.6976 42.1493 27.8754 42.5968 27.8754C43.0443 27.8754 43.4734 27.6976 43.7898 27.3812C44.1062 27.0648 44.284 26.6356 44.284 26.1882L44.284 3.41106C44.284 2.51612 43.9285 1.65783 43.2957 1.02501C42.6628 0.392187 41.8045 0.0366727 40.9096 0.0366727L3.79138 0.0366744C2.89643 0.0366744 2.03814 0.392189 1.40532 1.02501C0.772505 1.65783 0.416991 2.51612 0.416991 3.41106Z" fill="#224660"/>
</svg>
