<svg width="30" height="31" viewBox="0 0 30 31" fill="none" xmlns="http://www.w3.org/2000/svg">
<rect x="0.591064" y="0.893555" width="29.1214" height="29.1214" rx="14.5607" fill="#A6CCE5"/>
<path fill-rule="evenodd" clip-rule="evenodd" d="M14.812 9.77234C14.812 10.4139 14.2888 10.9339 13.6433 10.9339C12.9978 10.9339 12.4745 10.4139 12.4745 9.77234C12.4745 9.13082 12.9978 8.61076 13.6433 8.61076C14.2888 8.61076 14.812 9.13082 14.812 9.77234ZM18.3532 10.3393H22.2951C23.2936 10.3393 24.1066 11.147 24.1066 12.1394V12.478C24.1066 13.4711 23.2942 14.279 22.2951 14.279H20.6391C20.4689 14.279 20.2351 14.3755 20.1146 14.4949L12.4751 22.0819C12.355 22.2009 12.1205 22.2977 11.9506 22.2977H8.00873C7.00958 22.2977 6.19693 21.4898 6.19693 20.4974V20.1587C6.19693 19.1663 7.00989 18.3583 8.00873 18.3583H9.66475C9.83466 18.3583 10.0691 18.2618 10.1892 18.1424L12.2769 16.0694C12.397 15.95 12.4941 15.717 12.4941 15.5481V12.3849C12.4941 11.824 12.951 11.3696 13.5154 11.3696H13.771C14.3351 11.3696 14.7923 11.824 14.7923 12.3849V13.2662C14.7923 13.435 14.8894 13.475 15.0095 13.3556L17.8287 10.5561C17.9489 10.4367 18.1833 10.3402 18.3532 10.3402V10.3393Z" fill="#224660"/>
</svg>
