<svg width="30" height="30" viewBox="0 0 30 30" fill="none" xmlns="http://www.w3.org/2000/svg">
<rect x="0.851318" width="29.1214" height="29.1214" rx="14.5607" fill="#A6CCE5"/>
<path fill-rule="evenodd" clip-rule="evenodd" d="M17.4519 9.30722C16.8064 9.30722 16.2832 8.78822 16.2832 8.148C16.2832 7.50777 16.8064 6.98877 17.4519 6.98877C18.0974 6.98877 18.6206 7.50777 18.6206 8.148C18.6206 8.78822 18.0974 9.30722 17.4519 9.30722ZM18.6658 14.2466H18.7038C18.8369 14.2466 18.9458 14.3546 18.9458 14.4866V16.411C18.9458 16.543 19.0547 16.6511 19.1878 16.6511H21.4144C21.5475 16.6511 21.6564 16.7591 21.6564 16.8911V18.8155C21.6564 18.9476 21.7653 19.0556 21.8984 19.0556H24.1249C24.258 19.0556 24.3669 19.1636 24.3669 19.2956V21.8921C24.3669 22.0242 24.258 22.1322 24.1249 22.1322H17.5415C17.4084 22.1322 17.2995 22.0242 17.2995 21.8921V19.9678C17.2995 19.8357 17.1906 19.7277 17.0575 19.7277H14.831C14.6979 19.7277 14.589 19.6197 14.589 19.4877V17.5633C14.589 17.4312 14.4801 17.3232 14.347 17.3232H12.1204C11.9873 17.3232 11.8784 17.2152 11.8784 17.0832V15.1588C11.8784 15.0267 11.7695 14.9187 11.6364 14.9187H9.40985C9.27675 14.9187 9.16784 14.8107 9.16784 14.6787V12.7543C9.16784 12.6223 9.05893 12.5143 8.92582 12.5143H6.69929C6.56618 12.5143 6.45728 12.4062 6.45728 12.2742V9.67766C6.45728 9.54563 6.56618 9.4376 6.69929 9.4376H13.2827C13.4158 9.4376 13.5247 9.54563 13.5247 9.67766V11.6021C13.5247 11.7341 13.6336 11.8421 13.7667 11.8421H15.9932C16.1263 11.8421 16.2352 11.9501 16.2352 12.0822V14.0065C16.2352 14.0928 16.2818 14.1689 16.3512 14.2112V10.7587C16.3512 10.1989 16.8084 9.74545 17.3724 9.74545H17.6281C18.1924 9.74545 18.6493 10.1989 18.6493 10.7587L18.6658 14.2466Z" fill="#224660"/>
</svg>
