<svg width="30" height="30" viewBox="0 0 30 30" fill="none" xmlns="http://www.w3.org/2000/svg">
<rect x="0.542236" y="0.141357" width="29.1214" height="29.1214" rx="14.5607" fill="#A6CCE5"/>
<path d="M15.3955 11.7186L14.039 16.7881L12.6528 11.7186H10.8805L9.51414 16.7881L8.14777 11.7186H6.19721L8.53392 18.6594H10.3954L11.732 13.9365L13.0489 18.6594H14.9103L17.2569 11.7186H15.3955ZM22.8268 14.0751L23.8763 12.8078C23.1832 12.0751 22.104 11.6097 21.0743 11.6097C18.9554 11.6097 17.3613 13.1345 17.3613 15.1742C17.3613 17.2336 18.9158 18.7881 21.005 18.7881C22.0347 18.7881 23.1436 18.2733 23.8862 17.4911L22.8268 16.3524C22.3416 16.8475 21.6782 17.1643 21.104 17.1643C20.0346 17.1643 19.2227 16.293 19.2227 15.1544C19.2227 14.0058 20.0346 13.1444 21.104 13.1444C21.708 13.1444 22.3713 13.5009 22.8268 14.0751Z" fill="#224660"/>
</svg>
