<svg width="24" height="25" viewBox="0 0 24 25" fill="none" xmlns="http://www.w3.org/2000/svg">
<path fill-rule="evenodd" clip-rule="evenodd" d="M18.6665 4.27278C17.3757 3.0993 15.4012 3.10973 14.1229 4.29678L5.06353 12.709C2.70787 14.8964 2.69898 18.6219 5.04417 20.8205C7.19011 22.8323 10.5333 22.8192 12.6634 20.7905L21.1376 12.7198C21.6375 12.2437 22.4288 12.263 22.9049 12.7629C23.381 13.2629 23.3617 14.0541 22.8618 14.5302L14.3875 22.6009C11.2975 25.5438 6.44743 25.5629 3.33432 22.6443C-0.0678491 19.4548 -0.0549536 14.0503 3.3624 10.8771L12.4218 2.46479C14.6519 0.393965 18.0963 0.375775 20.3482 2.42293C22.901 4.74371 22.9054 8.75706 20.3575 11.0833L11.286 19.366C9.91496 20.6179 7.80178 20.5699 6.48898 19.2571C5.1018 17.8699 5.13824 15.6098 6.56943 14.2681L14.8948 6.46309C15.3984 5.99093 16.1895 6.01644 16.6616 6.52008C17.1338 7.02372 17.1083 7.81477 16.6046 8.28693L8.27928 16.0919C7.87842 16.4677 7.86821 17.1008 8.25675 17.4893C8.62445 17.857 9.21632 17.8704 9.60034 17.5198L18.6719 9.23713C20.1323 7.90365 20.1298 5.6031 18.6665 4.27278Z" fill="#828282"/>
</svg>
