<svg width="423" height="353" viewBox="0 0 423 353" fill="none" xmlns="http://www.w3.org/2000/svg">
<g clip-path="url(#clip0_831_5639)">
<rect width="423" height="353" fill="white"/>
<path d="M423.15 166.15H290.764V166.81H423.15V166.15Z" fill="#224660"/>
<path d="M614.751 269.231H290.764V269.891H614.751V269.231Z" fill="#224660"/>
<path d="M452.775 325.307H290.764V325.967H452.775V325.307Z" fill="#224660"/>
<path d="M342.955 325.612H290.764V332.544H342.955V325.612Z" fill="#224660"/>
<path d="M343.277 0.439972H342.633V332.532H343.277V0.439972Z" fill="#224660"/>
<path d="M452.775 41.2102H290.764V41.8704H452.775V41.2102Z" fill="#224660"/>
<path d="M342.355 101.174C342.355 121.419 358.361 137.825 378.112 137.825V136.602C359.029 136.602 343.548 120.746 343.548 101.174H342.355ZM378.112 64.5358C358.361 64.5358 342.355 80.9417 342.355 101.186H343.548C343.548 81.6263 359.017 65.7583 378.112 65.7583V64.5358ZM413.868 101.174C413.868 80.9295 397.862 64.5236 378.112 64.5236V65.7461C397.194 65.7461 412.675 81.6019 412.675 101.174H413.868ZM378.112 137.825C397.862 137.825 413.868 121.419 413.868 101.174H412.675C412.675 120.734 397.206 136.602 378.112 136.602V137.825Z" fill="#224660"/>
<path d="M342.952 326.334H452.725V325.111H342.952V326.334ZM397.838 269.108C367.294 269.108 342.499 294.426 342.355 325.722H343.548C343.679 295.111 367.95 270.331 397.838 270.331V269.108ZM453.321 325.722C453.178 294.426 428.382 269.108 397.838 269.108V270.331C427.727 270.331 451.997 295.111 452.128 325.722H453.321ZM342.952 325.722H342.355V326.334H342.952V325.722ZM452.725 325.722V326.334H453.321V325.722H452.725Z" fill="#224660"/>
<path d="M394.932 69.7557V133.35C405.856 127.164 413.239 115.233 413.239 101.553C413.239 87.8731 405.868 75.9415 394.932 69.7557Z" fill="#224660"/>
<path d="M413.848 101.553C413.848 87.6408 406.334 75.5013 395.231 69.2177L394.646 70.2935C405.392 76.3693 412.644 88.1053 412.644 101.553H413.848ZM395.231 133.888C406.346 127.592 413.848 115.465 413.848 101.553H412.644C412.644 115 405.38 126.724 394.646 132.812L395.231 133.888ZM394.336 69.7556V133.35H395.541V69.7556H394.336ZM394.932 133.35H394.336V134.389L395.231 133.888L394.932 133.35ZM394.932 69.7556L395.219 69.2177L394.324 68.7165V69.7556H394.932Z" fill="#224660"/>
<path d="M452.775 64.9025H290.764V65.5627H452.775V64.9025Z" fill="#224660"/>
<path d="M342.883 21.2101H290.764V21.8702H342.883V21.2101Z" fill="#224660"/>
<path d="M368.955 0.439972H368.311V41.5893H368.955V0.439972Z" fill="#224660"/>
<path d="M368.955 325.954H368.311V332.58H368.955V325.954Z" fill="#224660"/>
<path d="M394.871 0H394.227V166.064H394.871V0Z" fill="#224660"/>
<path d="M394.916 325.918H394.271V332.544H394.916V325.918Z" fill="#224660"/>
<path d="M343.277 331.737H342.633V663.829H343.277V331.737Z" fill="#224660"/>
<path d="M342.883 352.507H290.764V353.167H342.883V352.507Z" fill="#224660"/>
<path d="M368.955 331.737H368.311V372.886H368.955V331.737Z" fill="#224660"/>
<path d="M394.871 331.297H394.227V497.361H394.871V331.297Z" fill="#224660"/>
<path d="M158.018 136.113H98.9453V196.896H158.018V136.113Z" fill="#224660"/>
<path d="M128.669 0.439972H128.025V136.137H128.669V0.439972Z" fill="#224660"/>
<path d="M128.669 196.871H128.025V332.568H128.669V196.871Z" fill="#224660"/>
<path d="M290.38 166.15H157.994V166.81H290.38V166.15Z" fill="#224660"/>
<path d="M98.7433 166.15H-33.6426V166.81H98.7433V166.15Z" fill="#224660"/>
<path d="M175.443 0.439972H174.799V166.15H175.443V0.439972Z" fill="#224660"/>
<path d="M175.433 230.025H174.777L174.813 166.272H175.457L175.433 230.025Z" fill="#224660"/>
<path d="M235.052 0.439972H234.408V230.123H235.052V0.439972Z" fill="#224660"/>
<path d="M271.355 0.439972H270.711V332.703H271.355V0.439972Z" fill="#224660"/>
<path d="M290.345 269.231H-33.6426V269.891H290.345V269.231Z" fill="#224660"/>
<path d="M128.369 325.307H-33.6426V325.967H128.369V325.307Z" fill="#224660"/>
<path d="M290.466 325.307H234.732V325.967H290.466V325.307Z" fill="#224660"/>
<path d="M18.5485 325.612H-33.6426V332.544H18.5485V325.612Z" fill="#224660"/>
<path d="M290.36 325.612H271.039V332.544H290.36V325.612Z" fill="#224660"/>
<path d="M271.214 229.695H234.611V269.365H271.214V229.695Z" fill="#224660"/>
<path d="M175.443 269.304H174.799V332.544H175.443V269.304Z" fill="#224660"/>
<path d="M156.102 229.695C156.102 240.453 164.605 249.17 175.101 249.17V247.947C165.273 247.947 157.294 239.781 157.294 229.695H156.102ZM175.089 210.221C164.594 210.221 156.09 218.937 156.09 229.695H157.283C157.283 219.61 165.25 211.443 175.089 211.443V210.221ZM194.088 229.695C194.088 218.937 185.584 210.221 175.089 210.221V211.443C184.928 211.443 192.895 219.61 192.895 229.695H194.088ZM175.089 249.17C185.584 249.17 194.088 240.453 194.088 229.695H192.895C192.895 239.769 184.928 247.947 175.089 247.947V249.17Z" fill="#224660"/>
<path d="M234.732 64.9025V115.416C248.329 115.416 259.373 104.096 259.373 90.1593C259.373 76.2228 248.341 64.9025 234.732 64.9025Z" fill="#224660"/>
<path d="M235.326 165.917V115.404H234.133V165.917H235.326ZM234.706 165.917C234.706 165.306 234.706 165.917 234.706 166.529V165.306C234.706 165.917 234.706 166.529 234.706 165.917ZM209.469 140.661C209.469 154.939 220.775 166.529 234.706 166.529V165.306C221.431 165.306 210.661 154.267 210.661 140.661H209.469ZM234.729 114.793C220.775 114.793 209.469 126.382 209.469 140.661H210.661C210.661 127.054 221.431 116.015 234.729 116.015V114.793ZM234.729 165.917V166.529H235.326V165.917H234.729ZM234.729 115.404H235.326V114.793H234.729V115.404Z" fill="#224660"/>
<path d="M235.057 229.512H128.73V230.172H235.057V229.512Z" fill="#224660"/>
<path d="M18.8706 0.439972H18.2266V332.532H18.8706V0.439972Z" fill="#224660"/>
<path d="M99.6362 195.82H98.9922V325.515H99.6362V195.82Z" fill="#224660"/>
<path d="M128.369 41.2102H-33.6426V41.8704H128.369V41.2102Z" fill="#224660"/>
<path d="M17.9551 101.174C17.9551 121.419 33.9606 137.825 53.7112 137.825V136.602C34.6285 136.602 19.1477 120.746 19.1477 101.174H17.9551ZM53.7112 64.5358C33.9606 64.5358 17.9551 80.9417 17.9551 101.186H19.1477C19.1477 81.6263 34.6166 65.7583 53.7112 65.7583V64.5358ZM89.4673 101.174C89.4673 80.9295 73.4617 64.5236 53.7112 64.5236V65.7461C72.7938 65.7461 88.2746 81.6019 88.2746 101.174H89.4673ZM53.7112 137.825C73.4617 137.825 89.4673 121.419 89.4673 101.174H88.2746C88.2746 120.734 72.8058 136.602 53.7112 136.602V137.825Z" fill="#224660"/>
<path d="M235.03 269.414H175.432C175.337 270.771 175.301 272.153 175.301 273.534C175.301 306.126 201.086 332.556 232.883 332.556C233.586 332.556 234.302 332.532 235.006 332.507V269.402H235.03V269.414Z" fill="#224660"/>
<path opacity="0.5" d="M290.348 277.532C290.443 276.199 290.479 274.867 290.479 273.522C290.479 272.189 290.431 270.832 290.348 269.512V277.532Z" fill="#224660"/>
<path d="M18.5514 326.334H128.324V325.111H18.5514V326.334ZM73.4379 269.108C42.8937 269.108 18.0982 294.426 17.9551 325.722H19.1477C19.2789 295.111 43.5497 270.331 73.4379 270.331V269.108ZM128.921 325.722C128.778 294.426 103.982 269.108 73.4379 269.108V270.331C103.326 270.331 127.597 295.111 127.728 325.722H128.921ZM18.5514 325.722H17.9551V326.334H18.5514V325.722ZM128.324 325.722V326.334H128.921V325.722H128.324Z" fill="#224660"/>
<path d="M234.529 166.229L175.08 229.278L175.543 229.737L234.992 166.688L234.529 166.229Z" fill="#224660"/>
<path d="M70.5254 69.7557V133.35C81.4502 127.164 88.8328 115.233 88.8328 101.553C88.8328 87.8731 81.4621 75.9415 70.5254 69.7557Z" fill="#224660"/>
<path d="M89.4419 101.553C89.4419 87.6408 81.9281 75.5013 70.8244 69.2177L70.2399 70.2935C80.9859 76.3693 88.2373 88.1053 88.2373 101.553H89.4419ZM70.8244 133.888C81.9401 127.592 89.4419 115.465 89.4419 101.553H88.2373C88.2373 115 80.9739 126.724 70.2399 132.812L70.8244 133.888ZM69.9299 69.7556V133.35H71.1344V69.7556H69.9299ZM70.5262 133.35H69.9299V134.389L70.8244 133.888L70.5262 133.35ZM70.5262 69.7556L70.8125 69.2177L69.918 68.7165V69.7556H70.5262Z" fill="#224660"/>
<path d="M128.369 64.9025H-33.6426V65.5627H128.369V64.9025Z" fill="#224660"/>
<path d="M290.645 64.9025H234.732V65.5627H290.645V64.9025Z" fill="#224660"/>
<path d="M18.4769 21.2101H-33.6426V21.8702H18.4769V21.2101Z" fill="#224660"/>
<path d="M290.345 21.2101H234.611V21.8702H290.345V21.2101Z" fill="#224660"/>
<path d="M290.345 41.2102H234.611V41.8704H290.345V41.2102Z" fill="#224660"/>
<path d="M44.5483 0.439972H43.9043V41.5893H44.5483V0.439972Z" fill="#224660"/>
<path d="M44.5483 325.954H43.9043V332.58H44.5483V325.954Z" fill="#224660"/>
<path d="M70.4663 0H69.8223V166.064H70.4663V0Z" fill="#224660"/>
<path d="M70.5132 325.918H69.8691V332.544H70.5132V325.918Z" fill="#224660"/>
<path d="M128.669 331.737H128.025V467.434H128.669V331.737Z" fill="#224660"/>
<path d="M175.443 331.737H174.799V497.447H175.443V331.737Z" fill="#224660"/>
<path d="M235.052 331.737H234.408V561.42H235.052V331.737Z" fill="#224660"/>
<path d="M271.355 331.737H270.711V664H271.355V331.737Z" fill="#224660"/>
<path d="M18.8706 331.737H18.2266V663.829H18.8706V331.737Z" fill="#224660"/>
<path d="M18.4769 352.507H-33.6426V353.167H18.4769V352.507Z" fill="#224660"/>
<path d="M290.345 352.507H234.611V353.167H290.345V352.507Z" fill="#224660"/>
<path d="M44.5483 331.737H43.9043V372.886H44.5483V331.737Z" fill="#224660"/>
<path d="M70.4663 331.297H69.8223V497.361H70.4663V331.297Z" fill="#224660"/>
</g>
<defs>
<clipPath id="clip0_831_5639">
<rect width="423" height="353" fill="white"/>
</clipPath>
</defs>
</svg>
