<svg width="101" height="22" viewBox="0 0 101 22" fill="none" xmlns="http://www.w3.org/2000/svg">
<path fill-rule="evenodd" clip-rule="evenodd" d="M2.89746 2.04071V9.29417H7.09395C8.77381 9.29417 10.0627 8.90167 10.9598 8.12374C11.741 7.46311 12.1317 6.62635 12.1317 5.60711C12.1317 3.22939 10.7713 2.04071 8.05435 2.04071H2.89746ZM2.89746 11.3319V19.6042H7.39335C10.9117 19.6042 12.6702 18.3042 12.6702 15.7075C12.6702 14.349 12.1607 13.2803 11.1419 12.5023C10.1215 11.721 8.75221 11.3319 7.03511 11.3319H2.89746ZM0.5 21.642V0H8.47404C10.3114 0 11.7809 0.509433 12.8806 1.53128C13.9799 2.55014 14.5295 3.81963 14.5295 5.33526C14.5295 7.81465 13.3084 9.47589 10.8737 10.3097L10.9046 10.3715C12.1212 10.6709 13.12 11.3226 13.8998 12.3195C14.6777 13.3201 15.0669 14.4872 15.0669 15.8274C15.0669 19.7055 12.4516 21.6416 7.21461 21.6416H0.5V21.642ZM20.6617 12.4126H28.5754C28.5754 10.9521 28.2466 9.78796 27.5874 8.91731C26.9279 8.04963 26.0189 7.61431 24.8608 7.61431C23.5809 7.61431 22.587 8.0433 21.8779 8.90167C21.1678 9.7604 20.7634 10.9308 20.6617 12.4126ZM29.5358 17.4458L31.2123 18.3135C30.5733 19.4344 29.8952 20.2648 29.1776 20.8022C28.117 21.5619 26.7969 21.9417 25.219 21.9417C23.3202 21.9417 21.764 21.3057 20.544 20.0247C19.1438 18.5857 18.446 16.529 18.446 13.8489C18.446 11.3509 19.0202 9.37796 20.1686 7.9327C21.3171 6.48186 22.861 5.7557 24.799 5.7557C26.5388 5.7557 27.936 6.31466 28.9951 7.43556C30.1547 8.67041 30.7334 10.4739 30.7334 12.8297V14.2716H20.6043C20.6043 15.9671 21.0471 17.3658 21.9383 18.4494C22.826 19.5398 23.9205 20.0831 25.219 20.0831C27.1182 20.0827 28.5553 19.2024 29.5358 17.4458ZM34.3326 6.0551H36.491V9.14298H36.5513C37.1888 8.00308 37.8588 7.18196 38.5585 6.68481C39.3781 6.10723 40.3959 5.81714 41.617 5.81714V7.97553C40.3184 7.99415 39.2578 8.44511 38.4397 9.3247C37.6785 10.103 37.0302 11.3319 36.4913 13.0088V21.6423H34.3326V6.0551ZM42.9445 18.9771L44.6534 17.6864C45.7743 19.2828 47.2624 20.0827 49.1199 20.0827C50.2207 20.0827 51.0698 19.8139 51.6689 19.2735C52.2063 18.8136 52.4781 18.2241 52.4781 17.5077C52.4781 16.4452 51.6782 15.6271 50.0788 15.0495C48.6213 14.5494 47.1611 14.0489 45.7032 13.5491C44.1224 12.7708 43.3642 11.5728 43.4245 9.95181C43.4648 8.61492 43.9526 7.57409 44.8944 6.83638C45.8332 6.09867 47.0606 5.73708 48.5811 5.7557C49.5999 5.77432 50.6128 6.04281 51.6224 6.54926C52.632 7.06205 53.3946 7.70443 53.9148 8.48198L52.416 9.80062C51.2195 8.34643 49.8777 7.61468 48.4005 7.61468C46.5229 7.61468 45.5829 8.38628 45.5829 9.92426C45.5829 10.8225 46.3627 11.5389 47.9219 12.0793C50.6594 12.9995 52.118 13.5089 52.2972 13.6076C53.8549 14.466 54.6347 15.7287 54.6347 17.387C54.6347 18.8256 54.0772 19.9651 52.9567 20.8018C51.9561 21.5615 50.6992 21.9414 49.1802 21.9414C46.5031 21.9414 44.4233 20.9534 42.9445 18.9771ZM60.3732 0V8.15427H60.4317C61.8535 6.55485 63.3911 5.75532 65.0509 5.75532C66.3297 5.75532 67.3701 6.0983 68.1667 6.77419C69.0868 7.57372 69.5449 8.75345 69.5449 10.3097V21.642H67.3884V10.3719C67.3884 8.53151 66.5393 7.61468 64.839 7.61468C63.3416 7.61468 61.8531 8.40192 60.3729 9.98272V21.6423H58.2145V0H60.3732ZM76.8773 0V13.9383L83.2147 6.0551H85.8397L81.2525 11.8104L86.4385 21.642H83.8924L79.7551 13.6694L76.8773 16.9669V21.642H74.7185V0H76.8773ZM97.9789 17.5077V13.2184C93.0648 14.0798 90.6052 15.5686 90.6052 17.6864C90.6052 18.3656 90.874 18.9339 91.4159 19.3908C91.9547 19.8541 92.5427 20.0824 93.1817 20.0824C93.9448 20.0824 94.7722 19.8385 95.6708 19.3506C96.5694 18.8602 97.3399 18.2454 97.9789 17.5077ZM90.7832 10.0412L88.8966 9.05323C90.1162 6.855 92.0646 5.7557 94.7413 5.7557C96.2402 5.7557 97.468 6.10761 98.4295 6.80547C99.5705 7.64223 100.139 8.85251 100.139 10.4337V18.2889C100.139 19.6042 100.259 20.7221 100.5 21.6423H98.2783L98.0389 19.4869C96.5616 21.1236 94.843 21.9417 92.8838 21.9417C91.6225 21.9417 90.5851 21.5835 89.7669 20.864C88.8869 20.0827 88.4483 19.0144 88.4483 17.6559C88.4483 15.9574 89.1647 14.6298 90.6052 13.6698C92.0441 12.7094 94.5004 11.9221 97.9789 11.3014V10.4616C97.9789 8.56577 96.9105 7.61468 94.7726 7.61468C92.7542 7.61431 91.4255 8.42314 90.7832 10.0412Z" fill="#A6CCE5"/>
</svg>
