<svg width="79" height="62" viewBox="0 0 79 62" fill="none" xmlns="http://www.w3.org/2000/svg">
<path d="M56.6439 0.0626314C59.5496 -1.77623 60.9896 -1.53492 61.022 0.328963C61.0609 2.75024 60.783 5.97006 60.5829 8.29999C59.5043 20.9624 57.7026 31.3096 57.5672 44.311C62.3134 28.4791 66.2912 17.4754 71.4183 3.9232C73.0457 -0.395121 74.0853 0.412018 75.4219 -0.35352C80.6266 -3.34047 80.8205 -1.5099 80.1423 2.14266C77.6175 15.6716 71.1535 58.2683 70.1657 64.8274C69.8814 66.7252 68.2801 65.9206 67.8667 65.1785C66.0135 61.8753 63.9214 61.8237 64.1538 59.6272C65.3161 48.6917 69.5004 21.2545 70.5918 14.7895C65.0318 29.4766 59.2655 47.8373 56.3015 58.2476C55.675 60.4583 54.532 60.2961 53.8219 58.6786C52.8209 56.4066 50.8773 55.2464 50.5543 52.5614C49.5406 44.0249 51.7167 27.7535 52.02 17.4595C48.9917 28.7045 43.9097 50.5364 41.6818 60.4C40.7649 64.4812 37.704 63.8154 38.5176 59.8376C41.9012 43.2844 49.192 14.0076 52.3431 3.48232C53.0859 1.00272 55.0294 1.08592 56.6439 0.0626314ZM38.1887 -1.96765C37.2071 -2.27544 34.3595 -0.295192 32.6094 0.0957954C32.0541 0.220597 31.5245 0.9777 31.3372 1.51865C28.5346 9.81405 26.0227 17.7217 23.8466 24.9255C21.0634 25.5379 17.809 26.344 14.1669 27.3983C16.7758 18.7758 19.4104 10.2715 21.9804 2.09263C23.246 -1.93449 19.9142 -2.31704 18.6225 1.75982C16.9435 7.05997 13.7988 16.9903 10.3182 28.5647C7.60245 29.4226 4.90053 30.3516 2.21414 31.3512C0.154145 32.1175 0.070381 32.8247 0.961413 34.4165C1.45214 35.3027 2.466 35.2136 2.93087 35.845C4.13201 37.4817 4.86172 39.4394 7.01192 39.7357C5.09416 46.3461 3.17618 53.1631 1.43916 59.7269C0.347862 63.8471 3.45389 64.6899 4.64859 60.33C6.57289 53.3018 8.60049 46.1887 10.6862 39.0965C12.4232 38.5764 16.627 37.4098 20.5079 36.3248C17.4277 47.2028 15.4 55.4642 14.6317 59.4855C14.4897 60.2593 14.7286 60.6885 14.8577 61.004C15.8974 62.9533 16.8853 63.0332 18.222 65.4435C18.5837 66.101 19.7977 66.4553 20.2109 64.837C23.0651 53.7285 26.0032 43.3056 28.7411 33.9618C29.8776 33.6415 31.9246 33.0049 33.1773 30.5962C35.4051 26.3212 36.0443 27.1881 36.5805 25.8885C37.2521 24.2569 36.8063 22.7251 34.4301 23.1036C34.4301 23.1036 33.5327 23.1859 31.873 23.4297C34.5076 14.6892 36.813 7.27568 38.4725 1.62629C39.041 -0.286901 39.1121 -1.68474 38.1887 -1.96765Z" fill="#A6CCE5"/>
<path d="M34.3012 54.7223C34.9147 56.7199 36.8325 56.1149 36.1029 53.7039C35.3601 51.2475 33.5134 43.8532 33.029 41.4711C32.3704 38.2612 35.2247 39.139 33.7781 41.2375C32.5384 43.042 31.7117 43.7651 29.4195 47.1964C27.2046 50.5088 27.8052 54.8071 30.1749 55.7565C32.8482 56.8281 35.2052 53.0324 36.6646 50.2477C38.0787 47.551 36.7097 45.9693 35.2828 47.5635C34.3657 48.5886 33.3067 50.1629 32.2348 51.0115C31.363 51.6945 30.6784 50.9607 31.8408 48.899C33.1904 46.512 34.7014 44.5117 35.825 42.256C38.1174 37.659 33.5843 35.009 31.6341 37.9951C30.588 39.5868 30.8529 41.1495 31.137 42.4906C31.5955 44.639 33.3002 51.4966 34.3012 54.7222" fill="#A6CCE5"/>
</svg>
