<svg width="151" height="28" viewBox="0 0 151 28" fill="none" xmlns="http://www.w3.org/2000/svg">
<path d="M18.2223 5.76356C19.6611 5.76356 20.8302 4.59449 20.8302 3.15243C20.8302 1.71358 19.6611 0.547729 18.2223 0.547729C16.7802 0.547729 15.6111 1.71358 15.6111 3.15243C15.6111 3.84494 15.8862 4.50909 16.3759 4.99878C16.8656 5.48846 17.5297 5.76356 18.2223 5.76356ZM13.6263 16.1181C13.4529 16.3847 13.0642 16.9757 12.8073 17.4157L18.219 22.8306L23.634 17.4157C23.3803 16.9757 22.9884 16.3847 22.8182 16.1181L18.2223 20.7109L13.6263 16.1181Z" fill="#A6CCE5"/>
<path d="M14.4935 14.8623L18.2223 18.5944L21.9479 14.872L18.2223 9.59834L14.4935 14.8623ZM18.219 24.9471L12.0782 18.8031C11.8438 19.4744 11.7153 20.1938 11.7153 20.9485C11.7153 24.5425 14.6027 27.4523 18.1966 27.4523C21.7873 27.4523 24.726 24.5392 24.726 20.9485C24.726 20.197 24.5975 19.4744 24.3631 18.8031L18.219 24.9471ZM32.8773 2.40731C27.3981 -1.12236 23.2775 5.09231 19.1954 8.10811C19.1954 8.10811 20.6824 10.6839 22.2722 12.4343C23.862 14.1879 25.1949 14.8977 27.411 14.8591C29.6271 14.8206 31.6087 13.4331 32.4726 12.2191C33.3366 11.0019 33.722 9.78784 33.722 8.1049H22.3846C24.1125 6.74634 25.9882 4.69727 27.957 3.77872C29.5725 3.03681 31.5541 3.73054 32.7681 5.27216C33.3591 6.08152 33.722 7.11569 33.722 8.1049C34.5988 8.1049 35.4435 8.10169 35.9349 8.10169C36.0441 5.75071 34.753 3.76587 32.8773 2.40731ZM14.1691 12.4343C15.7589 10.6807 17.2459 8.10811 17.2459 8.10811C13.1638 5.0891 9.04318 -1.12557 3.56399 2.40731C1.68835 3.76587 0.397237 5.75071 0.506436 8.1049C1.00104 8.1049 1.84572 8.10811 2.71931 8.10811C2.71931 7.1189 3.08223 6.08473 3.67319 5.27538C4.88722 3.73054 6.86884 3.03681 8.48434 3.78193C10.4499 4.70369 12.3288 6.74955 14.0567 8.10811H2.71931C2.71931 9.78784 3.10471 11.0051 3.96867 12.2223C4.83262 13.4396 6.81425 14.827 9.03033 14.8623C11.2464 14.8977 12.5793 14.1847 14.1691 12.4343ZM148.445 1.60438C147.899 1.60438 147.377 1.82094 146.991 2.20643C146.606 2.59191 146.389 3.11473 146.389 3.65988C146.389 4.20503 146.606 4.72786 146.991 5.11334C147.377 5.49882 147.899 5.71538 148.445 5.71538C148.99 5.71538 149.512 5.49882 149.898 5.11334C150.283 4.72786 150.5 4.20503 150.5 3.65988C150.5 3.11473 150.283 2.59191 149.898 2.20643C149.512 1.82094 148.99 1.60438 148.445 1.60438ZM148.445 5.42633C147.468 5.42633 146.678 4.63624 146.678 3.65988C146.678 2.68352 147.468 1.89344 148.445 1.89344C149.421 1.89344 150.211 2.68352 150.211 3.65988C150.211 4.63303 149.421 5.42633 148.445 5.42633ZM149.312 3.15564C149.312 2.9533 149.215 2.78951 149.061 2.68352C148.907 2.58075 148.698 2.52936 148.441 2.52936H147.712V4.7615H148.075V3.8012H148.351L148.955 4.7615H149.353L148.724 3.76908C148.997 3.7209 149.312 3.54426 149.312 3.15564ZM148.342 3.53784H148.075V2.78308H148.342C148.522 2.78308 148.66 2.78951 148.775 2.86338C148.891 2.93403 148.939 3.02717 148.939 3.16207C148.939 3.29696 148.891 3.38689 148.775 3.46397C148.656 3.53141 148.518 3.53784 148.342 3.53784ZM119.228 12.5082V24.3209C119.228 25.4931 118.277 26.3089 117.108 26.3089H115.952C114.779 26.3089 113.832 25.4899 113.832 24.3209V13.9309C113.832 13.2212 113.234 13.0798 112.807 13.0798H112.566C112.152 13.0798 111.552 13.2212 111.552 13.9374V24.3241C111.552 25.4963 110.601 26.3121 109.432 26.3121H108.218C107.071 26.2864 106.153 25.4771 106.153 24.3241V13.9342C106.153 13.2244 105.542 13.0831 105.128 13.0831H104.878C104.447 13.0831 103.859 13.2244 103.859 13.9342V24.3241C103.859 25.4963 102.909 26.3121 101.74 26.3121H100.583C99.4112 26.3121 98.4638 25.4931 98.4638 24.3241V12.5114C98.4638 10.0673 99.5333 8.10169 103.233 8.10169H114.77C118.132 8.09847 119.228 10.064 119.228 12.5082ZM133.584 19.5707H126.133V20.7012C126.133 21.0353 126.297 21.5588 126.875 21.5588C127.193 21.562 135.986 21.578 135.986 21.578C137.159 21.578 137.974 22.4099 137.974 23.4376V24.4525C137.974 25.4803 137.155 26.3121 135.986 26.3121H125.147C123.127 26.3121 120.737 25.3743 120.737 22.1305V12.2833C120.737 9.11016 123.072 8.10169 125.147 8.10169H133.587C135.607 8.10169 137.997 9.03951 137.997 12.2833V15.3923C137.994 18.6329 135.604 19.5707 133.584 19.5707ZM132.897 13.9406V13.7318C132.897 13.3593 132.73 12.8325 131.962 12.8325H127.067C126.3 12.8325 126.133 13.3593 126.133 13.7318V14.8399H131.978C132.739 14.8302 132.897 14.3099 132.897 13.9406ZM142.779 1.60438H141.623C140.451 1.60438 139.503 2.42337 139.503 3.59244V24.3209C139.503 25.4931 140.454 26.3089 141.623 26.3089H142.779C143.951 26.3089 144.899 25.4899 144.899 24.3209V3.59244C144.899 2.42016 143.948 1.60438 142.779 1.60438ZM72.5484 8.09847H71.3922C70.2199 8.09847 69.2725 8.91746 69.2725 10.0865V20.3929C69.2725 21.1509 68.6719 21.3275 68.2479 21.3275H64.1562C63.7323 21.3275 63.1317 21.1573 63.1317 20.3929V10.0865C63.1317 8.91425 62.181 8.09847 61.012 8.09847H59.8557C58.6835 8.09847 57.736 8.91746 57.736 10.0865V21.8992C57.736 23.9194 58.8055 26.3089 62.5054 26.3089H69.902C73.6019 26.3089 74.6714 23.9194 74.6714 21.8992V10.0865C74.6682 8.91746 73.7207 8.09847 72.5484 8.09847ZM92.4803 8.09847H80.9439C77.244 8.09847 76.1745 10.064 76.1745 12.5082V24.3209C76.1745 25.4931 77.1251 26.3089 78.2942 26.3089H79.4504C80.6227 26.3089 81.5701 25.4899 81.5701 24.3209V13.9309C81.5701 13.2212 82.1579 13.0798 82.5883 13.0798H82.8388C83.2499 13.0798 83.8633 13.2212 83.8633 13.9309V24.3209C83.8633 25.4739 84.7819 26.2832 85.9284 26.3089H87.1425C88.3148 26.3089 89.2622 25.4899 89.2622 24.3209V13.9342C89.2622 13.2179 89.8628 13.0766 90.2771 13.0766H90.518C90.9451 13.0766 91.5425 13.2179 91.5425 13.9277V24.3176C91.5425 25.4899 92.4932 26.3057 93.6623 26.3057H94.8185C95.9908 26.3057 96.9382 25.4867 96.9382 24.3176V12.5049C96.9478 10.064 95.8526 8.09847 92.4803 8.09847ZM51.4507 8.09847H44.3592V3.59244C44.3592 2.42016 43.4085 1.60438 42.2395 1.60438H41.0833C39.911 1.60438 38.9635 2.42337 38.9635 3.59244V24.3209C38.9635 25.4931 39.9142 26.3089 41.0833 26.3089H42.2395C43.4118 26.3089 44.3592 25.4899 44.3592 24.3209V13.1634H49.7966C50.2206 13.1634 50.8212 13.3207 50.8212 14.098V24.3176C50.8212 25.4899 51.7718 26.3057 52.9409 26.3057H54.0971C55.2694 26.3057 56.2169 25.4867 56.2169 24.3176V12.5049C56.2233 10.4912 55.1506 8.09847 51.4507 8.09847Z" fill="#A6CCE5"/>
</svg>
