<svg width="151" height="26" viewBox="0 0 151 26" fill="none" xmlns="http://www.w3.org/2000/svg">
<path d="M15.6938 12.3466L17.9914 15.9904L22.6129 8.62449V24.9412H26.5939V1.20672H22.5314L15.6938 12.3466ZM4.52652 1.20659H0.5V24.9411H4.49103V8.62436L13.552 23.1126L15.8633 19.4154L4.52652 1.20659ZM50.5345 17.5839L54.2179 24.9408H59.019L46.9744 1.2068H42.6461L42.6424 1.21421L48.6731 13.8009H40.6593L42.7509 9.69762L40.5693 5.23861L30.4204 24.9408H34.9107L38.7042 17.5855L50.5345 17.5839ZM85.6008 1.20659H81.6087V12.7324L85.6008 16.7414V1.20659ZM66.3336 1.20659H62.2721V24.9411H66.2658V7.20611L82.6281 24.9411H85.6006V22.057L66.3336 1.20659Z" fill="#A6CCE5"/>
<path d="M113.497 7.79289C111.596 5.81881 108.665 4.55463 105.376 4.55463C100.128 4.55463 95.7902 7.77648 95.0983 11.9576H90.7028C91.2772 5.46783 97.9178 0.684281 105.43 0.684281C109.898 0.684281 113.913 2.34815 116.615 5.02526L113.497 7.79289ZM105.005 21.6262C100.624 21.6262 96.8935 19.2519 95.5023 15.9305H91.0184C92.5012 21.6553 98.3314 25.4738 105.254 25.4738C106.861 25.4738 108.711 25.315 110.246 24.9338C113.712 24.0762 117.497 21.8237 117.497 18.2678V11.9575H104.959L104.95 15.9305H113.49V17.7341C113.49 19.7257 110.515 20.8776 108.694 21.2821C107.714 21.4997 106.456 21.6262 105.44 21.6262H105.005ZM150.5 13.096C150.5 6.01754 144.075 0.526215 136.183 0.526215C128.541 0.526215 121.827 5.76396 121.827 12.7148C121.827 19.2686 127.1 24.5196 134.203 25.3523V21.3872C129.556 20.6217 126.044 17.15 126.044 12.9747C126.044 8.23831 130.56 4.39603 136.129 4.39603C141.7 4.39603 146.215 8.23831 146.215 12.9747C146.215 17.1177 142.758 20.5662 138.165 21.3682V25.3417C144.98 24.5132 150.5 19.4581 150.5 13.096Z" fill="#A6CCE5"/>
</svg>
