<svg width="101" height="14" viewBox="0 0 101 14" fill="none" xmlns="http://www.w3.org/2000/svg">
<path fill-rule="evenodd" clip-rule="evenodd" d="M100.498 11.6498C100.494 11.6354 100.49 11.6192 100.467 11.6046C100.326 11.495 99.7794 11.7349 99.519 11.7777C98.6453 11.9216 98.0171 11.2691 97.7818 10.7388C97.6144 10.3617 97.58 9.8715 97.4899 9.28954C97.4567 9.05673 97.4396 8.70666 97.4141 8.38976C97.3836 7.99153 97.4059 7.34679 96.9513 7.25293C96.259 7.13275 96.3661 8.28828 96.2913 8.99972C96.1902 10.0234 95.8419 10.8945 94.9524 11.2432C94.4892 11.4249 93.9741 11.4463 93.6097 11.1604C92.9725 10.6606 93.0027 9.68523 93.0028 8.57071C92.9974 8.05631 92.9928 7.54183 92.9876 7.0275C92.9876 6.59281 92.8905 5.7298 93.071 5.45405C93.3063 5.09476 94.0835 5.30418 94.4972 5.12284C94.6171 5.07029 94.7783 4.96212 94.7324 4.75392C94.6037 4.17128 93.5431 4.59489 93.1393 4.28722C92.647 3.91215 93.2841 2.41226 92.616 2.14167C92.4013 2.05473 92.1957 2.18406 92.1077 2.29977C91.8975 2.57582 91.9559 3.16547 91.9559 3.64726C91.9559 3.83991 91.9598 4.0234 91.9028 4.1592C91.8587 4.26399 91.7589 4.35662 91.6525 4.40009C91.4797 4.47087 91.2901 4.4581 91.0456 4.46033L89.9989 4.49049C89.7761 4.49057 89.5203 4.52503 89.3237 4.47541C88.4484 4.25445 89.4674 2.12282 88.3829 2.11905C88.1457 2.15036 88.0627 2.25046 87.9886 2.45788C87.8139 2.94612 88.0652 3.76789 87.8672 4.24206C87.6649 4.72677 86.7919 4.38362 86.4714 4.8594C86.4285 4.92311 86.3716 5.02851 86.3955 5.153C86.5276 5.83913 87.5368 5.38897 87.814 5.83043C87.9889 6.10895 87.9286 6.92971 87.9179 7.36941C87.8836 8.75021 87.8701 9.69862 87.3514 10.5431C87.2393 10.7255 87.1206 10.917 86.9568 11.0475C86.8216 11.1554 86.6739 11.2642 86.5017 11.3335C86.2955 11.4166 85.9763 11.4425 85.7508 11.3637C84.9134 11.0713 84.8968 9.60391 84.8446 8.53617C84.8133 7.98668 84.9241 7.33864 84.3929 7.25293C83.7903 7.15599 83.7379 8.13248 83.6343 8.60049C83.4034 9.64276 82.7877 11.1758 81.7337 11.3938C81.0847 11.528 80.7127 11.0683 80.5967 10.6059C80.539 10.3767 80.5316 10.1435 80.5211 9.81187C80.5439 9.33486 80.6233 8.72244 80.6453 8.3446C80.6991 7.55468 80.5414 7.14683 80.0611 7.23793C79.6472 7.3164 79.6202 7.7731 79.5157 8.24781C79.2502 9.5639 79.3506 11.5746 80.1483 12.2069C80.3074 12.333 80.484 12.4492 80.6945 12.523C81.5978 12.8397 82.5305 12.3214 83.0349 11.9434C83.2848 11.7561 83.6299 11.454 84.1045 11.5745C84.7797 11.7458 84.9947 12.4053 85.7279 12.5531C86.1065 12.6295 86.4247 12.4612 86.6458 12.3273C87.0501 12.0827 87.3598 11.7882 87.9203 11.6949C88.223 11.6446 88.4872 11.7887 88.6637 11.8832C89.0907 12.1117 89.4308 12.427 89.9836 12.523C90.2935 12.5768 90.5625 12.4431 90.7345 12.3423C91.1448 12.1024 91.4635 11.7572 92.009 11.6648C92.2911 11.617 92.5286 11.7519 92.6841 11.8455C93.064 12.0741 93.3366 12.4005 93.8296 12.5155C94.7155 12.722 95.5904 11.9343 96.1661 11.6875C96.418 11.5794 96.7654 11.5765 96.9929 11.71C97.2207 11.8437 97.4016 12.0352 97.615 12.1843C98.0056 12.4571 98.7209 12.6578 99.3824 12.4929C99.5845 12.4425 99.7701 12.3672 99.9286 12.2746C100.082 12.1849 100.537 11.8661 100.498 11.6498ZM91.9483 6.47802C91.946 6.76145 91.9506 7.04304 91.9478 7.32664C91.9478 7.54114 91.9478 7.70247 91.9463 7.93136C91.9375 8.42515 91.9214 9.12374 91.7967 9.62476C91.6754 10.1118 91.4512 10.4649 91.1822 10.7991C90.9708 11.0619 90.5907 11.4138 90.0747 11.2884C88.7052 10.9554 88.8834 9.17167 88.8834 7.49436C88.8834 7.02712 88.8536 5.95407 89.043 5.70249C89.2982 5.36365 90.4566 5.40343 90.918 5.36973C91.0419 5.36219 91.1949 5.37127 91.3188 5.36381C92.0375 5.35996 91.9485 5.81589 91.9484 6.47794L91.9483 6.47802ZM96.7895 4.10688C96.4881 4.14943 96.3369 4.28568 96.2479 4.5812C96.1279 5.0102 96.5275 5.4816 96.9729 5.40328C97.7666 5.26363 97.7348 4.06503 96.7895 4.10688ZM78.0966 8.29766C78.2032 7.88305 78.2975 7.11429 78.268 6.51041C78.2275 5.9213 78.1587 5.4549 78.0739 5.12068C77.9125 4.48495 77.7123 3.89338 77.4138 3.38921C76.1615 1.2742 73.9951 0.0331185 70.5031 0.0768959C70.2943 0.0812044 70.2097 0.0844357 69.9949 0.106901C69.6289 0.145909 69.3678 0.187224 69.0543 0.227386C68.0001 0.412266 66.8114 0.616381 65.8455 0.987682C65.5167 1.11417 65.188 1.21372 64.8973 1.3716C64.8027 1.42307 64.6237 1.51593 64.6545 1.68035C64.7052 1.95001 65.1374 1.83069 65.3449 1.77821C65.9341 1.62903 66.7636 1.31905 66.7938 2.09443L66.9455 6.19727L66.9758 7.42442L67.0061 9.03534V9.51712C67.0166 10.1465 66.9706 11.0393 67.431 11.2336C67.691 11.3433 67.846 11.1094 67.9164 10.9475C68.0786 10.5747 68.1126 10.2431 68.1532 9.61737C68.1582 9.47427 68.1617 9.32139 68.1667 9.17837C68.1769 8.7142 68.187 8.24989 68.1971 7.78572L68.2426 4.90234L68.2579 3.45699V3.08053C68.2604 2.78694 68.2557 2.4895 68.2583 2.19591C68.2583 2.00126 68.2487 1.79537 68.2881 1.62765C68.326 1.46692 68.4066 1.34106 68.5309 1.26627C68.83 1.08624 70.0678 1.02192 70.6821 1.08339C71.126 1.13471 71.4485 1.19611 71.8155 1.28889C73.1407 1.62372 74.2734 2.24061 75.0092 3.1634C75.4125 3.66926 75.7616 4.2446 75.9802 4.9325C76.1039 5.32157 76.1957 5.65409 76.2398 6.07132C76.3652 7.15822 76.178 8.39253 75.9119 9.07296C75.0653 11.2378 73.4451 12.2534 70.9584 12.792C70.5212 12.8884 70.0522 12.9139 69.7371 12.935L69.1984 12.9501H68.6219C68.3894 12.9401 68.1808 12.9417 67.924 12.9199C67.3729 12.8797 66.4772 12.7645 65.9437 12.6856C65.7286 12.6579 65.3608 12.5725 65.2614 12.6414C65.2468 12.6536 65.2317 12.6706 65.2387 12.7016C65.2587 12.8222 65.6041 12.9348 65.7931 13.0078C66.315 13.2097 66.8791 13.3145 67.484 13.4469C70.59 14.0794 73.7325 13.213 75.4871 11.9864C76.737 11.1126 77.6621 9.98698 78.0966 8.29766ZM59.9933 10.1493C60.3918 8.85969 59.5113 7.8522 58.6506 7.51452C58.0046 7.26109 56.9064 7.24416 56.2611 7.50705C56.1339 7.55883 55.6946 7.75202 55.7983 7.94367C55.8486 8.04246 56.0465 8.01561 56.1625 7.98891C56.4824 7.91498 56.92 7.81888 57.3231 7.89097C58.2657 8.05946 59.1016 8.71759 58.7341 9.9085C58.6791 10.0866 58.595 10.2622 58.4989 10.4053C58.1132 10.9803 56.9096 11.6601 55.8438 11.3464C55.2021 11.1574 54.703 10.7436 54.5088 10.1118C54.3647 9.64322 54.3712 8.86646 54.4556 8.32759C54.5195 7.99984 54.4231 7.75725 54.1674 7.81573C53.8294 7.89297 53.6642 8.83307 53.5302 9.17075C53.1914 10.0241 52.7 10.9303 51.6792 11.098C51.2115 11.1748 50.973 10.711 50.8524 10.4204C50.5795 9.76255 50.4914 8.93086 50.3138 8.1771C50.2215 7.78564 50.1897 7.36464 49.7903 7.28117C49.4755 7.21538 49.2338 7.42442 49.1076 7.5823C48.7462 8.03508 48.5387 8.65065 48.1897 9.11805C48.057 9.29577 47.8244 9.57775 47.4615 9.50958C46.8293 9.39079 46.7102 8.51593 46.4982 7.97383C46.4097 7.74771 46.2605 7.26755 45.9064 7.33387C45.2847 7.45035 45.0778 8.70943 44.8065 9.23853C44.6877 9.47011 44.4451 9.84141 44.0404 9.67515C43.3119 9.37586 43.7298 7.56976 42.9252 7.37903C42.4393 7.26393 42.141 7.85904 41.977 8.18456C41.6712 8.82468 41.3517 9.5819 40.9452 10.1871C40.7704 10.4475 40.5541 10.7397 40.1866 10.8044C39.7538 10.8805 39.5761 10.4641 39.466 10.2021C39.2345 9.65015 39.1429 8.98756 39.0186 8.32013C38.9423 7.91121 38.9742 7.51636 38.6771 7.33379C38.2452 7.06866 37.9231 7.55945 37.6911 7.74041C37.1918 8.1294 36.641 8.43446 36.0752 8.76421C35.9117 8.85954 35.5877 9.09189 35.309 9.0428C34.9861 8.98587 34.8104 8.74444 34.596 8.57595C34.1892 8.25658 33.8143 7.90659 33.443 7.55222C33.2343 7.35295 32.9775 6.96241 32.6388 6.98003C32.5399 6.99442 32.485 7.01496 32.4189 7.05543C32.1641 7.21069 32.055 7.57237 31.8955 7.82319C31.6442 8.21819 30.8462 9.07304 30.3327 9.16321C29.9952 9.2226 29.7328 8.87646 29.5817 8.72659C29.08 8.22865 28.6517 7.74871 27.9811 7.40919C27.7374 7.28571 27.2468 7.06697 26.9191 7.26609C26.6563 7.42588 26.6552 8.18133 26.5398 8.50824C26.22 9.41495 25.7146 10.4044 25.0303 10.9474C24.7817 11.1446 24.4185 11.4689 23.9151 11.3464C23.0498 11.1359 22.8602 10.0954 22.6483 9.16321C22.5492 8.70435 22.5123 7.92236 22.1476 7.83827C21.8489 7.76941 21.7898 8.07093 21.7531 8.28251C21.7106 8.52871 21.7244 8.7299 21.7304 9.09543L21.7152 9.55474C21.6921 9.93397 21.652 10.1366 21.5483 10.3753C21.2403 11.084 20.1537 11.8437 19.0024 11.6694C18.7406 11.6297 18.5408 11.593 18.332 11.512C17.6957 11.2654 17.324 10.7841 17.2017 10.0214C17.1627 9.77871 17.2282 9.52843 17.2851 9.36648C17.5715 8.55302 18.3882 8.23042 19.265 8.20718C19.5945 8.15517 20.5794 8.30243 20.6911 8.07916C20.775 7.87505 20.3922 7.70948 20.2739 7.65008C19.7759 7.3995 18.901 7.23369 18.1802 7.40165C17.1964 7.63092 16.4021 8.19118 16.0335 9.02772C15.5613 10.0992 16.2297 11.3809 16.8527 11.8734C17.6351 12.4918 18.9154 12.8264 20.2207 12.4381C20.8741 12.2436 21.3664 11.8866 22.0642 11.768C22.2427 11.7375 22.4356 11.7841 22.5573 11.8207C23.1972 12.0131 23.7959 12.7795 24.6737 12.5133C24.9578 12.4271 25.2122 12.2845 25.4323 12.1294C26.0093 11.7228 26.4895 11.1357 26.7902 10.458C26.9782 10.0341 27.1327 9.50066 27.3742 9.11805C27.5176 8.89124 27.8312 8.74682 28.1405 8.92232C28.2692 8.99585 28.3889 9.0843 28.4969 9.18583C28.5959 9.27885 28.71 9.37217 28.77 9.50204C28.8488 9.6723 28.8026 9.86496 28.7094 9.98382C28.6086 10.1123 28.4331 10.1955 28.2997 10.2925C28.0509 10.4732 27.8022 10.6958 27.6171 10.9398C27.1867 11.5069 27.2658 12.0491 27.8522 12.3929C28.764 12.9272 30.9449 13.0224 31.2203 11.8809C31.3224 11.4573 31.1166 11.032 30.9928 10.7517C30.9305 10.6109 30.7933 10.4147 30.8561 10.1871C30.9227 9.94612 31.1488 9.82356 31.3265 9.69023L32.4567 8.75667C32.6239 8.62749 32.8364 8.60172 33.0408 8.68143C33.2114 8.74782 33.3398 8.86469 33.4732 8.96748C33.6267 9.08566 34.0089 9.35886 33.9436 9.66761C33.9002 9.8728 33.7196 9.97698 33.5719 10.0817C33.1715 10.3657 32.0833 11.2372 32.6843 11.9186C32.7943 12.0433 32.9461 12.1487 33.0939 12.2348C33.3664 12.3931 33.7017 12.4965 34.0497 12.5735C35.1101 12.8081 36.2892 12.5328 36.4999 11.7078C36.7047 10.9062 35.6742 10.2869 36.4621 9.77302L36.8718 9.56228C37.0464 9.48558 37.2719 9.33409 37.5621 9.38902C38.0691 9.48519 38.112 10.0436 38.2827 10.4731C38.5494 11.1447 39.0032 12.2951 39.6937 12.5058C40.0537 12.6155 40.3554 12.3996 40.5432 12.2572C41.0884 11.8443 41.4569 11.2115 41.8633 10.6613C42.0011 10.4745 42.2908 10.0238 42.6521 10.0892C43.2501 10.1976 43.301 11.3914 43.479 11.9562C43.5529 12.1909 43.6386 12.4646 43.881 12.5282C44.2165 12.6165 44.4483 12.1198 44.541 11.911C44.8073 11.3108 45.1539 9.96613 45.7775 9.79564C46.062 9.71785 46.2644 9.89581 46.3692 10.0516C46.693 10.5329 46.6005 11.4787 46.8091 12.0616C46.8873 12.2799 47.0558 12.6231 47.4084 12.5509C47.8076 12.4693 47.9059 11.9103 48.0229 11.5421C48.2241 10.9088 48.4402 10.1442 49.0849 9.95366C49.5572 9.81418 49.7311 10.2471 49.8435 10.5333C50.1189 11.2346 50.2373 12.2225 50.9283 12.5058C51.2707 12.6461 51.7166 12.5201 51.9676 12.3929C52.5745 12.085 52.9062 11.5297 53.6895 11.3991C53.9103 11.3623 54.1122 11.4606 54.2433 11.527C54.6239 11.7198 54.9232 11.9997 55.2901 12.2122C56.3243 12.8112 57.7313 12.5367 58.5748 11.9787C59.2053 11.5617 59.7477 10.9444 59.9933 10.1494L59.9933 10.1493ZM29.5969 12.039C29.0991 12.1774 28.2951 11.8863 28.4287 11.369C28.5301 10.9761 29.0552 10.7409 29.2783 10.7366C29.9845 10.7408 30.3321 11.8346 29.5969 12.039ZM35.2483 11.5948C35.1594 11.7879 34.9354 11.89 34.6946 11.9337C34.2017 12.0229 33.4778 11.6723 33.6857 11.1657C33.823 10.8311 34.3275 10.632 34.505 10.6236C34.6372 10.5975 34.7216 10.6219 34.8008 10.6539C35.0662 10.7607 35.4287 11.2033 35.2483 11.5948ZM38.7457 4.23267C38.4442 4.2753 38.293 4.41147 38.204 4.70699C38.0841 5.13599 38.4836 5.60731 38.9289 5.52899C39.7226 5.38935 39.6908 4.19074 38.7457 4.23267ZM14.4521 12.1775L14.3914 11.1537L14.3534 10.3783C14.1916 7.73856 14.0298 5.64863 13.8679 3.00906C13.716 1.41645 13.5806 0.773488 13.3558 0.505822C13.1288 0.21246 12.7932 0.180377 12.0055 0.227309C11.7679 0.244081 11.5375 0.258545 11.3759 0.385415C11.0703 0.609534 10.7052 1.83684 10.5088 2.33863C9.88436 4.05741 9.26947 5.78081 8.64497 7.49951C8.38323 8.16695 8.17065 8.851 7.90152 9.50204C7.77819 9.80056 7.65663 10.1599 7.30226 10.2247C6.99259 10.2813 6.85602 10.0066 6.77885 9.81818C6.64344 9.21237 6.53158 8.56348 6.39201 7.83073L5.54993 2.7944C5.45145 2.20299 5.26919 1.07285 5.0266 0.867197C4.82887 0.643463 3.92755 0.550523 3.45623 0.694011C2.77595 0.901204 2.75641 2.0825 2.52321 2.93743C2.07774 5.14038 0.67479 11.945 0.528224 12.5799C0.461519 12.8821 0.512452 13.2214 0.687408 13.3553C0.907141 13.5235 1.30714 13.4899 1.50664 13.3327C1.79054 13.1167 1.88055 12.3679 1.9895 11.8393C2.35372 9.99421 2.7601 7.57037 3.07524 5.75165C3.21757 5.10999 3.27027 4.21705 3.79768 4.25483C4.33101 4.28122 4.35248 5.19808 4.5789 6.29498C4.61714 6.53333 5.06953 8.84469 5.31481 10.1193C5.46461 10.8604 5.55501 11.511 5.81221 12.0396C6.06264 12.5212 6.7073 12.8791 7.36296 12.6112C8.0831 12.3167 8.30168 11.3555 8.59188 10.6312L10.6477 5.33142L11.3455 3.49453C11.43 3.29296 11.5634 2.99829 11.884 3.00521C12.4771 2.95343 12.5352 4.16504 12.6391 5.68902C12.72 7.95483 12.8009 9.67092 12.8818 11.9366C12.9223 12.9631 12.7932 13.9109 13.7314 13.924C13.8378 13.9254 13.9217 13.9198 14.0045 13.894C14.5622 13.7195 14.4982 12.9695 14.4521 12.1775Z" fill="#A6CCE5"/>
</svg>
