<svg width="151" height="24" viewBox="0 0 151 24" fill="none" xmlns="http://www.w3.org/2000/svg">
<path d="M68.9527 19.5565C68.0156 19.7399 66.9986 19.6198 66.1841 19.0994C65.2331 18.5223 64.5991 17.4881 64.4783 16.3848C64.4633 16.1601 64.4625 15.9346 64.4761 15.7098C64.615 14.4413 65.5665 13.2799 66.8221 12.9881C68.365 14.6845 69.9077 16.379 71.4593 18.0665C70.8259 18.8317 69.9241 19.362 68.9527 19.5565ZM75.9188 17.4061C75.9717 16.7101 76.0214 16.0057 76.2459 15.3378C76.5095 14.497 76.9753 13.6269 77.8056 13.2343C77.9754 13.1833 78.1513 13.1464 78.3281 13.1305C78.3299 12.9706 78.32 12.8083 78.3604 12.6513C78.3124 12.4316 78.3798 12.2077 78.3564 11.9851C78.3241 11.651 78.3282 11.3153 78.3376 10.9802C78.3622 10.5624 78.3036 10.1353 78.3604 9.72099C78.3358 9.61602 78.3281 9.51005 78.3259 9.40396C77.2947 9.39406 76.2657 9.68116 75.3782 10.202C74.0404 10.9873 73.0284 12.326 72.6751 13.8425C70.6799 11.6904 68.723 9.50352 66.7332 7.34791C66.31 6.87147 66.1225 6.21177 66.204 5.58357C66.33 4.90452 66.7584 4.27812 67.3846 3.96829C67.8025 3.73857 68.2947 3.70335 68.7598 3.76197C69.4765 3.87975 70.0965 4.38949 70.3906 5.04931C71.4979 4.47443 72.6293 3.94309 73.7322 3.35539C73.541 2.9973 73.3418 2.64101 73.091 2.32106C71.9896 0.86565 70.1831 -0.0425633 68.3521 0.00153672C66.2344 -0.0344633 64.1737 1.2108 63.1765 3.0711C62.5448 4.21669 62.3104 5.57614 62.5279 6.86573C62.7194 8.06802 63.2966 9.20472 64.1543 10.0667C63.1612 10.655 62.3105 11.487 61.7152 12.4772C61.0308 13.6052 60.6904 14.9335 60.7295 16.2506C60.7712 17.5496 61.1555 18.8405 61.8523 19.9391C62.8916 21.612 64.6366 22.826 66.5673 23.2204C67.5505 23.4255 68.5712 23.4137 69.5609 23.2526C71.2467 22.9414 72.8116 22.0819 74.0052 20.8543C74.5027 21.4274 75.0272 21.9764 75.535 22.5407C77.2237 22.5378 78.913 22.5477 80.6023 22.536C79.0344 20.8327 77.4774 19.1188 75.9188 17.4061ZM8.84006 12.0976C8.20724 12.7731 7.31433 13.1598 6.40139 13.2624C5.74518 13.2899 5.08829 13.2694 4.43151 13.2753V4.21084C5.20203 4.23019 5.98717 4.14402 6.74238 4.3356C7.65476 4.53597 8.50199 5.03581 9.09138 5.76301C10.5539 7.55412 10.4421 10.4294 8.84006 12.0976ZM13.7649 6.7691C13.3459 4.94209 12.3053 3.24402 10.7942 2.12059C9.34867 1.03103 7.52819 0.501375 5.72943 0.493162C3.98613 0.493725 2.24305 0.493162 0.500422 0.493162C0.499859 7.84313 0.499859 15.1913 0.500422 22.5408H4.43151C4.43151 20.701 4.43084 18.8605 4.43151 17.0212C5.3719 17.0031 6.3205 17.0752 7.25448 16.9346C8.78561 16.7195 10.247 16.0234 11.3643 14.954C12.8625 13.5437 13.7713 11.5556 13.9583 9.51601C14.0052 8.59666 13.9904 7.66662 13.7649 6.7691ZM29.4704 0.493612C30.7922 0.49305 32.1142 0.494737 33.436 0.49305C33.4449 0.61545 33.4525 0.737963 33.4559 0.860925C33.4531 1.10471 33.4541 1.3485 33.4531 1.59341C33.4535 1.8372 33.4553 2.08155 33.4531 2.32579C33.4531 2.68095 33.4553 3.036 33.4531 3.39105C33.4535 3.50243 33.4535 3.6138 33.4542 3.72518C33.4384 4.25775 33.4617 4.79089 33.4531 5.32414C33.4589 6.05719 33.4384 6.78946 33.4531 7.52195C33.4564 8.65516 33.4535 9.7877 33.4531 10.9198C33.4535 11.119 33.4531 11.3183 33.4553 11.5192C33.4412 11.7635 33.4412 12.0085 33.4553 12.2528C33.4531 12.4303 33.4535 12.6073 33.4535 12.7849C33.4273 13.5583 33.4906 14.3329 33.4096 15.1046C33.2954 16.4394 32.9315 17.7635 32.2664 18.9296C31.5861 20.1367 30.5755 21.1544 29.3684 21.8347C28.0214 22.5988 26.461 22.945 24.9194 22.945C23.2043 22.9637 21.46 22.5535 20.0039 21.6267C18.603 20.746 17.5218 19.3907 16.9242 17.8515C16.4285 16.6045 16.2375 15.2527 16.2474 13.9169C16.2481 9.44266 16.2474 4.96842 16.2474 0.493612C17.5793 0.49305 18.9112 0.49305 20.243 0.49305C20.2436 5.05921 20.243 9.62424 20.2436 14.1894C20.2835 15.4696 20.5589 16.8219 21.416 17.8164C22.1174 18.6483 23.1879 19.0919 24.2573 19.1756C25.3718 19.2852 26.5618 19.1347 27.5239 18.527C28.2967 18.0407 28.8271 17.2421 29.1071 16.3848C29.3221 15.7655 29.4013 15.1104 29.4545 14.4606C29.4891 12.8581 29.4598 11.2555 29.4692 9.6518C29.4692 6.60034 29.4693 3.5463 29.4704 0.493612ZM48.4852 0.497662C49.8083 0.489 51.1313 0.495412 52.4531 0.49305C52.4543 6.57694 52.4531 12.6588 52.4543 18.7409C54.7173 18.7438 56.9813 18.7345 59.2448 18.745C59.243 20.0095 59.2437 21.2733 59.2448 22.5378C55.6578 22.5436 52.0718 22.5436 48.4858 22.5378C48.4858 15.1913 48.4858 7.84415 48.4852 0.497662ZM92.287 16.6544C92.1875 17.1764 91.9044 17.6687 91.4814 17.9938C90.9785 18.3952 90.3506 18.5957 89.7282 18.7069C88.5341 18.9044 87.32 18.8024 86.1154 18.8282C86.1171 16.9157 86.1143 15.0026 86.1171 13.0907C87.0154 13.0966 87.913 13.075 88.8107 13.1053C89.6814 13.1598 90.5906 13.2916 91.328 13.788C91.8505 14.1249 92.205 14.6962 92.2987 15.3085C92.3673 15.7549 92.3633 16.2093 92.287 16.6544ZM86.1154 4.08777C86.999 4.10014 87.8896 4.03962 88.7657 4.19205C89.3943 4.30815 90.0352 4.55599 90.46 5.05516C90.8614 5.53441 90.9939 6.18016 90.9787 6.79182C90.9939 7.48617 90.7637 8.2163 90.2362 8.6879C89.6796 9.17952 88.9255 9.36999 88.2019 9.42275C87.5058 9.43794 86.8114 9.425 86.1154 9.42916V4.08777ZM95.7804 13.2127C95.2403 12.0888 94.2763 11.1952 93.1613 10.6537C93.1658 10.6318 93.1697 10.6097 93.173 10.5876C93.9862 9.87916 94.5752 8.91177 94.8025 7.85472C94.9735 7.08657 94.9344 6.28962 94.8124 5.51686C94.6554 4.76344 94.3729 4.03152 93.9453 3.38948C93.3282 2.4582 92.4453 1.71356 91.4433 1.22498C90.6377 0.849225 89.753 0.692288 88.8769 0.5862C88.3437 0.548737 87.8116 0.505312 87.2783 0.495862C85.5751 0.48945 83.8701 0.495412 82.1651 0.49305V22.5407C84.6699 22.5283 87.1747 22.5666 89.6779 22.5214C91.455 22.3749 93.2263 21.6905 94.5106 20.4295C95.5086 19.4804 96.1824 18.1901 96.3487 16.8202C96.4719 15.5984 96.3241 14.3243 95.7804 13.2127ZM98.4844 0.49305C103.001 0.49305 107.517 0.49305 112.032 0.493612C112.03 1.73291 112.038 2.97199 112.028 4.2114C108.834 4.21377 105.639 4.20375 102.444 4.21669C102.446 5.95261 102.446 7.68852 102.444 9.42444C105.477 9.43625 108.509 9.42624 111.541 9.42916C111.542 10.6498 111.541 11.8708 111.542 13.0896C108.51 13.0936 105.478 13.0867 102.446 13.0936C102.444 15.0026 102.447 16.9128 102.444 18.8224C105.639 18.8359 108.835 18.8242 112.032 18.8282C112.033 20.0663 112.032 21.3027 112.032 22.5407H98.4844V0.49305ZM121.003 13.0761C121.887 10.8601 122.776 8.64639 123.648 6.42575C124.529 8.64054 125.397 10.8617 126.286 13.0748C124.525 13.0805 122.764 13.081 121.003 13.0761ZM125.227 0.543337C125.205 0.427237 125.066 0.454237 124.985 0.448387C124.092 0.45075 123.198 0.45075 122.306 0.448387C122.222 0.458287 122.096 0.424425 122.054 0.5187C119.06 7.85866 116.061 15.1982 113.069 22.5388C114.491 22.5435 115.914 22.5406 117.336 22.5406C118.08 20.6299 118.82 18.7167 119.562 16.8053C122.283 16.8071 125.003 16.8053 127.723 16.8071C128.465 18.7185 129.199 20.6333 129.947 22.5417C131.463 22.5377 132.979 22.5447 134.495 22.5377C131.407 15.2058 128.316 7.87463 125.227 0.543337ZM145.093 8.72311C144.89 9.44086 144.41 10.076 143.766 10.4539C142.832 11.0164 141.708 11.1541 140.636 11.153C140.22 11.1512 139.805 11.1512 139.391 11.1512V4.21084C140.52 4.21602 141.668 4.14694 142.773 4.44462C143.247 4.58457 143.718 4.76682 144.119 5.06337C144.634 5.42371 144.994 5.98092 145.146 6.58741C145.317 7.28761 145.286 8.03112 145.093 8.72311ZM148.408 18.9401C147.478 17.1847 146.589 15.4052 145.777 13.5917C146.413 13.2343 147.003 12.7907 147.508 12.2605C148.15 11.6083 148.607 10.7956 148.909 9.93429C149.533 7.9931 149.466 5.76121 148.447 3.96424C147.983 3.15199 147.317 2.46056 146.534 1.9479C145.357 1.16096 143.963 0.7707 142.572 0.5844C142.082 0.5457 141.594 0.487762 141.103 0.49305C139.209 0.495412 137.316 0.490012 135.422 0.495862C135.424 7.8437 135.424 15.1913 135.422 22.5389C136.747 22.5418 138.068 22.5436 139.391 22.5389V15.1346C139.517 15.1328 139.644 15.1317 139.773 15.1257C140.098 15.0784 140.429 15.1005 140.756 15.0566C141.093 15.0285 141.424 14.9617 141.762 14.9441C141.903 15.3133 142.084 15.6648 142.247 16.0235C143.274 18.2347 144.383 20.4071 145.571 22.5361C147.215 22.5467 148.856 22.542 150.5 22.5379C149.756 21.366 149.064 20.1613 148.408 18.9401ZM36.1254 0.49305H40.0852C40.0852 6.57571 40.084 12.6588 40.0852 18.7409H46.868C46.868 20.0077 46.8686 21.2751 46.868 22.5407H36.1254C36.1248 15.1924 36.1254 7.84313 36.1254 0.49305Z" fill="#A6CCE5"/>
</svg>
