<svg width="101" height="50" viewBox="0 0 101 50" fill="none" xmlns="http://www.w3.org/2000/svg">
<path d="M54.3959 0.253893C54.0687 0.304358 53.7542 1.50909 53.1219 2.13668C52.6595 2.58963 52.0823 2.56129 51.7757 3.12126C51.6593 3.33046 51.697 3.68755 51.565 4.03042C51.307 4.71616 50.398 4.77746 50.398 5.52462C50.3949 6.3315 51.1561 6.4856 51.815 7.05811C52.3293 7.51895 52.3797 7.83665 53.0024 8.05996C53.5341 8.24093 54.3251 7.64946 55.0375 7.86182C55.6226 8.03647 56.1825 8.16224 56.3146 8.76308C56.4309 9.31673 56.3067 10.1754 55.5975 10.0764C55.3584 10.0497 54.3219 9.70047 53.0481 9.83572C51.5114 10.0104 49.7578 10.512 49.5865 12.225C49.4921 13.1828 50.6763 14.3121 51.8197 14.0825C52.6108 13.9267 52.2365 12.9941 52.6674 12.5411C53.232 11.9608 56.4309 14.5669 59.405 14.5669C60.6569 14.5669 61.5879 14.2508 62.5128 13.2819C62.5992 13.208 62.7046 13.0491 62.8383 13.0396C62.9641 13.0491 63.1843 13.1733 63.2566 13.2268C65.6519 15.1519 67.4621 19.0134 76.2647 19.059C77.5024 19.0652 78.9131 19.6567 80.0643 20.7073C81.0914 21.6573 81.6922 23.1341 82.2756 24.6331C83.1564 26.8823 84.7355 29.0702 87.129 31.5049C87.2596 31.6354 89.2302 33.1674 89.3875 33.2822C89.4127 33.2979 89.5574 33.644 89.5071 33.8374C89.4489 35.297 89.2366 39.5421 92.4008 39.734C93.1747 39.7733 92.9717 39.2291 92.9717 38.8547C92.9702 38.1155 92.8349 37.381 93.225 36.6245C93.7581 35.5833 92.0942 35.1035 92.143 32.8528C92.1775 31.1746 90.7683 31.4608 90.0527 30.1821C89.6407 29.4413 89.2743 29.0481 89.301 28.142C89.4614 23.043 88.2158 19.6928 87.5946 18.8702C87.1103 18.2489 86.7092 18.002 87.1526 17.7141C89.7933 15.9699 90.3925 14.3466 90.3925 14.3466C91.7969 11.0453 93.0599 8.03004 94.8008 6.7027C95.1516 6.42893 96.0512 5.75741 96.6032 5.49312C98.2278 4.72711 99.0834 4.26322 99.5553 3.80384C100.302 3.07565 100.892 1.55786 100.176 0.637744C99.2863 -0.497891 97.7466 0.403369 97.0672 0.805961C92.2122 3.68755 91.4966 8.77087 89.8152 11.6902C88.4738 14.0226 86.2924 15.7355 84.3423 15.8755C82.8796 15.984 81.3037 15.6883 79.7341 14.9994C75.9171 13.3259 73.8285 11.1649 73.3363 10.7827C72.3108 9.99152 64.3496 2.17597 57.8998 1.8567C57.8998 1.8567 57.0995 0.254006 56.8981 0.227249C56.4262 0.167413 55.9435 1.18507 55.5975 1.30316C55.2719 1.41154 54.7246 0.200492 54.3959 0.254006V0.253893ZM26.0018 46.8999C25.3947 46.8857 24.8789 46.3871 24.8789 45.7706L24.8805 25.6507H18.2499V47.8294C18.2499 48.9163 19.1305 49.8034 20.211 49.8034H31.8005C32.8887 49.8034 33.7585 48.9163 33.7585 47.8294V25.6507H27.1342L27.1279 45.7706C27.1279 46.3871 26.612 46.8857 26.0018 46.8999ZM38.1669 25.6507C36.9795 25.6507 36.0123 26.6164 36.0123 27.8165V49.8033H42.649V29.6349C42.6537 29.0168 43.1538 28.5276 43.7704 28.5276C44.3901 28.5276 44.887 29.0057 44.9011 29.6176V49.8034H51.5113V29.6174C51.5192 29.0056 52.0162 28.5275 52.6342 28.5275C53.2477 28.5275 53.7541 29.0166 53.7588 29.6348V49.8034H60.3957V27.8165C60.3957 26.6164 59.4269 25.6507 58.2395 25.6507H38.1669ZM9.37646 29.6772C9.3812 29.0056 8.83391 28.5275 8.25355 28.5275H7.12748V40.7437H8.25355C8.83865 40.7437 9.38131 40.2782 9.37646 39.6098V29.6772ZM13.8257 43.7337H7.12748V49.8034H0.5V25.6507H13.8683C15.065 25.6507 15.9992 26.6228 15.9992 27.826V41.5585C15.9992 42.7634 15.0289 43.7337 13.8257 43.7337ZM83.1391 44.4022C81.807 44.4022 80.6887 45.5535 80.6887 46.9487C80.6887 48.3485 81.807 49.4904 83.1815 49.4904C84.5451 49.4904 85.6492 48.3485 85.6492 46.9487C85.6492 45.5504 84.5451 44.4022 83.1814 44.4022H83.1391ZM86.1241 46.9408C86.1241 48.5812 84.8093 49.9151 83.1815 49.9151C81.5364 49.9151 80.2154 48.5908 80.2154 46.9408C80.2154 45.3223 81.5364 43.9697 83.1328 43.9697C84.8093 43.9697 86.1241 45.2815 86.1241 46.9408Z" fill="#A6CCE5"/>
<path d="M82.8748 46.752C83.3356 46.752 83.5779 46.5884 83.5779 46.2614C83.5779 45.9703 83.3435 45.821 82.8953 45.821H82.7632V46.752H82.8748ZM84.5719 48.6615H83.7808L82.7632 47.3073V48.6615H82.1168V45.2374H82.7962C83.7195 45.2374 84.2101 45.5866 84.2101 46.2535C84.2101 46.6985 83.9207 47.0934 83.5165 47.2113L83.4693 47.2287L84.5719 48.6615ZM71.5229 40.7485V29.627C71.5071 29.0119 71.0118 28.5401 70.3937 28.5401C69.7819 28.5401 69.2754 29.0308 69.2708 29.6442V40.7485H71.5229ZM71.5229 49.8034V43.74H69.2708V49.8034H62.6465V27.8165C62.6465 26.6164 63.6136 25.6507 64.8011 25.6507H75.9925C77.1832 25.6507 78.1504 26.6164 78.1504 27.8165V49.8033L71.5229 49.8034Z" fill="#A6CCE5"/>
</svg>
