<svg width="151" height="25" viewBox="0 0 151 25" fill="none" xmlns="http://www.w3.org/2000/svg">
<path d="M17.6328 16.2268L17.4712 13.4911H17.9806L19.6424 15.9668C19.8809 16.1198 20.158 16.2435 20.461 16.3322C20.8111 16.4365 21.1913 16.4885 21.5747 16.4844C21.9069 16.4968 22.2391 16.4613 22.5489 16.3805C22.8586 16.2997 23.1387 16.1754 23.37 16.016C23.8244 15.6584 24.0546 15.1979 24.0129 14.7301C24.0285 14.415 23.8711 14.1068 23.5703 13.8635C23.1744 13.588 22.6817 13.3828 22.1369 13.2663L20.3802 12.8189C18.5557 12.3661 17.6434 11.5494 17.6434 10.369C17.6357 9.85133 17.8825 9.34624 18.346 8.93089C18.8474 8.4896 19.5188 8.14721 20.2889 7.94014C21.179 7.69343 22.1357 7.57145 23.0995 7.58179C24.3103 7.59799 25.5007 7.79318 26.5847 8.15328L26.5355 10.5962H26.0787L24.5751 8.4156C24.0737 8.13087 23.4383 7.97253 22.7798 7.96825C22.4932 7.95928 22.2073 7.9931 21.9429 8.06726C21.6785 8.14142 21.4423 8.25403 21.2515 8.39687C20.8399 8.75174 20.6397 9.19555 20.6894 9.64291C20.6777 9.78599 20.7136 9.92902 20.7943 10.0618C20.8751 10.1946 20.9988 10.3139 21.1566 10.4111C21.5873 10.6738 22.0943 10.8747 22.6463 11.0014L24.0516 11.3761C24.9435 11.583 25.7582 11.9153 26.4406 12.3505C26.9464 12.745 27.2055 13.2539 27.1643 13.7722C27.1759 14.3449 26.9029 14.9041 26.3879 15.3625C25.8413 15.8412 25.1139 16.2147 24.2799 16.4446C23.3739 16.7048 22.3961 16.8356 21.4096 16.8287C20.0929 16.8081 18.7966 16.6072 17.6012 16.2385" fill="#A6CCE5"/>
<path d="M30.1893 16.1729C29.681 15.7794 29.4351 15.2072 29.4515 14.4561L29.5323 8.70604H27.5473V8.254L29.5323 7.84177L32.2937 5.62607H32.8559V7.89564H36.6361V8.73648H32.8559V14.7793C32.9523 15.1018 33.2317 15.3871 33.6358 15.5757C34.0745 15.7449 34.577 15.8262 35.0833 15.8099C35.6402 15.8033 36.1918 15.7369 36.7169 15.6131L36.8786 15.8286C35.6511 16.4223 34.179 16.7495 32.6626 16.7655C31.5196 16.7655 30.6928 16.5687 30.1823 16.1753" fill="#A6CCE5"/>
<path d="M38.9795 15.9949V9.45085L37.3423 8.77162V8.61235L41.9271 7.62863H42.0606L42.1941 9.97081H42.2995L42.6509 9.50238C43.0396 8.95728 43.5608 8.45871 44.1932 8.0268C44.6389 7.7611 45.2185 7.61724 45.8163 7.62395C46.2823 7.6166 46.7356 7.72514 47.0881 7.92843C47.2617 8.03083 47.3988 8.15778 47.4893 8.30001C47.5799 8.44225 47.6217 8.59617 47.6116 8.75054C47.6116 9.45475 47.0038 9.89586 45.7882 10.0739L44.13 9.17447C43.7614 9.28459 43.4393 9.45352 43.1919 9.66633C42.8339 9.93185 42.5592 10.2424 42.3839 10.5798V15.9949L44.6078 16.2619V16.5313H37.3423V16.2619L38.9795 15.9949Z" fill="#A6CCE5"/>
<path d="M55 14.8683V11.9851L53.2434 12.3786C52.6317 12.4832 52.0811 12.7076 51.6624 13.0227C51.3437 13.3338 51.1752 13.7025 51.1796 14.0792C51.184 14.456 51.3611 14.8228 51.687 15.1306C51.8595 15.2654 52.0756 15.3723 52.319 15.4433C52.5624 15.5142 52.8268 15.5475 53.0923 15.5405C53.4677 15.5357 53.8359 15.4716 54.1669 15.3535C54.4979 15.2355 54.7822 15.0668 54.9965 14.8613L55 14.8683ZM48.8588 16.201C48.5284 16.0008 48.2683 15.7545 48.097 15.4796C47.9258 15.2047 47.8476 14.908 47.8681 14.6107C47.8464 14.3017 47.9333 13.9937 48.1218 13.7111C48.3102 13.4285 48.5951 13.1791 48.9537 12.9829C49.6774 12.5894 50.8263 12.2615 52.4002 11.9991L55 11.5705V10.3807C55 9.64213 54.7939 9.07298 54.3817 8.67325C54.2014 8.4847 53.951 8.33042 53.655 8.22537C53.3589 8.12031 53.0271 8.06805 52.6918 8.07365C52.2053 8.06391 51.7268 8.1574 51.3251 8.34066L51.2197 10.629C50.7457 10.7397 50.2464 10.7944 49.7442 10.7906C49.3428 10.8041 48.9476 10.7209 48.6305 10.5564C48.49 10.4743 48.3796 10.3719 48.3078 10.257C48.2359 10.1421 48.2045 10.0178 48.2159 9.89352C48.2159 9.56093 48.4934 9.21819 49.0485 8.8653C49.6869 8.48564 50.4304 8.19284 51.2373 8.00338C52.1618 7.76927 53.1433 7.65096 54.1322 7.6544C55.5633 7.6544 56.6267 7.87222 57.3223 8.30787C58.0179 8.74351 58.3693 9.43211 58.3763 10.3737V15.2243C58.3474 15.3909 58.4153 15.5585 58.566 15.6928C58.7792 15.7871 59.0354 15.8286 59.2897 15.8099H60.4421V16.0605C60.3543 16.0956 60.1364 16.1682 59.7992 16.2736C59.4109 16.3943 59.012 16.4991 58.6046 16.5875C58.1944 16.6832 57.7639 16.7346 57.3293 16.7397C56.7408 16.7687 56.1584 16.6435 55.7062 16.3907C55.304 16.0979 55.0874 15.7126 55.1019 15.3157H54.9649C54.4997 15.7339 53.9445 16.104 53.3172 16.4142C52.6348 16.6957 51.8367 16.8267 51.0363 16.7884C50.2359 16.7501 49.4739 16.5446 48.8588 16.201Z" fill="#A6CCE5"/>
<path d="M69.5063 15.2243V9.11123C69.0051 8.56316 68.1291 8.28913 66.8784 8.28913C66.4233 8.29097 65.976 8.36786 65.5763 8.51293C65.1767 8.65801 64.837 8.86677 64.5878 9.1206C63.9811 9.67492 63.6778 10.5337 63.6778 11.697C63.6678 12.371 63.8257 13.0414 64.1451 13.6808C64.4074 14.2344 64.8737 14.7352 65.5012 15.1377C66.0708 15.4953 66.8268 15.691 67.6092 15.6834C68.2964 15.6612 68.9577 15.5012 69.5063 15.2243ZM72.8861 3.17614V15.7958L74.576 15.9387V16.201L69.9139 16.7631L69.6188 15.5921C68.4196 16.4149 67.1314 16.8264 65.7542 16.8264C64.7291 16.8397 63.7226 16.6436 62.8698 16.2643C62.0325 15.885 61.3687 15.359 60.9515 14.7442C60.4956 14.0835 60.2664 13.3634 60.2805 12.6362C60.2582 11.7354 60.6306 10.8498 61.352 10.0879C62.0517 9.35315 63.0264 8.75257 64.1802 8.34534C65.3204 7.93361 66.597 7.71862 67.8937 7.71998C68.4378 7.73124 68.9779 7.78549 69.5028 7.88159V4.66109L67.437 4.2676V4.05446L72.8861 3.17614Z" fill="#A6CCE5"/>
<path d="M77.2039 5.52769C77.0175 5.40974 76.869 5.26772 76.7675 5.11027C76.666 4.95283 76.6137 4.78326 76.6137 4.6119C76.6137 4.44054 76.666 4.27097 76.7675 4.11352C76.869 3.95608 77.0175 3.81406 77.2039 3.69611C77.3795 3.57193 77.5913 3.47298 77.8263 3.40532C78.0613 3.33765 78.3146 3.30271 78.5706 3.30262C78.8286 3.30307 79.0838 3.33814 79.321 3.40574C79.5582 3.47334 79.7726 3.57209 79.9513 3.69611C80.1396 3.81334 80.2897 3.95513 80.3924 4.11267C80.495 4.27021 80.548 4.44014 80.548 4.6119C80.548 4.78366 80.495 4.95359 80.3924 5.11113C80.2897 5.26867 80.1396 5.41046 79.9513 5.52769C79.7682 5.65179 79.5493 5.74983 79.3077 5.81585C79.0662 5.88188 78.807 5.91452 78.546 5.91181C78.2912 5.91212 78.0389 5.87828 77.8041 5.81229C77.5694 5.7463 77.3569 5.64952 77.1793 5.52769H77.2039ZM76.9615 15.9668V9.32671L75.3243 8.77396V8.55848L80.3659 7.64737V15.9668L82.1225 16.2713V16.5406H75.2716V16.2619L76.9615 15.9668Z" fill="#A6CCE5"/>
<path d="M81.3742 7.89564H88.1864V8.12049L86.363 8.42029L89.1491 13.8682L89.4723 14.5638H89.525L89.7955 14.0626L92.6659 8.50461L90.6 8.16499V7.89564H95.104V8.16499L93.7655 8.432L88.9383 16.817H87.5154L82.7689 8.45074L81.3742 8.16499V7.89564Z" fill="#A6CCE5"/>
<path d="M101.941 14.8683V11.9851L100.184 12.3786C99.5726 12.4832 99.022 12.7076 98.6033 13.0227C98.2851 13.3341 98.1172 13.7028 98.1222 14.0796C98.1273 14.4564 98.3049 14.8231 98.6314 15.1306C98.8039 15.2654 99.02 15.3723 99.2634 15.4432C99.5068 15.5142 99.7712 15.5475 100.037 15.5405C100.412 15.5359 100.78 15.4719 101.111 15.3538C101.443 15.2357 101.727 15.0669 101.941 14.8613V14.8683ZM95.7997 16.201C95.4694 16.002 95.2088 15.757 95.0364 15.4834C94.8639 15.2098 94.7839 14.9143 94.8019 14.6177C94.7797 14.3087 94.8663 14.0005 95.0548 13.7179C95.2433 13.4352 95.5285 13.1859 95.8875 12.9899C96.6113 12.5964 97.7601 12.2685 99.334 12.0062L101.937 11.5776V10.3807C101.937 9.64213 101.731 9.07298 101.319 8.67324C101.139 8.48454 100.889 8.33014 100.593 8.22506C100.296 8.11998 99.9645 8.06782 99.6292 8.07365C99.1427 8.06391 98.6641 8.1574 98.2625 8.34066L98.1571 10.629C97.6832 10.7399 97.1837 10.7946 96.6815 10.7906C96.2813 10.8035 95.8875 10.7204 95.5713 10.5564C95.4312 10.475 95.3207 10.3735 95.2483 10.2595C95.1758 10.1454 95.1433 10.0219 95.1532 9.89821C95.1532 9.56562 95.4296 9.22288 95.9824 8.86999C96.6242 8.48755 97.3727 8.19308 98.1852 8.00338C99.1097 7.76921 100.091 7.6509 101.08 7.6544C102.509 7.6544 103.573 7.87222 104.274 8.30787C104.974 8.74351 105.325 9.43211 105.328 10.3737V15.2243C105.298 15.3909 105.366 15.5586 105.517 15.6928C105.731 15.7871 105.987 15.8285 106.241 15.8099H107.393V16.0605C107.302 16.0956 107.091 16.1682 106.751 16.2736C106.362 16.3943 105.963 16.4991 105.556 16.5875C105.147 16.6832 104.718 16.7346 104.284 16.7397C103.696 16.7687 103.113 16.6435 102.661 16.3907C102.256 16.0961 102.04 15.708 102.057 15.3087H101.923C101.458 15.7267 100.903 16.0969 100.276 16.4071C99.5923 16.692 98.7914 16.8255 97.9874 16.7885C97.1835 16.7514 96.4177 16.5458 95.7997 16.201Z" fill="#A6CCE5"/>
<path d="M109.473 15.9949V9.45085L107.836 8.77162V8.61235L112.421 7.62863H112.554L112.688 9.97082H112.797L113.148 9.50238C113.537 8.95726 114.058 8.45869 114.691 8.0268C115.136 7.76069 115.716 7.61677 116.314 7.62395C116.78 7.61637 117.233 7.72494 117.585 7.92843C117.759 8.03073 117.896 8.15766 117.987 8.29992C118.078 8.44217 118.119 8.59615 118.109 8.75054C118.109 9.45476 117.501 9.89587 116.286 10.0739L114.62 9.17447C114.252 9.28459 113.93 9.45352 113.682 9.66633C113.325 9.9319 113.052 10.2425 112.878 10.5798V15.9949L115.102 16.2994V16.5336H107.836V16.2994L109.473 15.9949Z" fill="#A6CCE5"/>
<path d="M120.449 5.52769C120.263 5.40957 120.115 5.26749 120.014 5.11007C119.912 4.95265 119.86 4.78316 119.86 4.6119C119.86 4.44063 119.912 4.27115 120.014 4.11373C120.115 3.95631 120.263 3.81423 120.449 3.69611C120.624 3.57182 120.836 3.4728 121.071 3.40512C121.306 3.33745 121.559 3.30257 121.815 3.30262C122.073 3.30307 122.329 3.33814 122.566 3.40574C122.803 3.47334 123.017 3.57209 123.196 3.69611C123.384 3.81334 123.535 3.95513 123.637 4.11267C123.74 4.27021 123.793 4.44014 123.793 4.6119C123.793 4.78366 123.74 4.95359 123.637 5.11113C123.535 5.26867 123.384 5.41046 123.196 5.52769C123.013 5.65168 122.794 5.74964 122.553 5.81566C122.311 5.88168 122.052 5.91439 121.791 5.91181C121.54 5.91007 121.293 5.87523 121.062 5.8093C120.832 5.74337 120.623 5.64766 120.449 5.52769ZM120.196 15.9668V9.32671L118.559 8.77396V8.55848L123.611 7.64503V15.9668L125.367 16.2713V16.5406H118.506V16.2619L120.196 15.9668Z" fill="#A6CCE5"/>
<path d="M132.851 16.3603C132.117 16.6616 131.271 16.8198 130.409 16.817C129.899 16.8342 129.388 16.7806 128.911 16.6596C128.433 16.5387 127.998 16.353 127.633 16.1144C126.945 15.6459 126.601 14.9519 126.601 14.0322V9.04097L124.939 8.55848V8.32426L129.98 7.75277V13.723C129.98 14.9394 130.775 15.5468 132.366 15.5452C133.239 15.5368 134.081 15.3284 134.751 14.955V9.00584L132.928 8.55848V8.30787L138.156 7.71763V15.6811L139.951 16.0019V16.2689L135.103 16.7631L134.808 15.2969C134.235 15.7121 133.576 16.0703 132.851 16.3603Z" fill="#A6CCE5"/>
<path d="M140.914 16.2268L140.752 13.4911H141.261L142.934 15.9668C143.172 16.1198 143.449 16.2435 143.752 16.3322C144.102 16.4366 144.483 16.4885 144.866 16.4844C145.198 16.4968 145.53 16.4613 145.84 16.3805C146.15 16.2997 146.43 16.1754 146.661 16.016C147.116 15.6584 147.346 15.1979 147.304 14.7301C147.32 14.415 147.162 14.1069 146.862 13.8635C146.466 13.588 145.973 13.3828 145.428 13.2663L143.672 12.8189C141.849 12.3661 140.938 11.5494 140.938 10.369C140.931 9.85133 141.177 9.34624 141.641 8.93089C142.142 8.48952 142.814 8.1471 143.584 7.94014C144.474 7.69343 145.431 7.57145 146.394 7.58179C147.605 7.59799 148.796 7.79318 149.88 8.15328L149.851 10.5845H149.395L147.852 8.4156C147.351 8.13087 146.716 7.97253 146.057 7.96825C145.771 7.95944 145.485 7.99335 145.22 8.06749C144.956 8.14164 144.72 8.25416 144.529 8.39687C144.121 8.74865 143.921 9.18777 143.967 9.6312C143.955 9.77428 143.991 9.91731 144.072 10.0501C144.152 10.1829 144.276 10.3022 144.434 10.3994C144.865 10.662 145.372 10.8628 145.924 10.9897L147.329 11.3644C148.22 11.5711 149.034 11.9034 149.714 12.3388C150.22 12.7333 150.479 13.2422 150.438 13.7605C150.449 14.3331 150.176 14.8923 149.662 15.3508C149.115 15.8295 148.388 16.203 147.554 16.4329C146.648 16.6931 145.67 16.824 144.683 16.817C143.367 16.7965 142.07 16.5956 140.875 16.2268" fill="#A6CCE5"/>
<path d="M18.0579 15.5991C16.5226 17.6696 13.842 19.0679 10.796 19.1639C10.8915 18.3724 10.9209 17.5779 10.8838 16.7842V16.6976C10.8838 16.6086 10.933 16.6039 11.049 16.5781L11.4881 16.4868C12.8818 16.2159 14.0602 15.591 14.7695 14.7465C15.4195 13.9432 15.6478 12.8939 14.7695 12.1842C14.2766 11.8031 13.5817 11.5639 12.8302 11.5167C12.4262 11.4932 11.6462 11.5167 11.5057 11.8141C11.3862 12.0788 11.6743 12.231 11.9659 12.3388C12.4683 12.5238 12.7705 12.6831 12.774 13.0625C12.7617 13.2686 12.6828 13.4705 12.5427 13.6544C12.4027 13.8383 12.2047 13.9999 11.9624 14.1282C11.7837 14.2298 11.579 14.3091 11.3581 14.3624C11.1403 14.4116 10.8873 14.435 10.8873 14.2734V11.2239C10.8873 10.6032 11.0525 10.4018 11.5092 9.87245C12.3173 8.93557 13.3466 7.70827 13.9298 6.81355C14.3674 6.15874 14.6062 5.45267 14.6325 4.73604C17.5099 6.01721 19.4422 8.57019 19.4422 11.5167V11.9101C19.8012 11.9111 20.1532 11.9767 20.461 12.0999V11.5143C20.461 8.10878 18.0228 5.17871 14.5201 3.87411C14.3781 3.31776 14.1066 2.77959 13.7155 2.27909C13.2939 1.67949 12.0573 0.576319 11.2457 0.161753C11.0976 0.0693583 10.9069 0.0130623 10.7048 0.00200736C10.5026 -0.00904762 10.3007 0.0257877 10.132 0.100856C10.0372 0.148235 9.9605 0.209808 9.90802 0.280603C9.85553 0.351398 9.82875 0.42943 9.82985 0.508396V3.17848C4.59156 3.44081 0.442383 7.06651 0.442383 11.5167C0.442383 15.6623 4.05754 19.1053 8.80046 19.7658C8.75128 19.8704 8.70209 19.9719 8.65291 20.0703C8.26645 20.8339 7.28975 22.4992 5.69473 22.5038C5.61759 22.5118 5.53878 22.5088 5.46352 22.495C5.38826 22.4811 5.31826 22.4568 5.25815 22.4236C5.19804 22.3904 5.1492 22.3491 5.11483 22.3023C5.08047 22.2556 5.06138 22.2045 5.05883 22.1525C5.06131 22.0485 5.1157 21.9479 5.21341 21.8668C5.34305 21.7673 5.50604 21.6895 5.68916 21.6399C5.87229 21.5903 6.07039 21.5701 6.26739 21.581C6.38688 21.6003 6.51106 21.6027 6.63203 21.5882C6.75301 21.5737 6.86812 21.5425 6.97005 21.4967C7.01392 21.4714 7.04912 21.4401 7.07324 21.405C7.09737 21.3698 7.10985 21.3316 7.10985 21.2929C7.10985 21.2543 7.09737 21.2161 7.07324 21.1809C7.04912 21.1457 7.01392 21.1144 6.97005 21.0892C6.61236 20.9416 6.19556 20.8705 5.77553 20.8854C4.29996 20.8854 2.52927 21.6349 2.5117 22.724C2.49062 24.0052 4.33509 24.5673 5.95471 24.5626C7.96079 24.5626 9.31691 23.7429 9.92822 22.5085C10.2844 21.7152 10.5267 20.9012 10.652 20.0773L10.6871 19.8806C14.2004 19.8174 17.2499 18.2575 18.9819 15.9364C18.6371 15.8761 18.3198 15.7603 18.0579 15.5991ZM10.8873 2.39385C10.8833 2.37898 10.8841 2.36371 10.8895 2.34904C10.8949 2.33437 10.9049 2.32062 10.9189 2.3087C10.9328 2.29677 10.9503 2.28693 10.9703 2.27981C10.9903 2.27269 11.0123 2.26845 11.0349 2.26738C11.2176 2.26738 11.3862 2.50159 11.6849 2.89742C11.7692 3.01141 11.8453 3.12383 11.9132 3.2347C11.5741 3.1937 11.2315 3.1671 10.8873 3.15506V2.39385ZM10.8873 3.86709C11.3621 3.88569 11.8329 3.93591 12.2927 4.01699C12.6477 5.09405 12.4664 6.21891 11.7762 7.22109C11.6158 7.48322 11.4328 7.73895 11.2281 7.98699C11.2172 8.01841 11.1884 8.04576 11.1477 8.06325C11.107 8.08074 11.0578 8.08699 11.0103 8.08067C10.9747 8.07441 10.9433 8.06041 10.9211 8.0409C10.8988 8.02138 10.8869 7.99746 10.8873 7.97293V3.86709ZM9.83337 11.9125V14.3273C9.83419 14.3418 9.82865 14.3562 9.81742 14.3687C9.8062 14.3812 9.78976 14.3912 9.77013 14.3975C9.74262 14.4065 9.71094 14.4078 9.68198 14.4012C9.65303 14.3946 9.62914 14.3807 9.61554 14.3624C9.50413 14.2136 9.42036 14.0563 9.3661 13.894C9.16082 13.1764 9.25562 12.435 9.64014 11.7509C9.64777 11.7373 9.6619 11.7259 9.68033 11.7183C9.69875 11.7106 9.72044 11.7073 9.74202 11.7087C9.77481 11.7208 9.80078 11.7397 9.816 11.7625C9.83121 11.7854 9.83485 11.8109 9.82634 11.8352C9.82985 11.861 9.82985 11.8867 9.82985 11.9125H9.83337ZM9.83337 9.09016C9.83337 9.66399 9.2853 10.1418 8.7583 10.5681C7.58487 11.5049 6.75222 12.3973 6.60115 13.5918C6.44657 14.8215 7.0895 16.0699 9.00423 16.4961C9.20698 16.5389 9.41348 16.5733 9.62257 16.5992C9.72094 16.5992 9.84039 16.6132 9.82985 16.7023C9.82985 16.7257 9.82985 16.7514 9.80877 16.7866C9.63311 17.5009 9.39421 18.316 9.10612 19.0819C4.78479 18.5151 1.48934 15.3414 1.48934 11.5167C1.48934 7.47171 5.16774 4.15986 9.82985 3.88114V9.09016H9.83337Z" fill="#A6CCE5"/>
</svg>
