<svg width="65" height="65" viewBox="0 0 65 65" fill="none" xmlns="http://www.w3.org/2000/svg">
<path d="M17.6055 46.0416C18.7339 46.0416 19.6927 45.6462 20.4817 44.8554C21.2726 44.0664 21.668 43.1076 21.668 41.9791C21.668 40.8507 21.2726 39.8919 20.4817 39.1029C19.6927 38.3121 18.7339 37.9166 17.6055 37.9166C16.477 37.9166 15.5182 38.3121 14.7292 39.1029C13.9384 39.8919 13.543 40.8507 13.543 41.9791C13.543 43.1076 13.9384 44.0664 14.7292 44.8554C15.5182 45.6462 16.477 46.0416 17.6055 46.0416ZM36.5638 46.0416C37.6923 46.0416 38.651 45.6462 39.4401 44.8554C40.2309 44.0664 40.6263 43.1076 40.6263 41.9791C40.6263 40.8507 40.2309 39.8919 39.4401 39.1029C38.651 38.3121 37.6923 37.9166 36.5638 37.9166C35.4353 37.9166 34.4766 38.3121 33.6875 39.1029C32.8967 39.8919 32.5013 40.8507 32.5013 41.9791C32.5013 43.1076 32.8967 44.0664 33.6875 44.8554C34.4766 45.6462 35.4353 46.0416 36.5638 46.0416ZM10.8346 59.5833C10.0673 59.5833 9.4245 59.3233 8.9063 58.8033C8.3863 58.2851 8.1263 57.6423 8.1263 56.875V51.3229C7.3138 50.4201 6.65929 49.4153 6.16276 48.3085C5.66623 47.2035 5.41797 45.9965 5.41797 44.6875V18.9583C5.41797 17.6041 5.67797 16.2382 6.19797 14.8606C6.71616 13.4848 7.8663 12.2552 9.64839 11.1719C11.4323 10.0885 14.0621 9.26428 17.5378 8.69915C21.0135 8.13581 25.6853 7.98956 31.5534 8.2604C31.1923 9.11803 30.8871 9.98651 30.638 10.8658C30.3906 11.7469 30.1992 12.6389 30.0638 13.5416C25.0082 13.4062 21.0135 13.5868 18.0794 14.0833C15.1454 14.5798 13.1367 15.3021 12.0534 16.25H29.793C29.793 17.1528 29.8607 18.0555 29.9961 18.9583C30.1315 19.8611 30.3346 20.7639 30.6055 21.6666H10.8346V29.7916H35.4805C37.1957 31.5069 39.1927 32.8385 41.4713 33.7864C43.7517 34.7344 46.1784 35.2083 48.7513 35.2083V44.6875C48.7513 45.9965 48.503 47.2035 48.0065 48.3085C47.51 49.4153 46.8555 50.4201 46.043 51.3229V56.875C46.043 57.6423 45.783 58.2851 45.263 58.8033C44.7448 59.3233 44.102 59.5833 43.3346 59.5833H40.6263C39.8589 59.5833 39.2162 59.3233 38.698 58.8033C38.178 58.2851 37.918 57.6423 37.918 56.875V54.1666H16.2513V56.875C16.2513 57.6423 15.9922 58.2851 15.474 58.8033C14.954 59.3233 14.3103 59.5833 13.543 59.5833H10.8346ZM37.918 35.2083H10.8346H43.3346H37.918ZM48.7513 29.7916C45.0048 29.7916 41.8116 28.4709 39.1719 25.8294C36.5304 23.1896 35.2096 19.9965 35.2096 16.25C35.2096 12.5035 36.5304 9.30942 39.1719 6.6679C41.8116 4.02817 45.0048 2.70831 48.7513 2.70831C52.4978 2.70831 55.6919 4.02817 58.3334 6.6679C60.9731 9.30942 62.293 12.5035 62.293 16.25C62.293 19.9965 60.9731 23.1896 58.3334 25.8294C55.6919 28.4709 52.4978 29.7916 48.7513 29.7916ZM47.3971 18.9583H50.1055V8.12498H47.3971V18.9583ZM48.7513 24.375C49.1124 24.375 49.4284 24.2396 49.6992 23.9687C49.9701 23.6979 50.1055 23.3819 50.1055 23.0208C50.1055 22.6597 49.9701 22.3437 49.6992 22.0729C49.4284 21.8021 49.1124 21.6666 48.7513 21.6666C48.3902 21.6666 48.0742 21.8021 47.8034 22.0729C47.5326 22.3437 47.3971 22.6597 47.3971 23.0208C47.3971 23.3819 47.5326 23.6979 47.8034 23.9687C48.0742 24.2396 48.3902 24.375 48.7513 24.375ZM16.2513 48.75H37.918C39.4076 48.75 40.6832 48.22 41.7448 47.1602C42.8047 46.0985 43.3346 44.8229 43.3346 43.3333V35.2083H10.8346V43.3333C10.8346 44.8229 11.3655 46.0985 12.4271 47.1602C13.487 48.22 14.7617 48.75 16.2513 48.75ZM29.793 16.25H12.0534H29.793Z" fill="#224660"/>
<circle cx="49" cy="16" r="16" fill="#EA1313"/>
<path d="M40.056 12.704C40.284 12.704 40.536 12.788 40.776 12.872L41.052 11.252C40.644 11.096 40.152 11 39.696 11C38.28 10.988 37.2 11.792 37.2 13.22V13.82H36.324V15.236H37.2V20H39.324V15.236H40.764V13.82H39.324V13.4C39.324 12.932 39.636 12.704 40.056 12.704ZM43.7098 14.588V13.508H41.5738V20H43.7098V16.688C43.8178 15.788 44.6098 15.26 45.7978 15.38V13.424C44.8858 13.424 44.1538 13.844 43.7098 14.588ZM49.5861 13.436C47.5581 13.436 46.2021 14.768 46.2021 16.784C46.2021 18.764 47.5101 20.072 49.6341 20.072C50.8341 20.072 51.8061 19.664 52.4661 18.92L51.3501 17.804C50.9181 18.236 50.3781 18.464 49.8261 18.464C49.0941 18.464 48.5541 18.056 48.3501 17.324H52.8621C53.0061 14.96 51.8541 13.436 49.5861 13.436ZM48.3021 16.184C48.4461 15.44 48.9021 14.936 49.5981 14.936C50.3181 14.936 50.7981 15.44 50.7981 16.184H48.3021ZM56.8165 13.436C54.7885 13.436 53.4325 14.768 53.4325 16.784C53.4325 18.764 54.7405 20.072 56.8645 20.072C58.0645 20.072 59.0365 19.664 59.6965 18.92L58.5805 17.804C58.1485 18.236 57.6085 18.464 57.0565 18.464C56.3245 18.464 55.7845 18.056 55.5805 17.324H60.0925C60.2365 14.96 59.0845 13.436 56.8165 13.436ZM55.5325 16.184C55.6765 15.44 56.1325 14.936 56.8285 14.936C57.5485 14.936 58.0285 15.44 58.0285 16.184H55.5325Z" fill="white"/>
</svg>
