<svg width="65" height="65" viewBox="0 0 65 65" fill="none" xmlns="http://www.w3.org/2000/svg">
<path d="M17.6055 46.0417C18.7339 46.0417 19.6927 45.6463 20.4817 44.8554C21.2726 44.0664 21.668 43.1077 21.668 41.9792C21.668 40.8507 21.2726 39.892 20.4817 39.1029C19.6927 38.3121 18.7339 37.9167 17.6055 37.9167C16.477 37.9167 15.5182 38.3121 14.7292 39.1029C13.9384 39.892 13.543 40.8507 13.543 41.9792C13.543 43.1077 13.9384 44.0664 14.7292 44.8554C15.5182 45.6463 16.477 46.0417 17.6055 46.0417ZM36.5638 46.0417C37.6923 46.0417 38.651 45.6463 39.4401 44.8554C40.2309 44.0664 40.6263 43.1077 40.6263 41.9792C40.6263 40.8507 40.2309 39.892 39.4401 39.1029C38.651 38.3121 37.6923 37.9167 36.5638 37.9167C35.4353 37.9167 34.4766 38.3121 33.6875 39.1029C32.8967 39.892 32.5013 40.8507 32.5013 41.9792C32.5013 43.1077 32.8967 44.0664 33.6875 44.8554C34.4766 45.6463 35.4353 46.0417 36.5638 46.0417ZM10.8346 59.5834C10.0673 59.5834 9.4245 59.3234 8.9063 58.8034C8.3863 58.2852 8.1263 57.6424 8.1263 56.875V51.3229C7.3138 50.4202 6.65929 49.4154 6.16276 48.3086C5.66623 47.2036 5.41797 45.9965 5.41797 44.6875V18.9584C5.41797 17.6042 5.67797 16.2383 6.19797 14.8606C6.71616 13.4848 7.8663 12.2552 9.64839 11.1719C11.4323 10.0886 14.0621 9.26433 17.5378 8.69919C21.0135 8.13586 25.6853 7.98961 31.5534 8.26044C31.1923 9.11808 30.8871 9.98655 30.638 10.8659C30.3906 11.747 30.1992 12.6389 30.0638 13.5417C25.0082 13.4063 21.0135 13.5868 18.0794 14.0834C15.1454 14.5799 13.1367 15.3021 12.0534 16.25H29.793C29.793 17.1528 29.8607 18.0556 29.9961 18.9584C30.1315 19.8611 30.3346 20.7639 30.6055 21.6667H10.8346V29.7917H35.4805C37.1957 31.507 39.1927 32.8386 41.4713 33.7865C43.7517 34.7344 46.1784 35.2084 48.7513 35.2084V44.6875C48.7513 45.9965 48.503 47.2036 48.0065 48.3086C47.51 49.4154 46.8555 50.4202 46.043 51.3229V56.875C46.043 57.6424 45.783 58.2852 45.263 58.8034C44.7448 59.3234 44.102 59.5834 43.3346 59.5834H40.6263C39.8589 59.5834 39.2162 59.3234 38.698 58.8034C38.178 58.2852 37.918 57.6424 37.918 56.875V54.1667H16.2513V56.875C16.2513 57.6424 15.9922 58.2852 15.474 58.8034C14.954 59.3234 14.3103 59.5834 13.543 59.5834H10.8346ZM37.918 35.2084H10.8346H43.3346H37.918ZM16.2513 48.75H37.918C39.4076 48.75 40.6832 48.2201 41.7448 47.1602C42.8047 46.0986 43.3346 44.8229 43.3346 43.3334V35.2084H10.8346V43.3334C10.8346 44.8229 11.3655 46.0986 12.4271 47.1602C13.487 48.2201 14.7617 48.75 16.2513 48.75Z" fill="#224660"/>
<circle cx="49" cy="16" r="16" fill="#A6CCE5"/>
<path d="M40.822 18.942L42.824 16.926C43.93 15.82 44.728 14.714 44.728 13.65C44.728 12.11 43.286 11.074 41.312 11.074C39.87 11.074 38.498 11.634 37.238 12.544L38.218 14.434C39.114 13.664 40.122 13.188 40.92 13.188C41.634 13.188 42.04 13.496 42.04 14.028C42.04 14.448 41.634 15.078 41.088 15.638L37.518 19.306L37.532 21H45.008V18.942H40.822ZM52.4626 13.65L53.4146 11.886C52.6026 11.396 51.3706 11.074 50.2926 11.074C47.5766 11.074 45.8266 13.118 45.8266 16.254C45.8266 19.25 47.4086 21.112 49.9986 21.112C52.1686 21.112 53.6106 19.796 53.6106 17.738C53.6106 15.82 52.3926 14.546 50.4886 14.546C49.4246 14.546 48.6686 14.938 48.2066 15.596C48.1646 14 48.9206 13.02 50.4466 13.02C51.1886 13.02 51.9166 13.244 52.4626 13.65ZM49.9426 16.38C50.8106 16.38 51.3146 16.884 51.3146 17.724C51.3146 18.606 50.7686 19.096 49.9006 19.096C48.9206 19.096 48.4726 18.48 48.4726 17.752C48.4726 16.968 48.9906 16.38 49.9426 16.38ZM54.0849 11.186V13.286H55.9749V21H58.5369V11.186H54.0849Z" fill="#224660"/>
</svg>
