<svg width="226" height="455" viewBox="0 0 226 455" fill="none" xmlns="http://www.w3.org/2000/svg">
<path d="M303.377 363.031C299.301 359.115 291.787 359.115 289.335 364.336C289.176 364.495 289.176 364.814 289.017 365.005C279.878 398.494 256.666 403.556 225.303 403.206C196.551 403.206 176.968 397.667 168.467 368.602C165.187 357.014 157.864 357.014 149.84 364.686C136.276 378.248 122.711 391.459 108.192 405.848C106.727 407.312 102.97 411.387 99.5312 415.971C135.957 440.643 179.898 455 227.086 455C274.784 455 318.884 440.293 355.469 415.303C352.38 411.228 348.782 407.312 347.317 405.816C332.639 391.427 318.247 377.388 303.377 363.031Z" fill="#A6CCE5"/>
<path d="M108.121 147.795C134.634 162.997 159.521 177.211 183.897 192.413C189.448 195.696 194.362 204.014 194.872 210.547C196.021 223.806 195.702 237.032 195.542 250.29C195.382 256.983 200.934 262.401 207.475 262.401C221.545 262.401 235.137 262.401 248.888 262.401C255.588 262.401 261.012 257.014 261.172 250.29C261.331 238.02 261.65 226.26 260.693 214.308C259.863 202.389 264.298 195.664 274.604 189.959C298.82 176.542 322.717 162.487 349.39 147.125C356.441 143.046 357.558 133.23 351.687 127.844C338.096 115.255 325.653 103.654 313.56 91.2249C307.658 85.3288 302.936 84.6914 295.725 89.0895C277.061 100.69 257.439 111.335 238.455 122.936C231.085 127.685 224.544 128.003 216.855 122.936C201.476 113.12 185.588 104.292 169.539 95.3043C145.801 82.2374 153.842 80.1021 133.518 100.372C124.201 109.678 115.172 118.856 105.537 128.641C100.113 134.377 101.261 143.843 108.121 147.795Z" fill="#A6CCE5"/>
<path d="M155.757 61.9909C159.194 67.38 163.108 72.1314 167.659 76.5639C174.183 82.9415 182.011 88.3307 190.668 92.9226C200.628 98.1523 209.921 105.04 220.2 109.6C225.26 111.737 232.611 111.737 237.353 109.281C256.607 99.1408 275.224 88.1712 293.682 76.5639C298.742 73.2794 303.165 66.7423 304.947 60.8748C309.021 46.6526 312.776 32.3985 316.69 18.1763C289.29 6.53711 259.248 0 227.583 0C196.905 0 167.5 6.05878 140.895 17.1878L154.611 59.5674C154.77 60.3646 155.247 61.1937 155.757 61.9909Z" fill="#A6CCE5"/>
<path d="M365.268 229.152C356.47 237.12 348.148 244.96 339.699 252.611C321.437 269.721 320.801 270.038 337.095 289.91C345.067 299.687 345.417 307.338 337.921 317.115C330.743 326.575 324.899 336.987 319.34 347.24C317.879 350.161 317.212 356.351 319.34 358.478C334.808 374.762 350.625 390.73 366.76 407.173C405.541 377.048 434.381 334.701 447.244 285.847C425.742 266.959 403.572 248.23 381.085 229.025C376.321 225.247 369.651 225.247 365.268 229.152Z" fill="#A6CCE5"/>
<path d="M135.658 347.064C130.145 336.621 124.125 326.147 117.124 316.691C109.805 306.885 109.963 299.053 117.947 289.247C134.201 269.317 133.535 268.998 115.349 251.679C106.89 243.846 98.6211 236.014 89.845 227.991C85.4412 223.916 78.6294 223.916 74.0672 227.832C51.4775 247.253 29.3631 266.228 7.75568 285.331C20.7455 334.488 49.5132 377.119 88.5461 407.173C104.641 390.681 120.229 374.667 135.69 358.175C137.781 356.392 137.115 350.025 135.658 347.064Z" fill="#A6CCE5"/>
<path d="M378.796 175.194C377.967 201.125 385.651 218.327 406.44 233.578C421.808 244.737 436.22 257.207 451.078 270.156C453.693 256.376 455 242.275 455 227.823C455 188.463 445.02 151.374 427.515 118.92C419.991 123.013 412.625 126.946 404.941 130.559C384.216 140.087 379.465 153.228 378.796 175.194Z" fill="#A6CCE5"/>
<path d="M76.2041 176.145C75.5331 154.171 70.8043 141.33 49.972 131.754C42.2717 128.172 34.7312 124.272 27.1906 120.213C9.84103 152.079 0 188.669 0 227.542C0 242.191 1.46976 256.332 4.08978 270.156C18.8513 257.315 33.2614 244.949 48.5022 234.042C69.3345 219.076 77.0348 201.827 76.2041 176.145Z" fill="#A6CCE5"/>
<path d="M320.929 79.913C336.25 96.2385 352.079 111.577 368.067 127.107C370.673 129.558 376.713 131.531 379.001 130.035C392.701 122.366 406.4 114.537 420.099 106.517C397.754 70.9388 365.969 42.0429 328.304 23.267C324.394 37.6195 320.643 51.8446 316.893 66.0379C316.034 70.1113 318.005 76.6352 320.929 79.913Z" fill="#A6CCE5"/>
<path d="M89.1856 127.119C105.314 111.55 121.09 96.1095 136.545 79.7096C139.495 76.4168 141.643 69.8633 140.649 65.7713C136.865 51.1617 132.921 36.7439 128.977 21.9744C90.5002 40.5162 57.7625 69.5436 34.9006 105.444C49.3616 113.82 63.6944 122.004 78.1554 130.028C80.464 131.531 86.5563 129.58 89.1856 127.119Z" fill="#A6CCE5"/>
<path d="M320.784 189.21C314.596 210.271 304.029 225.129 278.769 220.548C278.103 220.229 277.944 220.866 275.85 221.693C275.85 230.028 275.183 239.159 276.516 248.958C277.976 264.292 275.056 277.686 262.014 288.28C254.049 294.802 247.195 302.819 240.531 310.487C231.74 320.763 234.025 328.271 246.719 331.866C259.729 335.461 273.565 338.07 286.29 342.81C298.983 347.55 306.155 345.419 313.136 332.693C329.415 303.965 330.558 304.283 311.359 278.195C305.489 269.86 305.996 264.801 313.485 258.279C328.781 244.726 343.918 230.378 358.896 216.157C361.498 213.548 365.401 210.271 365.401 207.026C366.067 190.228 365.718 173.24 365.718 152.528C348.773 167.004 326.972 167.831 320.784 189.21Z" fill="#A6CCE5"/>
<path d="M214.469 311.503C207.646 303.795 200.949 295.768 192.984 289.18C179.972 278.531 177.02 265.067 178.48 249.493C179.623 239.643 179.147 230.464 179.147 222.086C177.02 221.254 176.703 220.614 176.227 220.934C151.155 225.348 140.397 210.445 134.208 189.274C128.02 167.783 106.217 166.952 89.2697 152.528C89.2697 173.348 88.9523 190.425 89.587 207.471C89.587 210.765 93.4906 214.027 96.093 216.649C111.231 230.912 126.211 245.367 141.507 258.959C148.838 265.515 149.473 270.6 143.634 278.979C124.433 305.234 125.576 304.883 141.857 333.921C149.029 346.713 156.011 348.856 168.705 344.091C181.4 339.325 195.237 336.703 208.28 333.089C220.975 329.412 223.26 322.024 214.469 311.503Z" fill="#A6CCE5"/>
<path d="M179.673 356.507C189.108 384.895 192.654 388.805 211.493 388.138C237.961 387.311 271.11 399.391 276.619 355.84C244.483 340.2 212.157 339.246 179.673 356.507Z" fill="#A6CCE5"/>
<path d="M207.749 272.741C202.513 272.741 199.735 278.739 203.151 282.622C210.208 290.703 216.594 297.836 223.458 305.602C225.917 308.348 230.323 308.348 232.782 305.444C239.487 297.363 245.554 290.229 251.94 282.464C255.228 278.581 252.419 272.741 247.182 272.741C233.612 272.741 221.351 272.741 207.749 272.741Z" fill="#A6CCE5"/>
</svg>
