<svg width="32" height="32" viewBox="0 0 32 32" fill="none" xmlns="http://www.w3.org/2000/svg">
<path fill-rule="evenodd" clip-rule="evenodd" d="M16 32C7.16373 32 0 24.8363 0 16C0 7.1632 7.16373 0 16 0C24.8363 0 32 7.1632 32 16C32 24.8363 24.8363 32 16 32Z" fill="#224660"/>
<path d="M17.065 24.9972V16.8012H19.83L20.241 13.5922H17.065V11.5482C17.065 10.6222 17.323 9.98817 18.652 9.98817H20.336V7.12717C19.5166 7.03936 18.693 6.99696 17.869 7.00017C15.425 7.00017 13.747 8.49217 13.747 11.2312V13.5862H11V16.7952H13.753V24.9972H17.065Z" fill="white"/>
</svg>
