<svg width="32" height="32" viewBox="0 0 32 32" fill="none" xmlns="http://www.w3.org/2000/svg">
<path fill-rule="evenodd" clip-rule="evenodd" d="M16 32C7.16373 32 0 24.8363 0 16C0 7.1632 7.16373 0 16 0C24.8363 0 32 7.1632 32 16C32 24.8363 24.8363 32 16 32Z" fill="#224660"/>
<path fill-rule="evenodd" clip-rule="evenodd" d="M22.857 8C23.167 8 23.435 8.113 23.661 8.34C23.887 8.565 24 8.833 24 9.143V22.857C24 23.167 23.887 23.435 23.66 23.661C23.5565 23.7694 23.4318 23.8554 23.2937 23.9138C23.1556 23.9721 23.007 24.0014 22.857 24H9.14303C8.83303 24 8.56503 23.887 8.33903 23.66C8.23083 23.5565 8.14494 23.432 8.08664 23.294C8.02834 23.1561 7.99887 23.0077 8.00003 22.858V9.143C8.00003 8.833 8.11303 8.565 8.34003 8.339C8.56503 8.113 8.83303 8 9.14303 8H22.857ZM10.464 21.714H12.857V14.071H10.464V21.714ZM11.643 13.036C12.023 13.036 12.351 12.899 12.625 12.625C12.7555 12.5008 12.8592 12.3512 12.9298 12.1854C13.0003 12.0196 13.0361 11.8412 13.035 11.661C13.035 11.291 12.899 10.971 12.625 10.696C12.498 10.5642 12.3454 10.4599 12.1765 10.3893C12.0076 10.3188 11.826 10.2837 11.643 10.286C11.262 10.286 10.941 10.423 10.679 10.696C10.5529 10.8228 10.4531 10.9734 10.3857 11.1391C10.3182 11.3047 10.2843 11.4821 10.286 11.661C10.286 12.03 10.416 12.351 10.679 12.625C10.941 12.899 11.262 13.035 11.643 13.035V13.036ZM21.714 21.714V17.536C21.714 16.346 21.548 15.476 21.214 14.929C20.762 14.239 19.988 13.893 18.893 13.893C18.3779 13.8843 17.8706 14.0204 17.429 14.286C17.071 14.5 16.809 14.774 16.643 15.107H16.607V14.071H14.321V21.714H16.679V17.93C16.679 17.334 16.762 16.882 16.929 16.572C17.167 16.168 17.559 15.965 18.107 15.965C18.655 15.965 19.012 16.191 19.179 16.644C19.298 16.93 19.357 17.382 19.357 18.001V21.715H21.714V21.714Z" fill="white"/>
</svg>
