<svg width="32" height="25" viewBox="0 0 32 25" fill="none" xmlns="http://www.w3.org/2000/svg">
<path d="M26.5625 0H4.6875C3.4443 0 2.25201 0.49386 1.37294 1.37294C0.49386 2.25201 0 3.4443 0 4.6875V20.3125C0 21.5557 0.49386 22.748 1.37294 23.6271C2.25201 24.5061 3.4443 25 4.6875 25H26.5625C27.8057 25 28.998 24.5061 29.8771 23.6271C30.7561 22.748 31.25 21.5557 31.25 20.3125V4.6875C31.25 3.4443 30.7561 2.25201 29.8771 1.37294C28.998 0.49386 27.8057 0 26.5625 0ZM4.6875 3.125H26.5625C26.9769 3.125 27.3743 3.28962 27.6674 3.58265C27.9604 3.87567 28.125 4.2731 28.125 4.6875L15.625 12.3125L3.125 4.6875C3.125 4.2731 3.28962 3.87567 3.58265 3.58265C3.87567 3.28962 4.2731 3.125 4.6875 3.125ZM28.125 20.3125C28.125 20.7269 27.9604 21.1243 27.6674 21.4174C27.3743 21.7104 26.9769 21.875 26.5625 21.875H4.6875C4.2731 21.875 3.87567 21.7104 3.58265 21.4174C3.28962 21.1243 3.125 20.7269 3.125 20.3125V8.25L14.8125 15.3906C15.05 15.5278 15.3195 15.6 15.5937 15.6C15.868 15.6 16.1375 15.5278 16.375 15.3906L28.125 8.25V20.3125Z" fill="#224660"/>
</svg>
