<svg width="32" height="33" viewBox="0 0 32 33" fill="none" xmlns="http://www.w3.org/2000/svg">
<path d="M16 0.399994C7.1776 0.399994 0 7.57759 0 16.4C0 25.2224 7.1776 32.4 16 32.4C24.8224 32.4 32 25.2224 32 16.4C32 7.57759 24.8224 0.399994 16 0.399994ZM16 29.2C8.9424 29.2 3.2 23.4576 3.2 16.4C3.2 9.34239 8.9424 3.59999 16 3.59999C23.0576 3.59999 28.8 9.34239 28.8 16.4C28.8 23.4576 23.0576 29.2 16 29.2Z" fill="#224660"/>
<path d="M17.6 8.39999H14.4V18H24V14.8H17.6V8.39999Z" fill="#224660"/>
</svg>
