<svg width="65" height="64" viewBox="0 0 65 64" fill="none" xmlns="http://www.w3.org/2000/svg">
<path d="M36.28 32.7199C36.4207 32.5793 36.4998 32.3887 36.5 32.1899V31.8099C36.4977 31.6114 36.4189 31.4216 36.28 31.2799L31.14 26.1499C31.0461 26.0552 30.9183 26.002 30.785 26.002C30.6517 26.002 30.5239 26.0552 30.43 26.1499L29.72 26.8599C29.6259 26.952 29.5729 27.0782 29.5729 27.2099C29.5729 27.3415 29.6259 27.4677 29.72 27.5599L34.17 31.9999L29.72 36.4399C29.6253 36.5337 29.5721 36.6615 29.5721 36.7949C29.5721 36.9282 29.6253 37.056 29.72 37.1499L30.43 37.8499C30.5239 37.9445 30.6517 37.9978 30.785 37.9978C30.9183 37.9978 31.0461 37.9445 31.14 37.8499L36.28 32.7199Z" fill="#224660"/>
<rect x="1" y="0.5" width="63" height="63" rx="31.5" stroke="#A6CCE5"/>
</svg>
