<svg width="65" height="64" viewBox="0 0 65 64" fill="none" xmlns="http://www.w3.org/2000/svg">
<path d="M28.72 32.7199C28.5793 32.5793 28.5002 32.3887 28.5 32.1899V31.8099C28.5023 31.6114 28.5811 31.4216 28.72 31.2799L33.86 26.1499C33.9539 26.0552 34.0817 26.002 34.215 26.002C34.3483 26.002 34.4761 26.0552 34.57 26.1499L35.28 26.8599C35.3741 26.952 35.4271 27.0782 35.4271 27.2099C35.4271 27.3415 35.3741 27.4677 35.28 27.5599L30.83 31.9999L35.28 36.4399C35.3747 36.5337 35.4279 36.6615 35.4279 36.7949C35.4279 36.9282 35.3747 37.056 35.28 37.1499L34.57 37.8499C34.4761 37.9445 34.3483 37.9978 34.215 37.9978C34.0817 37.9978 33.9539 37.9445 33.86 37.8499L28.72 32.7199Z" fill="#A6CCE5"/>
<rect x="1" y="0.5" width="63" height="63" rx="31.5" stroke="#A6CCE5"/>
</svg>
