<svg width="69" height="69" viewBox="0 0 69 69" fill="none" xmlns="http://www.w3.org/2000/svg">
<path d="M51.9648 4.46774L63.9622 16.974V64.5322H19.1445V64.6875H64.1153V17.1314L51.9648 4.46774Z" fill="#909090"/>
<path d="M51.8168 4.3125H18.9922V64.5322H63.9629V16.9762L51.8146 4.3125" fill="#F4F4F4"/>
<path d="M18.6632 7.54688H4.88477V22.2676H48.2254V7.54688H18.6632Z" fill="#7A7B7C"/>
<path d="M48.4551 22.0175H5.16406V7.28598H48.4551V22.0175Z" fill="#A6CCE5"/>
<path d="M19.5174 9.77642H16.6992V20.1264H18.9158V16.6355L19.4053 16.6635C19.8809 16.6553 20.3521 16.5701 20.8004 16.4112C21.1935 16.276 21.5551 16.0626 21.8634 15.7837C22.1772 15.5181 22.4245 15.1829 22.5858 14.8048C22.802 14.1762 22.8793 13.5082 22.8122 12.8469C22.7987 12.3745 22.7159 11.9066 22.5664 11.4583C22.4303 11.1347 22.2283 10.8429 21.9732 10.6016C21.7182 10.3603 21.4157 10.1747 21.085 10.0567C20.7991 9.95323 20.5037 9.87812 20.2031 9.83249C19.9755 9.79736 19.7456 9.77863 19.5153 9.77642H19.5174ZM19.1078 14.7229H18.9158V11.5316H19.332C19.5157 11.5184 19.7 11.5466 19.8713 11.6141C20.0426 11.6817 20.1965 11.7869 20.3217 11.9219C20.5812 12.2691 20.7197 12.6917 20.7163 13.1251C20.7163 13.6555 20.7163 14.1364 20.2376 14.4749C19.8928 14.6646 19.5002 14.75 19.1078 14.7207V14.7229ZM27.0233 9.74839C26.784 9.74839 26.5511 9.76564 26.3872 9.77211L25.8741 9.78505H24.1922V20.135H26.1716C26.9281 20.1558 27.6813 20.0276 28.3883 19.7577C28.9573 19.532 29.4612 19.1681 29.8545 18.699C30.2369 18.2256 30.5114 17.6744 30.6588 17.084C30.8282 16.4152 30.9108 15.7275 30.9046 15.0377C30.9464 14.223 30.8834 13.4062 30.717 12.6076C30.5591 12.0197 30.2635 11.4779 29.8545 11.027C29.5336 10.663 29.1409 10.3693 28.7009 10.1645C28.3231 9.98971 27.9257 9.86085 27.5171 9.78074C27.3547 9.7539 27.1901 9.74163 27.0255 9.74408L27.0233 9.74839ZM26.6331 18.2332H26.4174V11.6265H26.4455C26.89 11.5753 27.3398 11.6555 27.7392 11.8572C28.0317 12.0908 28.2701 12.3851 28.4378 12.7197C28.6189 13.0719 28.7232 13.4584 28.744 13.8539C28.7634 14.3283 28.744 14.7164 28.744 15.0377C28.7528 15.4078 28.729 15.7779 28.6729 16.1438C28.6064 16.5195 28.4836 16.883 28.3085 17.222C28.1103 17.5371 27.8425 17.8026 27.5258 17.9982C27.2597 18.1703 26.9447 18.2505 26.6288 18.2268L26.6331 18.2332ZM37.5825 9.78505H32.3428V20.135H34.5594V16.0295H37.3626V14.1062H34.5594V11.7084H37.5782V9.78505" fill="#464648"/>
<path d="M46.965 43.6748C46.965 43.6748 53.8391 42.4285 53.8391 44.7767C53.8391 47.1249 49.5805 46.1696 46.965 43.6748ZM41.8827 43.8538C40.7905 44.0951 39.7262 44.4485 38.7065 44.9082L39.569 42.9676C40.4315 41.027 41.3264 38.3813 41.3264 38.3813C42.3556 40.1134 43.5531 41.7399 44.9014 43.2371C43.8846 43.3888 42.8768 43.5961 41.8827 43.8581V43.8538ZM39.1615 29.8382C39.1615 27.7919 39.8235 27.2334 40.3388 27.2334C40.8542 27.2334 41.4342 27.4814 41.4536 29.2582C41.2857 31.0447 40.9116 32.8059 40.3388 34.5065C39.5542 33.0787 39.1482 31.4738 39.1594 29.8447L39.1615 29.8382ZM29.1371 52.5133C27.0283 51.2519 33.5596 47.3685 34.7434 47.2434C34.7369 47.2456 31.3451 53.8329 29.1371 52.5133ZM55.8466 45.0549C55.825 44.8392 55.631 42.4523 51.3831 42.5536C49.6126 42.5251 47.8429 42.6499 46.0939 42.9266C44.3996 41.2197 42.9406 39.2945 41.7555 37.2018C42.5021 35.0443 42.954 32.7959 43.0988 30.5174C43.0363 27.9299 42.4175 26.4464 40.4337 26.468C38.45 26.4895 38.161 28.2253 38.4219 30.8085C38.6775 32.5444 39.1596 34.2393 39.8558 35.8498C39.8558 35.8498 38.9394 38.7025 37.7276 41.5402C36.5158 44.3778 35.6878 45.8656 35.6878 45.8656C33.5806 46.5516 31.5968 47.5708 29.812 48.8843C28.0353 50.5382 27.3129 51.8082 28.2487 53.0783C29.0552 54.1736 31.8777 54.4216 34.4005 51.1161C35.741 49.4088 36.9656 47.6136 38.0661 45.7427C38.0661 45.7427 41.9129 44.6883 43.1096 44.3994C44.3063 44.1104 45.7532 43.8819 45.7532 43.8819C45.7532 43.8819 49.2657 47.4159 52.6532 47.2909C56.0406 47.1658 55.8768 45.2662 55.8552 45.0592" fill="#A6CCE5"/>
<path d="M51.6504 4.47852V17.1422H63.7965L51.6504 4.47852Z" fill="#909090"/>
<path d="M51.8164 4.3125V16.9762H63.9626L51.8164 4.3125Z" fill="#F4F4F4"/>
<path d="M19.3514 9.61041H16.5332V19.9604H18.7585V16.4716L19.2501 16.4996C19.7257 16.4914 20.1968 16.4062 20.6452 16.2473C21.0382 16.1121 21.3998 15.8986 21.7082 15.6199C22.0196 15.3536 22.2647 15.0184 22.4241 14.6409C22.6403 14.0124 22.7176 13.3444 22.6505 12.6831C22.637 12.2106 22.5542 11.7428 22.4047 11.2944C22.2686 10.9708 22.0665 10.679 21.8115 10.4377C21.5565 10.1964 21.254 10.0109 20.9233 9.89288C20.6361 9.78837 20.3393 9.71253 20.0371 9.66647C19.8095 9.63135 19.5796 9.61261 19.3493 9.61041H19.3514ZM18.9417 14.5568H18.7498V11.3656H19.1681C19.3518 11.3524 19.5361 11.3805 19.7074 11.4481C19.8787 11.5157 20.0327 11.6208 20.1579 11.7559C20.4173 12.1031 20.5559 12.5257 20.5525 12.9591C20.5525 13.4895 20.5525 13.9703 20.0738 14.3089C19.7289 14.4985 19.3364 14.5839 18.9439 14.5547L18.9417 14.5568ZM26.8573 9.58238C26.618 9.58238 26.3851 9.59963 26.2212 9.6061L25.7145 9.61903H24.0326V19.969H26.0121C26.7685 19.9898 27.5217 19.8616 28.2287 19.5917C28.7978 19.366 29.3017 19.0021 29.695 18.533C30.0774 18.0596 30.3519 17.5084 30.4992 16.9179C30.6686 16.2492 30.7513 15.5615 30.745 14.8717C30.7869 14.0569 30.7238 13.2402 30.5575 12.4416C30.3996 11.8537 30.1039 11.3119 29.695 10.861C29.3741 10.497 28.9813 10.2033 28.5414 9.99853C28.1635 9.8237 27.7661 9.69484 27.3576 9.61472C27.1951 9.58788 27.0306 9.57562 26.866 9.57806L26.8573 9.58238ZM26.4735 18.0672H26.2579V11.4605H26.2859C26.7305 11.4093 27.1802 11.4895 27.5797 11.6912C27.8722 11.9248 28.1106 12.219 28.2783 12.5537C28.4593 12.9059 28.5637 13.2924 28.5845 13.6879C28.6039 14.1623 28.5845 14.5504 28.5845 14.8717C28.5933 15.2418 28.5695 15.6119 28.5133 15.9778C28.4469 16.3535 28.324 16.717 28.1489 17.0559C27.9507 17.3711 27.683 17.6366 27.3662 17.8322C27.1002 18.0043 26.7851 18.0845 26.4692 18.0608L26.4735 18.0672ZM37.4165 9.61903H32.1768V19.969H34.3934V15.8635H37.1965V13.9402H34.3934V11.5424H37.4122V9.61903" fill="#224660"/>
</svg>
