<svg width="58" height="58" viewBox="0 0 58 58" fill="none" xmlns="http://www.w3.org/2000/svg">
<path d="M29 52.7319C31.6234 52.7319 33.75 50.6053 33.75 47.9819C33.75 45.3586 31.6234 43.2319 29 43.2319C26.3766 43.2319 24.25 45.3586 24.25 47.9819C24.25 50.6053 26.3766 52.7319 29 52.7319Z" fill="#224660"/>
<path d="M29 14.7319C31.6234 14.7319 33.75 12.6053 33.75 9.98193C33.75 7.35858 31.6234 5.23193 29 5.23193C26.3766 5.23193 24.25 7.35858 24.25 9.98193C24.25 12.6053 26.3766 14.7319 29 14.7319Z" fill="#224660"/>
<path d="M15.5664 47.1674C18.1898 47.1674 20.3164 45.0407 20.3164 42.4174C20.3164 39.794 18.1898 37.6674 15.5664 37.6674C12.9431 37.6674 10.8164 39.794 10.8164 42.4174C10.8164 45.0407 12.9431 47.1674 15.5664 47.1674Z" fill="#224660"/>
<path d="M42.4336 20.2965C45.0569 20.2965 47.1836 18.1699 47.1836 15.5465C47.1836 12.9232 45.0569 10.7965 42.4336 10.7965C39.8102 10.7965 37.6836 12.9232 37.6836 15.5465C37.6836 18.1699 39.8102 20.2965 42.4336 20.2965Z" fill="#224660"/>
<path d="M9.99847 33.7344C12.6231 33.7344 14.7508 31.6067 14.7508 28.982C14.7508 26.3573 12.6231 24.2296 9.99847 24.2296C7.3738 24.2296 5.24609 26.3573 5.24609 28.982C5.24609 31.6067 7.3738 33.7344 9.99847 33.7344Z" fill="#224660"/>
<path d="M48 33.7319C50.6234 33.7319 52.75 31.6053 52.75 28.9819C52.75 26.3586 50.6234 24.2319 48 24.2319C45.3766 24.2319 43.25 26.3586 43.25 28.9819C43.25 31.6053 45.3766 33.7319 48 33.7319Z" fill="#224660"/>
<path d="M15.5664 20.299C18.1898 20.299 20.3164 18.1723 20.3164 15.549C20.3164 12.9256 18.1898 10.799 15.5664 10.799C12.9431 10.799 10.8164 12.9256 10.8164 15.549C10.8164 18.1723 12.9431 20.299 15.5664 20.299Z" fill="#224660"/>
<path d="M42.4336 47.1697C45.0569 47.1697 47.1836 45.043 47.1836 42.4197C47.1836 39.7963 45.0569 37.6697 42.4336 37.6697C39.8102 37.6697 37.6836 39.7963 37.6836 42.4197C37.6836 45.043 39.8102 47.1697 42.4336 47.1697Z" fill="#224660"/>
</svg>
