<svg width="615" height="647" viewBox="0 0 615 647" fill="none" xmlns="http://www.w3.org/2000/svg">
<g clip-path="url(#clip0_777_5431)">
<rect width="615" height="647" fill="white"/>
<path d="M482.424 136.113H423.352V196.896H482.424V136.113Z" fill="#C7A28C"/>
<path d="M453.074 0.439941H452.43V136.137H453.074V0.439941Z" fill="#C7A28C"/>
<path d="M453.074 196.871H452.43V332.569H453.074V196.871Z" fill="#C7A28C"/>
<path d="M614.784 166.15H482.398V166.81H614.784V166.15Z" fill="#C7A28C"/>
<path d="M423.152 166.15H290.766V166.81H423.152V166.15Z" fill="#C7A28C"/>
<path d="M499.851 0.439941H499.207V166.15H499.851V0.439941Z" fill="#C7A28C"/>
<path d="M499.836 230.025H499.18L499.216 166.272H499.86L499.836 230.025Z" fill="#C7A28C"/>
<path d="M559.46 0.439941H558.816V230.123H559.46V0.439941Z" fill="#C7A28C"/>
<path d="M595.761 0.439941H595.117V332.703H595.761V0.439941Z" fill="#C7A28C"/>
<path d="M614.753 269.231H290.766V269.891H614.753V269.231Z" fill="#C7A28C"/>
<path d="M452.777 325.307H290.766V325.967H452.777V325.307Z" fill="#C7A28C"/>
<path d="M614.87 325.307H559.137V325.967H614.87V325.307Z" fill="#C7A28C"/>
<path d="M342.957 325.612H290.766V332.544H342.957V325.612Z" fill="#C7A28C"/>
<path d="M614.759 325.612H595.438V332.544H614.759V325.612Z" fill="#C7A28C"/>
<path d="M595.634 229.695H559.031V269.365H595.634V229.695Z" fill="#C7A28C"/>
<path d="M499.851 269.304H499.207V332.544H499.851V269.304Z" fill="#C7A28C"/>
<path d="M480.504 229.695C480.504 240.453 489.008 249.17 499.503 249.17V247.947C489.676 247.947 481.697 239.781 481.697 229.695H480.504ZM499.491 210.221C488.996 210.221 480.492 218.937 480.492 229.695H481.685C481.685 219.61 489.652 211.443 499.491 211.443V210.221ZM518.491 229.695C518.491 218.937 509.987 210.221 499.491 210.221V211.443C509.331 211.443 517.298 219.61 517.298 229.695H518.491ZM499.491 249.17C509.987 249.17 518.491 240.453 518.491 229.695H517.298C517.298 239.769 509.331 247.947 499.491 247.947V249.17Z" fill="#C7A28C"/>
<path d="M559.137 64.9025V115.416C572.745 115.416 583.777 104.096 583.777 90.1593C583.777 76.2228 572.745 64.9025 559.137 64.9025Z" fill="#C7A28C"/>
<path d="M559.732 165.917V115.404H558.539V165.917H559.732ZM559.112 165.917C559.112 165.306 559.112 165.917 559.112 166.529V165.306C559.112 165.917 559.112 166.529 559.112 165.917ZM533.875 140.661C533.875 154.939 545.181 166.529 559.112 166.529V165.306C545.837 165.306 535.068 154.267 535.068 140.661H533.875ZM559.136 114.793C545.181 114.793 533.875 126.382 533.875 140.661H535.068C535.068 127.054 545.837 116.015 559.136 116.015V114.793ZM559.136 165.917V166.529H559.732V165.917H559.136ZM559.136 115.404H559.732V114.793H559.136V115.404Z" fill="#C7A28C"/>
<path d="M559.463 229.512H453.137V230.172H559.463V229.512Z" fill="#C7A28C"/>
<path d="M343.277 0.439941H342.633V332.532H343.277V0.439941Z" fill="#C7A28C"/>
<path d="M424.046 195.82H423.402V325.515H424.046V195.82Z" fill="#C7A28C"/>
<path d="M452.777 41.2102H290.766V41.8703H452.777V41.2102Z" fill="#C7A28C"/>
<path d="M342.359 101.174C342.359 121.419 358.365 137.825 378.115 137.825V136.602C359.033 136.602 343.552 120.746 343.552 101.174H342.359ZM378.115 64.5358C358.365 64.5358 342.359 80.9417 342.359 101.186H343.552C343.552 81.6263 359.021 65.7583 378.115 65.7583V64.5358ZM413.872 101.174C413.872 80.9295 397.866 64.5236 378.115 64.5236V65.7461C397.198 65.7461 412.679 81.6019 412.679 101.174H413.872ZM378.115 137.825C397.866 137.825 413.872 121.419 413.872 101.174H412.679C412.679 120.734 397.21 136.602 378.115 136.602V137.825Z" fill="#C7A28C"/>
<path d="M559.44 269.414H499.842C499.747 270.771 499.711 272.153 499.711 273.534C499.711 306.126 525.496 332.556 557.293 332.556C557.996 332.556 558.712 332.532 559.416 332.507V269.402H559.44V269.414Z" fill="#C7A28C"/>
<path opacity="0.5" d="M614.766 277.532C614.861 276.199 614.897 274.867 614.897 273.522C614.897 272.189 614.849 270.832 614.766 269.512V277.532Z" fill="#C7A28C"/>
<path d="M342.956 326.334H452.729V325.111H342.956V326.334ZM397.842 269.108C367.298 269.108 342.502 294.426 342.359 325.722H343.552C343.683 295.111 367.954 270.331 397.842 270.331V269.108ZM453.325 325.722C453.182 294.426 428.386 269.108 397.842 269.108V270.331C427.73 270.331 452.001 295.111 452.132 325.722H453.325ZM342.956 325.722H342.359V326.334H342.956V325.722ZM452.729 325.722V326.334H453.325V325.722H452.729Z" fill="#C7A28C"/>
<path d="M558.957 166.215L499.508 229.264L499.971 229.723L559.42 166.674L558.957 166.215Z" fill="#C7A28C"/>
<path d="M394.934 69.7557V133.35C405.858 127.164 413.241 115.233 413.241 101.553C413.241 87.8732 405.87 75.9416 394.934 69.7557Z" fill="#C7A28C"/>
<path d="M413.852 101.553C413.852 87.6407 406.338 75.5013 395.235 69.2177L394.65 70.2935C405.396 76.3693 412.647 88.1053 412.647 101.553H413.852ZM395.235 133.888C406.35 127.592 413.852 115.465 413.852 101.553H412.647C412.647 115 405.384 126.724 394.65 132.812L395.235 133.888ZM394.34 69.7556V133.35H395.545V69.7556H394.34ZM394.936 133.35H394.34V134.389L395.235 133.888L394.936 133.35ZM394.936 69.7556L395.223 69.2177L394.328 68.7164V69.7556H394.936Z" fill="#C7A28C"/>
<path d="M452.777 64.9025H290.766V65.5626H452.777V64.9025Z" fill="#C7A28C"/>
<path d="M615.049 64.9025H559.137V65.5626H615.049V64.9025Z" fill="#C7A28C"/>
<path d="M342.885 21.2101H290.766V21.8702H342.885V21.2101Z" fill="#C7A28C"/>
<path d="M614.764 21.2101H559.031V21.8702H614.764V21.2101Z" fill="#C7A28C"/>
<path d="M614.764 41.2102H559.031V41.8703H614.764V41.2102Z" fill="#C7A28C"/>
<path d="M368.957 0.439941H368.312V41.5892H368.957V0.439941Z" fill="#C7A28C"/>
<path d="M368.957 325.954H368.312V332.58H368.957V325.954Z" fill="#C7A28C"/>
<path d="M394.871 0H394.227V166.064H394.871V0Z" fill="#C7A28C"/>
<path d="M394.918 325.918H394.273V332.544H394.918V325.918Z" fill="#C7A28C"/>
<path d="M482.424 467.41H423.352V528.193H482.424V467.41Z" fill="#C7A28C"/>
<path d="M453.074 331.737H452.43V467.434H453.074V331.737Z" fill="#C7A28C"/>
<path d="M453.074 528.168H452.43V663.866H453.074V528.168Z" fill="#C7A28C"/>
<path d="M614.784 497.447H482.398V498.107H614.784V497.447Z" fill="#C7A28C"/>
<path d="M423.152 497.447H290.766V498.107H423.152V497.447Z" fill="#C7A28C"/>
<path d="M499.851 331.737H499.207V497.447H499.851V331.737Z" fill="#C7A28C"/>
<path d="M499.836 561.322H499.18L499.216 497.569H499.86L499.836 561.322Z" fill="#C7A28C"/>
<path d="M559.46 331.737H558.816V561.42H559.46V331.737Z" fill="#C7A28C"/>
<path d="M595.761 331.737H595.117V664H595.761V331.737Z" fill="#C7A28C"/>
<path d="M614.753 600.528H290.766V601.188H614.753V600.528Z" fill="#C7A28C"/>
<path d="M595.634 560.992H559.031V600.662H595.634V560.992Z" fill="#C7A28C"/>
<path d="M499.851 600.601H499.207V663.841H499.851V600.601Z" fill="#C7A28C"/>
<path d="M480.504 560.992C480.504 571.75 489.008 580.467 499.503 580.467V579.244C489.676 579.244 481.697 571.078 481.697 560.992H480.504ZM499.491 541.518C488.996 541.518 480.492 550.234 480.492 560.992H481.685C481.685 550.907 489.652 542.74 499.491 542.74V541.518ZM518.491 560.992C518.491 550.234 509.987 541.518 499.491 541.518V542.74C509.331 542.74 517.298 550.907 517.298 560.992H518.491ZM499.491 580.467C509.987 580.467 518.491 571.75 518.491 560.992H517.298C517.298 571.066 509.331 579.244 499.491 579.244V580.467Z" fill="#C7A28C"/>
<path d="M559.137 396.2V446.713C572.745 446.713 583.777 435.393 583.777 421.456C583.777 407.52 572.745 396.2 559.137 396.2Z" fill="#C7A28C"/>
<path d="M559.732 497.215V446.701H558.539V497.215H559.732ZM559.112 497.215C559.112 496.603 559.112 497.215 559.112 497.826V496.603C559.112 497.215 559.112 497.826 559.112 497.215ZM533.875 471.958C533.875 486.237 545.181 497.826 559.112 497.826V496.603C545.837 496.603 535.068 485.564 535.068 471.958H533.875ZM559.136 446.09C545.181 446.09 533.875 457.679 533.875 471.958H535.068C535.068 458.351 545.837 447.312 559.136 447.312V446.09ZM559.136 497.215V497.826H559.732V497.215H559.136ZM559.136 446.701H559.732V446.09H559.136V446.701Z" fill="#C7A28C"/>
<path d="M559.463 560.809H453.137V561.469H559.463V560.809Z" fill="#C7A28C"/>
<path d="M343.277 331.737H342.633V663.829H343.277V331.737Z" fill="#C7A28C"/>
<path d="M424.046 527.117H423.402V656.812H424.046V527.117Z" fill="#C7A28C"/>
<path d="M452.777 372.507H290.766V373.167H452.777V372.507Z" fill="#C7A28C"/>
<path d="M342.359 432.471C342.359 452.716 358.365 469.121 378.115 469.121V467.899C359.033 467.899 343.552 452.043 343.552 432.471H342.359ZM378.115 395.821C358.365 395.821 342.359 412.226 342.359 432.471H343.552C343.552 412.911 359.021 397.043 378.115 397.043V395.821ZM413.872 432.471C413.872 412.226 397.866 395.821 378.115 395.821V397.043C397.198 397.043 412.679 412.911 412.679 432.471H413.872ZM378.115 469.121C397.866 469.121 413.872 452.716 413.872 432.471H412.679C412.679 452.031 397.21 467.899 378.115 467.899V469.121Z" fill="#C7A28C"/>
<path d="M559.44 600.711H499.842C499.747 602.068 499.711 603.45 499.711 604.831C499.711 637.423 525.496 663.853 557.293 663.853C557.996 663.853 558.712 663.829 559.416 663.804V600.699H559.44V600.711Z" fill="#C7A28C"/>
<path opacity="0.5" d="M614.766 608.829C614.861 607.496 614.897 606.151 614.897 604.819C614.897 603.486 614.849 602.129 614.766 600.809V608.829Z" fill="#C7A28C"/>
<path d="M342.956 657.631H452.729V656.408H342.956V657.631ZM397.842 600.406C367.298 600.406 342.502 625.724 342.359 657.02H343.552C343.683 626.408 367.954 601.628 397.842 601.628V600.406ZM453.325 657.02C453.182 625.724 428.386 600.406 397.842 600.406V601.628C427.73 601.628 452.001 626.408 452.132 657.02H453.325ZM342.956 657.02H342.359V657.631H342.956V657.02ZM452.729 657.02V657.631H453.325V657.02H452.729Z" fill="#C7A28C"/>
<path d="M558.87 497.567L499.43 560.616L499.893 561.074L559.333 498.025L558.87 497.567Z" fill="#C7A28C"/>
<path d="M394.934 401.053V464.647C405.858 458.461 413.241 446.53 413.241 432.85C413.253 419.17 405.87 407.239 394.934 401.053Z" fill="#C7A28C"/>
<path d="M413.852 432.85C413.852 418.938 406.338 406.811 395.235 400.515L394.65 401.591C405.396 407.679 412.647 419.402 412.647 432.85H413.852ZM395.235 465.185C406.35 458.889 413.852 446.762 413.852 432.85H412.647C412.647 446.297 405.384 458.021 394.65 464.109L395.235 465.185ZM394.34 401.053V464.647H395.545V401.053H394.34ZM394.936 464.647H394.34V465.686L395.235 465.185L394.936 464.647ZM394.936 401.053L395.223 400.515L394.328 400.014V401.053H394.936Z" fill="#C7A28C"/>
<path d="M452.777 396.199H290.766V396.859H452.777V396.199Z" fill="#C7A28C"/>
<path d="M615.049 396.2H559.137V396.86H615.049V396.2Z" fill="#C7A28C"/>
<path d="M342.885 352.507H290.766V353.167H342.885V352.507Z" fill="#C7A28C"/>
<path d="M614.764 352.507H559.031V353.167H614.764V352.507Z" fill="#C7A28C"/>
<path d="M614.764 372.507H559.031V373.167H614.764V372.507Z" fill="#C7A28C"/>
<path d="M368.957 331.737H368.312V372.886H368.957V331.737Z" fill="#C7A28C"/>
<path d="M394.871 331.297H394.227V497.361H394.871V331.297Z" fill="#C7A28C"/>
<path d="M158.018 136.113H98.9453V196.896H158.018V136.113Z" fill="#C7A28C"/>
<path d="M128.671 0.439941H128.027V136.137H128.671V0.439941Z" fill="#C7A28C"/>
<path d="M128.671 196.871H128.027V332.569H128.671V196.871Z" fill="#C7A28C"/>
<path d="M290.382 166.15H157.996V166.81H290.382V166.15Z" fill="#C7A28C"/>
<path d="M98.7453 166.15H-33.6406V166.81H98.7453V166.15Z" fill="#C7A28C"/>
<path d="M175.445 0.439941H174.801V166.15H175.445V0.439941Z" fill="#C7A28C"/>
<path d="M175.437 230.025H174.781L174.817 166.272H175.461L175.437 230.025Z" fill="#C7A28C"/>
<path d="M235.054 0.439941H234.41V230.123H235.054V0.439941Z" fill="#C7A28C"/>
<path d="M271.355 0.439941H270.711V332.703H271.355V0.439941Z" fill="#C7A28C"/>
<path d="M290.347 269.231H-33.6406V269.891H290.347V269.231Z" fill="#C7A28C"/>
<path d="M128.371 325.307H-33.6406V325.967H128.371V325.307Z" fill="#C7A28C"/>
<path d="M290.468 325.307H234.734V325.967H290.468V325.307Z" fill="#C7A28C"/>
<path d="M18.5504 325.612H-33.6406V332.544H18.5504V325.612Z" fill="#C7A28C"/>
<path d="M290.36 325.612H271.039V332.544H290.36V325.612Z" fill="#C7A28C"/>
<path d="M271.216 229.695H234.613V269.365H271.216V229.695Z" fill="#C7A28C"/>
<path d="M175.445 269.304H174.801V332.544H175.445V269.304Z" fill="#C7A28C"/>
<path d="M156.106 229.695C156.106 240.453 164.609 249.17 175.105 249.17V247.947C165.277 247.947 157.298 239.781 157.298 229.695H156.106ZM175.093 210.221C164.597 210.221 156.094 218.937 156.094 229.695H157.286C157.286 219.61 165.253 211.443 175.093 211.443V210.221ZM194.092 229.695C194.092 218.937 185.588 210.221 175.093 210.221V211.443C184.932 211.443 192.899 219.61 192.899 229.695H194.092ZM175.093 249.17C185.588 249.17 194.092 240.453 194.092 229.695H192.899C192.899 239.769 184.932 247.947 175.093 247.947V249.17Z" fill="#C7A28C"/>
<path d="M234.734 64.9025V115.416C248.331 115.416 259.375 104.096 259.375 90.1593C259.375 76.2228 248.343 64.9025 234.734 64.9025Z" fill="#C7A28C"/>
<path d="M235.326 165.917V115.404H234.133V165.917H235.326ZM234.706 165.917C234.706 165.306 234.706 165.917 234.706 166.529V165.306C234.706 165.917 234.706 166.529 234.706 165.917ZM209.469 140.661C209.469 154.939 220.775 166.529 234.706 166.529V165.306C221.431 165.306 210.661 154.267 210.661 140.661H209.469ZM234.729 114.793C220.775 114.793 209.469 126.382 209.469 140.661H210.661C210.661 127.054 221.431 116.015 234.729 116.015V114.793ZM234.729 165.917V166.529H235.326V165.917H234.729ZM234.729 115.404H235.326V114.793H234.729V115.404Z" fill="#C7A28C"/>
<path d="M235.06 229.512H128.734V230.172H235.06V229.512Z" fill="#C7A28C"/>
<path d="M18.8706 0.439941H18.2266V332.532H18.8706V0.439941Z" fill="#C7A28C"/>
<path d="M99.6362 195.82H98.9922V325.515H99.6362V195.82Z" fill="#C7A28C"/>
<path d="M128.371 41.2102H-33.6406V41.8703H128.371V41.2102Z" fill="#C7A28C"/>
<path d="M17.957 101.174C17.957 121.419 33.9626 137.825 53.7131 137.825V136.602C34.6305 136.602 19.1497 120.746 19.1497 101.174H17.957ZM53.7131 64.5358C33.9626 64.5358 17.957 80.9417 17.957 101.186H19.1497C19.1497 81.6263 34.6185 65.7583 53.7131 65.7583V64.5358ZM89.4692 101.174C89.4692 80.9295 73.4637 64.5236 53.7131 64.5236V65.7461C72.7958 65.7461 88.2766 81.6019 88.2766 101.174H89.4692ZM53.7131 137.825C73.4637 137.825 89.4692 121.419 89.4692 101.174H88.2766C88.2766 120.734 72.8077 136.602 53.7131 136.602V137.825Z" fill="#C7A28C"/>
<path d="M235.033 269.414H175.436C175.34 270.771 175.305 272.153 175.305 273.534C175.305 306.126 201.09 332.556 232.887 332.556C233.59 332.556 234.306 332.532 235.01 332.507V269.402H235.033V269.414Z" fill="#C7A28C"/>
<path opacity="0.5" d="M290.352 277.532C290.447 276.199 290.483 274.867 290.483 273.522C290.483 272.189 290.435 270.832 290.352 269.512V277.532Z" fill="#C7A28C"/>
<path d="M18.5534 326.334H128.326V325.111H18.5534V326.334ZM73.4399 269.108C42.8957 269.108 18.1002 294.426 17.957 325.722H19.1497C19.2809 295.111 43.5517 270.331 73.4399 270.331V269.108ZM128.923 325.722C128.78 294.426 103.984 269.108 73.4399 269.108V270.331C103.328 270.331 127.599 295.111 127.73 325.722H128.923ZM18.5534 325.722H17.957V326.334H18.5534V325.722ZM128.326 325.722V326.334H128.923V325.722H128.326Z" fill="#C7A28C"/>
<path d="M234.531 166.229L175.082 229.278L175.545 229.737L234.994 166.688L234.531 166.229Z" fill="#C7A28C"/>
<path d="M70.5273 69.7557V133.35C81.4522 127.164 88.8347 115.233 88.8347 101.553C88.8347 87.8732 81.4641 75.9416 70.5273 69.7557Z" fill="#C7A28C"/>
<path d="M89.4458 101.553C89.4458 87.6407 81.932 75.5013 70.8283 69.2177L70.2438 70.2935C80.9898 76.3693 88.2412 88.1053 88.2412 101.553H89.4458ZM70.8283 133.888C81.944 127.592 89.4458 115.465 89.4458 101.553H88.2412C88.2412 115 80.9778 126.724 70.2438 132.812L70.8283 133.888ZM69.9338 69.7556V133.35H71.1383V69.7556H69.9338ZM70.5301 133.35H69.9338V134.389L70.8283 133.888L70.5301 133.35ZM70.5301 69.7556L70.8164 69.2177L69.9219 68.7164V69.7556H70.5301Z" fill="#C7A28C"/>
<path d="M128.371 64.9025H-33.6406V65.5626H128.371V64.9025Z" fill="#C7A28C"/>
<path d="M290.647 64.9025H234.734V65.5626H290.647V64.9025Z" fill="#C7A28C"/>
<path d="M18.4789 21.2101H-33.6406V21.8702H18.4789V21.2101Z" fill="#C7A28C"/>
<path d="M290.347 21.2101H234.613V21.8702H290.347V21.2101Z" fill="#C7A28C"/>
<path d="M290.347 41.2102H234.613V41.8703H290.347V41.2102Z" fill="#C7A28C"/>
<path d="M44.5503 0.439941H43.9062V41.5892H44.5503V0.439941Z" fill="#C7A28C"/>
<path d="M44.5503 325.954H43.9062V332.58H44.5503V325.954Z" fill="#C7A28C"/>
<path d="M70.4682 0H69.8242V166.064H70.4682V0Z" fill="#C7A28C"/>
<path d="M70.5152 325.918H69.8711V332.544H70.5152V325.918Z" fill="#C7A28C"/>
<path d="M158.018 467.41H98.9453V528.193H158.018V467.41Z" fill="#C7A28C"/>
<path d="M128.671 331.737H128.027V467.434H128.671V331.737Z" fill="#C7A28C"/>
<path d="M128.671 528.168H128.027V663.866H128.671V528.168Z" fill="#C7A28C"/>
<path d="M290.382 497.447H157.996V498.107H290.382V497.447Z" fill="#C7A28C"/>
<path d="M98.7453 497.447H-33.6406V498.107H98.7453V497.447Z" fill="#C7A28C"/>
<path d="M175.445 331.737H174.801V497.447H175.445V331.737Z" fill="#C7A28C"/>
<path d="M175.437 561.322H174.781L174.817 497.569H175.461L175.437 561.322Z" fill="#C7A28C"/>
<path d="M235.054 331.737H234.41V561.42H235.054V331.737Z" fill="#C7A28C"/>
<path d="M271.355 331.737H270.711V664H271.355V331.737Z" fill="#C7A28C"/>
<path d="M290.347 600.528H-33.6406V601.188H290.347V600.528Z" fill="#C7A28C"/>
<path d="M271.216 560.992H234.613V600.662H271.216V560.992Z" fill="#C7A28C"/>
<path d="M175.445 600.601H174.801V663.841H175.445V600.601Z" fill="#C7A28C"/>
<path d="M156.106 560.992C156.106 571.75 164.609 580.467 175.105 580.467V579.244C165.277 579.244 157.298 571.078 157.298 560.992H156.106ZM175.093 541.518C164.597 541.518 156.094 550.234 156.094 560.992H157.286C157.286 550.907 165.253 542.74 175.093 542.74V541.518ZM194.092 560.992C194.092 550.234 185.588 541.518 175.093 541.518V542.74C184.932 542.74 192.899 550.907 192.899 560.992H194.092ZM175.093 580.467C185.588 580.467 194.092 571.75 194.092 560.992H192.899C192.899 571.066 184.932 579.244 175.093 579.244V580.467Z" fill="#C7A28C"/>
<path d="M234.734 396.2V446.713C248.331 446.713 259.375 435.393 259.375 421.456C259.375 407.52 248.343 396.2 234.734 396.2Z" fill="#C7A28C"/>
<path d="M235.326 497.215V446.701H234.133V497.215H235.326ZM234.706 497.215C234.706 496.603 234.706 497.215 234.706 497.826V496.603C234.706 497.215 234.706 497.826 234.706 497.215ZM209.469 471.958C209.469 486.237 220.775 497.826 234.706 497.826V496.603C221.431 496.603 210.661 485.564 210.661 471.958H209.469ZM234.729 446.09C220.775 446.09 209.469 457.679 209.469 471.958H210.661C210.661 458.351 221.431 447.312 234.729 447.312V446.09ZM234.729 497.215V497.826H235.326V497.215H234.729ZM234.729 446.701H235.326V446.09H234.729V446.701Z" fill="#C7A28C"/>
<path d="M235.06 560.809H128.734V561.469H235.06V560.809Z" fill="#C7A28C"/>
<path d="M18.8706 331.737H18.2266V663.829H18.8706V331.737Z" fill="#C7A28C"/>
<path d="M99.6362 527.117H98.9922V656.812H99.6362V527.117Z" fill="#C7A28C"/>
<path d="M128.371 372.507H-33.6406V373.167H128.371V372.507Z" fill="#C7A28C"/>
<path d="M17.957 432.471C17.957 452.716 33.9626 469.121 53.7131 469.121V467.899C34.6305 467.899 19.1497 452.043 19.1497 432.471H17.957ZM53.7131 395.821C33.9626 395.821 17.957 412.226 17.957 432.471H19.1497C19.1497 412.911 34.6185 397.043 53.7131 397.043V395.821ZM89.4692 432.471C89.4692 412.226 73.4637 395.821 53.7131 395.821V397.043C72.7958 397.043 88.2766 412.911 88.2766 432.471H89.4692ZM53.7131 469.121C73.4637 469.121 89.4692 452.716 89.4692 432.471H88.2766C88.2766 452.031 72.8077 467.899 53.7131 467.899V469.121Z" fill="#C7A28C"/>
<path d="M235.033 600.711H175.436C175.34 602.068 175.305 603.45 175.305 604.831C175.305 637.423 201.09 663.853 232.887 663.853C233.59 663.853 234.306 663.829 235.01 663.804V600.699H235.033V600.711Z" fill="#C7A28C"/>
<path opacity="0.5" d="M290.352 608.829C290.447 607.496 290.483 606.151 290.483 604.819C290.483 603.486 290.435 602.129 290.352 600.809V608.829Z" fill="#C7A28C"/>
<path d="M18.5534 657.631H128.326V656.408H18.5534V657.631ZM73.4399 600.406C42.8957 600.406 18.1002 625.724 17.957 657.02H19.1497C19.2809 626.408 43.5517 601.628 73.4399 601.628V600.406ZM128.923 657.02C128.78 625.724 103.984 600.406 73.4399 600.406V601.628C103.328 601.628 127.599 626.408 127.73 657.02H128.923ZM18.5534 657.02H17.957V657.631H18.5534V657.02ZM128.326 657.02V657.631H128.923V657.02H128.326Z" fill="#C7A28C"/>
<path d="M234.464 497.562L175.023 560.611L175.487 561.07L234.927 498.021L234.464 497.562Z" fill="#C7A28C"/>
<path d="M70.5273 401.053V464.647C81.4522 458.461 88.8347 446.53 88.8347 432.85C88.8467 419.17 81.4641 407.239 70.5273 401.053Z" fill="#C7A28C"/>
<path d="M89.4458 432.85C89.4458 418.938 81.932 406.811 70.8283 400.515L70.2438 401.591C80.9898 407.679 88.2412 419.402 88.2412 432.85H89.4458ZM70.8283 465.185C81.944 458.889 89.4458 446.762 89.4458 432.85H88.2412C88.2412 446.297 80.9778 458.021 70.2438 464.109L70.8283 465.185ZM69.9338 401.053V464.647H71.1383V401.053H69.9338ZM70.5301 464.647H69.9338V465.686L70.8283 465.185L70.5301 464.647ZM70.5301 401.053L70.8164 400.515L69.9219 400.014V401.053H70.5301Z" fill="#C7A28C"/>
<path d="M128.371 396.199H-33.6406V396.859H128.371V396.199Z" fill="#C7A28C"/>
<path d="M290.647 396.2H234.734V396.86H290.647V396.2Z" fill="#C7A28C"/>
<path d="M18.4789 352.507H-33.6406V353.167H18.4789V352.507Z" fill="#C7A28C"/>
<path d="M290.347 352.507H234.613V353.167H290.347V352.507Z" fill="#C7A28C"/>
<path d="M290.347 372.507H234.613V373.167H290.347V372.507Z" fill="#C7A28C"/>
<path d="M44.5503 331.737H43.9062V372.886H44.5503V331.737Z" fill="#C7A28C"/>
<path d="M70.4682 331.297H69.8242V497.361H70.4682V331.297Z" fill="#C7A28C"/>
</g>
<defs>
<clipPath id="clip0_777_5431">
<rect width="615" height="647" fill="white"/>
</clipPath>
</defs>
</svg>
